<svg version="1.1" xmlns="http://www.w3.org/2000/svg" viewBox="0 0 1070 1188.9213627499882" width="1070" height="1188.9213627499882">
  <!-- svg-source:excalidraw -->
  
  <defs>
    <style class="style-fonts">
      @font-face {
        font-family: "Virgil";
        src: url("https://unpkg.com/@excalidraw/excalidraw@undefined/dist/excalidraw-assets/Virgil.woff2");
      }
      @font-face {
        font-family: "Cascadia";
        src: url("https://unpkg.com/@excalidraw/excalidraw@undefined/dist/excalidraw-assets/Cascadia.woff2");
      }
      @font-face {
        font-family: "Assistant";
        src: url("https://unpkg.com/@excalidraw/excalidraw@undefined/dist/excalidraw-assets/Assistant-Regular.woff2");
      }
    </style>
    
  </defs>
  <rect x="0" y="0" width="1070" height="1188.9213627499882" fill="#ffffff"/><g stroke-linecap="round" transform="translate(350 75) rotate(0 190 20)"><path d="M10 0 C137.12 0, 264.24 0, 370 0 M370 0 C376.67 0, 380 3.33, 380 10 M380 10 C380 16.45, 380 22.89, 380 30 M380 30 C380 36.67, 376.67 40, 370 40 M370 40 C253.93 40, 137.85 40, 10 40 M10 40 C3.33 40, 0 36.67, 0 30 M0 30 C0 23.97, 0 17.93, 0 10 M0 10 C0 3.33, 3.33 0, 10 0" stroke="#868e96" stroke-width="1.5" fill="none" stroke-dasharray="8 9"/></g><g transform="translate(360 85) rotate(0 180 10)"><text x="180" y="0" font-family="Virgil, Segoe UI Emoji" font-size="12px" fill="#868e96" text-anchor="middle" style="white-space: pre;" direction="ltr" dominant-baseline="text-before-edge">SDK: QueryMode.remote(DO) | QueryMode.local()</text></g><g stroke-linecap="round" transform="translate(450 130) rotate(0 90 35)"><path d="M180 35 C180 36.31, 179.81 37.62, 179.43 38.92 C179.06 40.22, 178.49 41.51, 177.74 42.79 C177 44.06, 176.06 45.33, 174.95 46.56 C173.84 47.79, 172.54 49.01, 171.09 50.19 C169.63 51.36, 167.99 52.52, 166.21 53.62 C164.42 54.73, 162.46 55.8, 160.36 56.82 C158.27 57.84, 156.01 58.83, 153.64 59.75 C151.26 60.67, 148.74 61.55, 146.11 62.36 C143.49 63.18, 140.73 63.94, 137.88 64.64 C135.04 65.33, 132.08 65.97, 129.05 66.53 C126.02 67.1, 122.9 67.6, 119.73 68.04 C116.55 68.47, 113.3 68.83, 110.03 69.12 C106.75 69.41, 103.41 69.63, 100.08 69.78 C96.74 69.93, 93.36 70, 90 70 C86.64 70, 83.26 69.93, 79.92 69.78 C76.59 69.63, 73.25 69.41, 69.97 69.12 C66.7 68.83, 63.45 68.47, 60.27 68.04 C57.1 67.6, 53.98 67.1, 50.95 66.53 C47.92 65.97, 44.96 65.33, 42.12 64.64 C39.27 63.94, 36.51 63.18, 33.89 62.36 C31.26 61.55, 28.74 60.67, 26.36 59.75 C23.99 58.83, 21.73 57.84, 19.64 56.82 C17.54 55.8, 15.58 54.73, 13.79 53.62 C12.01 52.52, 10.37 51.36, 8.91 50.19 C7.46 49.01, 6.16 47.79, 5.05 46.56 C3.94 45.33, 3 44.06, 2.26 42.79 C1.51 41.51, 0.94 40.22, 0.57 38.92 C0.19 37.62, 0 36.31, 0 35 C0 33.69, 0.19 32.38, 0.57 31.08 C0.94 29.78, 1.51 28.49, 2.26 27.21 C3 25.94, 3.94 24.67, 5.05 23.44 C6.16 22.21, 7.46 20.99, 8.91 19.81 C10.37 18.64, 12.01 17.48, 13.79 16.38 C15.58 15.27, 17.54 14.2, 19.64 13.18 C21.73 12.16, 23.99 11.17, 26.36 10.25 C28.74 9.33, 31.26 8.45, 33.89 7.64 C36.51 6.82, 39.27 6.06, 42.12 5.36 C44.96 4.67, 47.92 4.03, 50.95 3.47 C53.98 2.9, 57.1 2.4, 60.27 1.96 C63.45 1.53, 66.7 1.17, 69.97 0.88 C73.25 0.59, 76.59 0.37, 79.92 0.22 C83.26 0.07, 86.64 0, 90 0 C93.36 0, 96.74 0.07, 100.08 0.22 C103.41 0.37, 106.75 0.59, 110.03 0.88 C113.3 1.17, 116.55 1.53, 119.73 1.96 C122.9 2.4, 126.02 2.9, 129.05 3.47 C132.08 4.03, 135.04 4.67, 137.88 5.36 C140.73 6.06, 143.49 6.82, 146.11 7.64 C148.74 8.45, 151.26 9.33, 153.64 10.25 C156.01 11.17, 158.27 12.16, 160.36 13.18 C162.46 14.2, 164.42 15.27, 166.21 16.38 C167.99 17.48, 169.63 18.64, 171.09 19.81 C172.54 20.99, 173.84 22.21, 174.95 23.44 C176.06 24.67, 177 25.94, 177.74 27.21 C178.49 28.49, 179.06 29.78, 179.43 31.08 C179.81 32.38, 179.91 34.35, 180 35 C180.09 35.65, 180.09 34.35, 180 35" stroke="none" stroke-width="0" fill="#e7f5ff"/><path d="M180 35 C180 36.31, 179.81 37.62, 179.43 38.92 C179.06 40.22, 178.49 41.51, 177.74 42.79 C177 44.06, 176.06 45.33, 174.95 46.56 C173.84 47.79, 172.54 49.01, 171.09 50.19 C169.63 51.36, 167.99 52.52, 166.21 53.62 C164.42 54.73, 162.46 55.8, 160.36 56.82 C158.27 57.84, 156.01 58.83, 153.64 59.75 C151.26 60.67, 148.74 61.55, 146.11 62.36 C143.49 63.18, 140.73 63.94, 137.88 64.64 C135.04 65.33, 132.08 65.97, 129.05 66.53 C126.02 67.1, 122.9 67.6, 119.73 68.04 C116.55 68.47, 113.3 68.83, 110.03 69.12 C106.75 69.41, 103.41 69.63, 100.08 69.78 C96.74 69.93, 93.36 70, 90 70 C86.64 70, 83.26 69.93, 79.92 69.78 C76.59 69.63, 73.25 69.41, 69.97 69.12 C66.7 68.83, 63.45 68.47, 60.27 68.04 C57.1 67.6, 53.98 67.1, 50.95 66.53 C47.92 65.97, 44.96 65.33, 42.12 64.64 C39.27 63.94, 36.51 63.18, 33.89 62.36 C31.26 61.55, 28.74 60.67, 26.36 59.75 C23.99 58.83, 21.73 57.84, 19.64 56.82 C17.54 55.8, 15.58 54.73, 13.79 53.62 C12.01 52.52, 10.37 51.36, 8.91 50.19 C7.46 49.01, 6.16 47.79, 5.05 46.56 C3.94 45.33, 3 44.06, 2.26 42.79 C1.51 41.51, 0.94 40.22, 0.57 38.92 C0.19 37.62, 0 36.31, 0 35 C0 33.69, 0.19 32.38, 0.57 31.08 C0.94 29.78, 1.51 28.49, 2.26 27.21 C3 25.94, 3.94 24.67, 5.05 23.44 C6.16 22.21, 7.46 20.99, 8.91 19.81 C10.37 18.64, 12.01 17.48, 13.79 16.38 C15.58 15.27, 17.54 14.2, 19.64 13.18 C21.73 12.16, 23.99 11.17, 26.36 10.25 C28.74 9.33, 31.26 8.45, 33.89 7.64 C36.51 6.82, 39.27 6.06, 42.12 5.36 C44.96 4.67, 47.92 4.03, 50.95 3.47 C53.98 2.9, 57.1 2.4, 60.27 1.96 C63.45 1.53, 66.7 1.17, 69.97 0.88 C73.25 0.59, 76.59 0.37, 79.92 0.22 C83.26 0.07, 86.64 0, 90 0 C93.36 0, 96.74 0.07, 100.08 0.22 C103.41 0.37, 106.75 0.59, 110.03 0.88 C113.3 1.17, 116.55 1.53, 119.73 1.96 C122.9 2.4, 126.02 2.9, 129.05 3.47 C132.08 4.03, 135.04 4.67, 137.88 5.36 C140.73 6.06, 143.49 6.82, 146.11 7.64 C148.74 8.45, 151.26 9.33, 153.64 10.25 C156.01 11.17, 158.27 12.16, 160.36 13.18 C162.46 14.2, 164.42 15.27, 166.21 16.38 C167.99 17.48, 169.63 18.64, 171.09 19.81 C172.54 20.99, 173.84 22.21, 174.95 23.44 C176.06 24.67, 177 25.94, 177.74 27.21 C178.49 28.49, 179.06 29.78, 179.43 31.08 C179.81 32.38, 179.91 34.35, 180 35 C180.09 35.65, 180.09 34.35, 180 35" stroke="#1971c2" stroke-width="2" fill="none"/></g><g transform="translate(460 147.5) rotate(0 80 17.5)"><text x="80" y="0" font-family="Virgil, Segoe UI Emoji" font-size="14px" fill="#1971c2" text-anchor="middle" style="white-space: pre;" direction="ltr" dominant-baseline="text-before-edge">Client</text><text x="80" y="17.5" font-family="Virgil, Segoe UI Emoji" font-size="14px" fill="#1971c2" text-anchor="middle" style="white-space: pre;" direction="ltr" dominant-baseline="text-before-edge">POST /query</text></g><g stroke-linecap="round" transform="translate(340 240) rotate(0 200 35)"><path d="M17.5 0 C102.66 0, 187.83 0, 382.5 0 C394.17 0, 400 5.83, 400 17.5 C400 27.02, 400 36.53, 400 52.5 C400 64.17, 394.17 70, 382.5 70 C283.53 70, 184.56 70, 17.5 70 C5.83 70, 0 64.17, 0 52.5 C0 40.53, 0 28.56, 0 17.5 C0 5.83, 5.83 0, 17.5 0" stroke="none" stroke-width="0" fill="#d0bfff"/><path d="M17.5 0 C132.97 0, 248.43 0, 382.5 0 M17.5 0 C124.08 0, 230.67 0, 382.5 0 M382.5 0 C394.17 0, 400 5.83, 400 17.5 M382.5 0 C394.17 0, 400 5.83, 400 17.5 M400 17.5 C400 24.79, 400 32.09, 400 52.5 M400 17.5 C400 29.28, 400 41.06, 400 52.5 M400 52.5 C400 64.17, 394.17 70, 382.5 70 M400 52.5 C400 64.17, 394.17 70, 382.5 70 M382.5 70 C277.28 70, 172.06 70, 17.5 70 M382.5 70 C301.13 70, 219.75 70, 17.5 70 M17.5 70 C5.83 70, 0 64.17, 0 52.5 M17.5 70 C5.83 70, 0 64.17, 0 52.5 M0 52.5 C0 38.82, 0 25.14, 0 17.5 M0 52.5 C0 45.04, 0 37.57, 0 17.5 M0 17.5 C0 5.83, 5.83 0, 17.5 0 M0 17.5 C0 5.83, 5.83 0, 17.5 0" stroke="#7048e8" stroke-width="2" fill="none"/></g><g transform="translate(350 252.5) rotate(0 190 22.5)"><text x="190" y="0" font-family="Virgil, Segoe UI Emoji" font-size="12px" fill="#7048e8" text-anchor="middle" style="white-space: pre;" direction="ltr" dominant-baseline="text-before-edge">Cloudflare Worker (Router)</text><text x="190" y="15" font-family="Virgil, Segoe UI Emoji" font-size="12px" fill="#7048e8" text-anchor="middle" style="white-space: pre;" direction="ltr" dominant-baseline="text-before-edge">Extracts CF-Ray datacenter, sets x-querymode-region</text><text x="190" y="30" font-family="Virgil, Segoe UI Emoji" font-size="12px" fill="#7048e8" text-anchor="middle" style="white-space: pre;" direction="ltr" dominant-baseline="text-before-edge">/query | /query/stream | /write | /refresh</text></g><g stroke-linecap="round" transform="translate(10 355) rotate(0 100 60)"><path d="M30 0 C72.26 0, 114.52 0, 170 0 C190 0, 200 10, 200 30 C200 50.59, 200 71.19, 200 90 C200 110, 190 120, 170 120 C120.67 120, 71.33 120, 30 120 C10 120, 0 110, 0 90 C0 66.51, 0 43.01, 0 30 C0 10, 10 0, 30 0" stroke="none" stroke-width="0" fill="#ffa8a8"/><path d="M30 0 C71.52 0, 113.05 0, 170 0 M30 0 C83.6 0, 137.21 0, 170 0 M170 0 C190 0, 200 10, 200 30 M170 0 C190 0, 200 10, 200 30 M200 30 C200 48.63, 200 67.27, 200 90 M200 30 C200 53.69, 200 77.37, 200 90 M200 90 C200 110, 190 120, 170 120 M200 90 C200 110, 190 120, 170 120 M170 120 C114.62 120, 59.24 120, 30 120 M170 120 C136.26 120, 102.51 120, 30 120 M30 120 C10 120, 0 110, 0 90 M30 120 C10 120, 0 110, 0 90 M0 90 C0 69.07, 0 48.15, 0 30 M0 90 C0 68.63, 0 47.27, 0 30 M0 30 C0 10, 10 0, 30 0 M0 30 C0 10, 10 0, 30 0" stroke="#c92a2a" stroke-width="3" fill="none"/></g><g transform="translate(20 366.875) rotate(0 90 48.125)"><text x="90" y="0" font-family="Virgil, Segoe UI Emoji" font-size="11px" fill="#c92a2a" text-anchor="middle" style="white-space: pre;" direction="ltr" dominant-baseline="text-before-edge">Master DO</text><text x="90" y="13.75" font-family="Virgil, Segoe UI Emoji" font-size="11px" fill="#c92a2a" text-anchor="middle" style="white-space: pre;" direction="ltr" dominant-baseline="text-before-edge">(Single Writer)</text><text x="90" y="27.5" font-family="Virgil, Segoe UI Emoji" font-size="11px" fill="#c92a2a" text-anchor="middle" style="white-space: pre;" direction="ltr" dominant-baseline="text-before-edge"/><text x="90" y="41.25" font-family="Virgil, Segoe UI Emoji" font-size="11px" fill="#c92a2a" text-anchor="middle" style="white-space: pre;" direction="ltr" dominant-baseline="text-before-edge">SQLite: TableMeta</text><text x="90" y="55" font-family="Virgil, Segoe UI Emoji" font-size="11px" fill="#c92a2a" text-anchor="middle" style="white-space: pre;" direction="ltr" dominant-baseline="text-before-edge">Reads footers from R2</text><text x="90" y="68.75" font-family="Virgil, Segoe UI Emoji" font-size="11px" fill="#c92a2a" text-anchor="middle" style="white-space: pre;" direction="ltr" dominant-baseline="text-before-edge">Broadcasts invalidations</text><text x="90" y="82.5" font-family="Virgil, Segoe UI Emoji" font-size="11px" fill="#c92a2a" text-anchor="middle" style="white-space: pre;" direction="ltr" dominant-baseline="text-before-edge">Returns tableVersions</text></g><g stroke-linecap="round" transform="translate(246.52424091601654 344.3709642358241) rotate(0 406.73787954199173 107.75729011254606)"><path d="M32 0 C322.03 0, 612.05 0, 781.48 0 M781.48 0 C802.81 0, 813.48 10.67, 813.48 32 M813.48 32 C813.48 73.9, 813.48 115.8, 813.48 183.51 M813.48 183.51 C813.48 204.85, 802.81 215.51, 781.48 215.51 M781.48 215.51 C596.89 215.51, 412.31 215.51, 32 215.51 M32 215.51 C10.67 215.51, 0 204.85, 0 183.51 M0 183.51 C0 151.85, 0 120.19, 0 32 M0 32 C0 10.67, 10.67 0, 32 0" stroke="#868e96" stroke-width="1.5" fill="none" stroke-dasharray="8 9"/></g><g stroke-linecap="round" transform="translate(290 375.1260756922146) rotate(0 105 80)"><path d="M32 0 C87.77 0, 143.55 0, 178 0 C199.33 0, 210 10.67, 210 32 C210 57.45, 210 82.9, 210 128 C210 149.33, 199.33 160, 178 160 C132.44 160, 86.87 160, 32 160 C10.67 160, 0 149.33, 0 128 C0 97.48, 0 66.97, 0 32 C0 10.67, 10.67 0, 32 0" stroke="none" stroke-width="0" fill="#a5d8ff"/><path d="M32 0 C87.33 0, 142.65 0, 178 0 M32 0 C73.84 0, 115.67 0, 178 0 M178 0 C199.33 0, 210 10.67, 210 32 M178 0 C199.33 0, 210 10.67, 210 32 M210 32 C210 54.42, 210 76.84, 210 128 M210 32 C210 66.64, 210 101.28, 210 128 M210 128 C210 149.33, 199.33 160, 178 160 M210 128 C210 149.33, 199.33 160, 178 160 M178 160 C132.14 160, 86.28 160, 32 160 M178 160 C141.29 160, 104.59 160, 32 160 M32 160 C10.67 160, 0 149.33, 0 128 M32 160 C10.67 160, 0 149.33, 0 128 M0 128 C0 100.07, 0 72.13, 0 32 M0 128 C0 99.13, 0 70.26, 0 32 M0 32 C0 10.67, 10.67 0, 32 0 M0 32 C0 10.67, 10.67 0, 32 0" stroke="#1971c2" stroke-width="2" fill="none"/></g><g transform="translate(300 393.2510756922146) rotate(0 95 61.875)"><text x="95" y="0" font-family="Virgil, Segoe UI Emoji" font-size="11px" fill="#1971c2" text-anchor="middle" style="white-space: pre;" direction="ltr" dominant-baseline="text-before-edge">Query DO — SJC</text><text x="95" y="13.75" font-family="Virgil, Segoe UI Emoji" font-size="11px" fill="#1971c2" text-anchor="middle" style="white-space: pre;" direction="ltr" dominant-baseline="text-before-edge"/><text x="95" y="27.5" font-family="Virgil, Segoe UI Emoji" font-size="11px" fill="#1971c2" text-anchor="middle" style="white-space: pre;" direction="ltr" dominant-baseline="text-before-edge">Footer cache (~4KB/table)</text><text x="95" y="41.25" font-family="Virgil, Segoe UI Emoji" font-size="11px" fill="#1971c2" text-anchor="middle" style="white-space: pre;" direction="ltr" dominant-baseline="text-before-edge">WASM Engine (Zig SIMD)</text><text x="95" y="55" font-family="Virgil, Segoe UI Emoji" font-size="11px" fill="#1971c2" text-anchor="middle" style="white-space: pre;" direction="ltr" dominant-baseline="text-before-edge">Streaming operator pipeline</text><text x="95" y="68.75" font-family="Virgil, Segoe UI Emoji" font-size="11px" fill="#1971c2" text-anchor="middle" style="white-space: pre;" direction="ltr" dominant-baseline="text-before-edge">VIP eviction (zell)</text><text x="95" y="82.5" font-family="Virgil, Segoe UI Emoji" font-size="11px" fill="#1971c2" text-anchor="middle" style="white-space: pre;" direction="ltr" dominant-baseline="text-before-edge">Coalesced Range reads</text><text x="95" y="96.25" font-family="Virgil, Segoe UI Emoji" font-size="11px" fill="#1971c2" text-anchor="middle" style="white-space: pre;" direction="ltr" dominant-baseline="text-before-edge">refreshStaleTables()</text><text x="95" y="110" font-family="Virgil, Segoe UI Emoji" font-size="11px" fill="#1971c2" text-anchor="middle" style="white-space: pre;" direction="ltr" dominant-baseline="text-before-edge">Columnar binary streaming</text></g><g stroke-linecap="round" transform="translate(560 375) rotate(0 105 80)"><path d="M32 0 C67.8 0, 103.6 0, 178 0 C199.33 0, 210 10.67, 210 32 C210 52.43, 210 72.85, 210 128 C210 149.33, 199.33 160, 178 160 C137.83 160, 97.67 160, 32 160 C10.67 160, 0 149.33, 0 128 C0 97.07, 0 66.15, 0 32 C0 10.67, 10.67 0, 32 0" stroke="none" stroke-width="0" fill="#a5d8ff"/><path d="M32 0 C86.84 0, 141.68 0, 178 0 M32 0 C67.88 0, 103.75 0, 178 0 M178 0 C199.33 0, 210 10.67, 210 32 M178 0 C199.33 0, 210 10.67, 210 32 M210 32 C210 58.53, 210 85.06, 210 128 M210 32 C210 70.07, 210 108.14, 210 128 M210 128 C210 149.33, 199.33 160, 178 160 M210 128 C210 149.33, 199.33 160, 178 160 M178 160 C137.48 160, 96.97 160, 32 160 M178 160 C145.57 160, 113.13 160, 32 160 M32 160 C10.67 160, 0 149.33, 0 128 M32 160 C10.67 160, 0 149.33, 0 128 M0 128 C0 106.63, 0 85.26, 0 32 M0 128 C0 101.6, 0 75.21, 0 32 M0 32 C0 10.67, 10.67 0, 32 0 M0 32 C0 10.67, 10.67 0, 32 0" stroke="#1971c2" stroke-width="2" fill="none"/></g><g transform="translate(570 393.125) rotate(0 95 61.875)"><text x="95" y="0" font-family="Virgil, Segoe UI Emoji" font-size="11px" fill="#1971c2" text-anchor="middle" style="white-space: pre;" direction="ltr" dominant-baseline="text-before-edge">Query DO — NRT</text><text x="95" y="13.75" font-family="Virgil, Segoe UI Emoji" font-size="11px" fill="#1971c2" text-anchor="middle" style="white-space: pre;" direction="ltr" dominant-baseline="text-before-edge"/><text x="95" y="27.5" font-family="Virgil, Segoe UI Emoji" font-size="11px" fill="#1971c2" text-anchor="middle" style="white-space: pre;" direction="ltr" dominant-baseline="text-before-edge">Footer cache (~4KB/table)</text><text x="95" y="41.25" font-family="Virgil, Segoe UI Emoji" font-size="11px" fill="#1971c2" text-anchor="middle" style="white-space: pre;" direction="ltr" dominant-baseline="text-before-edge">WASM Engine (Zig SIMD)</text><text x="95" y="55" font-family="Virgil, Segoe UI Emoji" font-size="11px" fill="#1971c2" text-anchor="middle" style="white-space: pre;" direction="ltr" dominant-baseline="text-before-edge">Streaming operator pipeline</text><text x="95" y="68.75" font-family="Virgil, Segoe UI Emoji" font-size="11px" fill="#1971c2" text-anchor="middle" style="white-space: pre;" direction="ltr" dominant-baseline="text-before-edge">VIP eviction (zell)</text><text x="95" y="82.5" font-family="Virgil, Segoe UI Emoji" font-size="11px" fill="#1971c2" text-anchor="middle" style="white-space: pre;" direction="ltr" dominant-baseline="text-before-edge">Coalesced Range reads</text><text x="95" y="96.25" font-family="Virgil, Segoe UI Emoji" font-size="11px" fill="#1971c2" text-anchor="middle" style="white-space: pre;" direction="ltr" dominant-baseline="text-before-edge">refreshStaleTables()</text><text x="95" y="110" font-family="Virgil, Segoe UI Emoji" font-size="11px" fill="#1971c2" text-anchor="middle" style="white-space: pre;" direction="ltr" dominant-baseline="text-before-edge">Columnar binary streaming</text></g><g stroke-linecap="round" transform="translate(830 375) rotate(0 105 80)"><path d="M32 0 C70.41 0, 108.83 0, 178 0 C199.33 0, 210 10.67, 210 32 C210 68.12, 210 104.24, 210 128 C210 149.33, 199.33 160, 178 160 C123.22 160, 68.44 160, 32 160 C10.67 160, 0 149.33, 0 128 C0 106.34, 0 84.69, 0 32 C0 10.67, 10.67 0, 32 0" stroke="none" stroke-width="0" fill="#a5d8ff"/><path d="M32 0 C80.54 0, 129.07 0, 178 0 M32 0 C61.45 0, 90.89 0, 178 0 M178 0 C199.33 0, 210 10.67, 210 32 M178 0 C199.33 0, 210 10.67, 210 32 M210 32 C210 65.56, 210 99.12, 210 128 M210 32 C210 55.53, 210 79.06, 210 128 M210 128 C210 149.33, 199.33 160, 178 160 M210 128 C210 149.33, 199.33 160, 178 160 M178 160 C137.13 160, 96.25 160, 32 160 M178 160 C120.06 160, 62.12 160, 32 160 M32 160 C10.67 160, 0 149.33, 0 128 M32 160 C10.67 160, 0 149.33, 0 128 M0 128 C0 90.29, 0 52.59, 0 32 M0 128 C0 104.99, 0 81.98, 0 32 M0 32 C0 10.67, 10.67 0, 32 0 M0 32 C0 10.67, 10.67 0, 32 0" stroke="#1971c2" stroke-width="2" fill="none"/></g><g transform="translate(840 393.125) rotate(0 95 61.875)"><text x="95" y="0" font-family="Virgil, Segoe UI Emoji" font-size="11px" fill="#1971c2" text-anchor="middle" style="white-space: pre;" direction="ltr" dominant-baseline="text-before-edge">Query DO — AMS</text><text x="95" y="13.75" font-family="Virgil, Segoe UI Emoji" font-size="11px" fill="#1971c2" text-anchor="middle" style="white-space: pre;" direction="ltr" dominant-baseline="text-before-edge"/><text x="95" y="27.5" font-family="Virgil, Segoe UI Emoji" font-size="11px" fill="#1971c2" text-anchor="middle" style="white-space: pre;" direction="ltr" dominant-baseline="text-before-edge">Footer cache (~4KB/table)</text><text x="95" y="41.25" font-family="Virgil, Segoe UI Emoji" font-size="11px" fill="#1971c2" text-anchor="middle" style="white-space: pre;" direction="ltr" dominant-baseline="text-before-edge">WASM Engine (Zig SIMD)</text><text x="95" y="55" font-family="Virgil, Segoe UI Emoji" font-size="11px" fill="#1971c2" text-anchor="middle" style="white-space: pre;" direction="ltr" dominant-baseline="text-before-edge">Streaming operator pipeline</text><text x="95" y="68.75" font-family="Virgil, Segoe UI Emoji" font-size="11px" fill="#1971c2" text-anchor="middle" style="white-space: pre;" direction="ltr" dominant-baseline="text-before-edge">VIP eviction (zell)</text><text x="95" y="82.5" font-family="Virgil, Segoe UI Emoji" font-size="11px" fill="#1971c2" text-anchor="middle" style="white-space: pre;" direction="ltr" dominant-baseline="text-before-edge">Coalesced Range reads</text><text x="95" y="96.25" font-family="Virgil, Segoe UI Emoji" font-size="11px" fill="#1971c2" text-anchor="middle" style="white-space: pre;" direction="ltr" dominant-baseline="text-before-edge">refreshStaleTables()</text><text x="95" y="110" font-family="Virgil, Segoe UI Emoji" font-size="11px" fill="#1971c2" text-anchor="middle" style="white-space: pre;" direction="ltr" dominant-baseline="text-before-edge">Columnar binary streaming</text></g><g stroke-linecap="round" transform="translate(290 630.1268291108768) rotate(0 250 50)"><path d="M25 0 C202.22 0, 379.43 0, 475 0 C491.67 0, 500 8.33, 500 25 C500 37.21, 500 49.41, 500 75 C500 91.67, 491.67 100, 475 100 C320.26 100, 165.51 100, 25 100 C8.33 100, 0 91.67, 0 75 C0 63.85, 0 52.7, 0 25 C0 8.33, 8.33 0, 25 0" stroke="none" stroke-width="0" fill="#ffec99"/><path d="M25 0 C164.72 0, 304.43 0, 475 0 M25 0 C186.04 0, 347.09 0, 475 0 M475 0 C491.67 0, 500 8.33, 500 25 M475 0 C491.67 0, 500 8.33, 500 25 M500 25 C500 40.35, 500 55.71, 500 75 M500 25 C500 41.91, 500 58.81, 500 75 M500 75 C500 91.67, 491.67 100, 475 100 M500 75 C500 91.67, 491.67 100, 475 100 M475 100 C350.49 100, 225.98 100, 25 100 M475 100 C301.09 100, 127.18 100, 25 100 M25 100 C8.33 100, 0 91.67, 0 75 M25 100 C8.33 100, 0 91.67, 0 75 M0 75 C0 62.52, 0 50.05, 0 25 M0 75 C0 57.93, 0 40.86, 0 25 M0 25 C0 8.33, 8.33 0, 25 0 M0 25 C0 8.33, 8.33 0, 25 0" stroke="#f08c00" stroke-width="2" fill="none"/></g><g transform="translate(300 647.6268291108768) rotate(0 240 32.5)"><text x="240" y="0" font-family="Virgil, Segoe UI Emoji" font-size="13px" fill="#f08c00" text-anchor="middle" style="white-space: pre;" direction="ltr" dominant-baseline="text-before-edge">R2 Data Lake</text><text x="240" y="16.25" font-family="Virgil, Segoe UI Emoji" font-size="13px" fill="#f08c00" text-anchor="middle" style="white-space: pre;" direction="ltr" dominant-baseline="text-before-edge">Lance files + _versions/*.manifest</text><text x="240" y="32.5" font-family="Virgil, Segoe UI Emoji" font-size="13px" fill="#f08c00" text-anchor="middle" style="white-space: pre;" direction="ltr" dominant-baseline="text-before-edge">Coalesced Range reads (~10ms via R2 bindings)</text><text x="240" y="48.75" font-family="Virgil, Segoe UI Emoji" font-size="13px" fill="#f08c00" text-anchor="middle" style="white-space: pre;" direction="ltr" dominant-baseline="text-before-edge">Free egress, $0.36/M Class B ops</text></g><g stroke-linecap="round" transform="translate(270 770) rotate(0 395 85)"><path d="M32 0 C264.58 0, 497.16 0, 758 0 M758 0 C779.33 0, 790 10.67, 790 32 M790 32 C790 56.14, 790 80.27, 790 138 M790 138 C790 159.33, 779.33 170, 758 170 M758 170 C549.5 170, 341 170, 32 170 M32 170 C10.67 170, 0 159.33, 0 138 M0 138 C0 100.69, 0 63.38, 0 32 M0 32 C0 10.67, 10.67 0, 32 0" stroke="#9c36b5" stroke-width="1.5" fill="none" stroke-dasharray="8 9"/></g><g stroke-linecap="round" transform="translate(290 810) rotate(0 75 30)"><path d="M15 0 C42.7 0, 70.4 0, 135 0 C145 0, 150 5, 150 15 C150 25.92, 150 36.85, 150 45 C150 55, 145 60, 135 60 C91.54 60, 48.08 60, 15 60 C5 60, 0 55, 0 45 C0 38.27, 0 31.54, 0 15 C0 5, 5 0, 15 0" stroke="none" stroke-width="0" fill="#ffec99"/><path d="M15 0 C49.61 0, 84.23 0, 135 0 M15 0 C50.08 0, 85.17 0, 135 0 M135 0 C145 0, 150 5, 150 15 M135 0 C145 0, 150 5, 150 15 M150 15 C150 26.51, 150 38.02, 150 45 M150 15 C150 24.85, 150 34.7, 150 45 M150 45 C150 55, 145 60, 135 60 M150 45 C150 55, 145 60, 135 60 M135 60 C106.13 60, 77.26 60, 15 60 M135 60 C110.25 60, 85.49 60, 15 60 M15 60 C5 60, 0 55, 0 45 M15 60 C5 60, 0 55, 0 45 M0 45 C0 37.29, 0 29.57, 0 15 M0 45 C0 33.87, 0 22.75, 0 15 M0 15 C0 5, 5 0, 15 0 M0 15 C0 5, 5 0, 15 0" stroke="#f08c00" stroke-width="2" fill="none"/></g><g transform="translate(300 825) rotate(0 65 15)"><text x="65" y="0" font-family="Virgil, Segoe UI Emoji" font-size="12px" fill="#f08c00" text-anchor="middle" style="white-space: pre;" direction="ltr" dominant-baseline="text-before-edge">R2 Page Fetch</text><text x="65" y="15" font-family="Virgil, Segoe UI Emoji" font-size="12px" fill="#f08c00" text-anchor="middle" style="white-space: pre;" direction="ltr" dominant-baseline="text-before-edge">(coalesced Range)</text></g><g stroke-linecap="round" transform="translate(490 810) rotate(0 85 30)"><path d="M15 0 C44.68 0, 74.36 0, 155 0 C165 0, 170 5, 170 15 C170 22.58, 170 30.16, 170 45 C170 55, 165 60, 155 60 C117.12 60, 79.24 60, 15 60 C5 60, 0 55, 0 45 C0 37.59, 0 30.18, 0 15 C0 5, 5 0, 15 0" stroke="none" stroke-width="0" fill="#e599f7"/><path d="M15 0 C49.53 0, 84.06 0, 155 0 M15 0 C49.26 0, 83.52 0, 155 0 M155 0 C165 0, 170 5, 170 15 M155 0 C165 0, 170 5, 170 15 M170 15 C170 21.77, 170 28.54, 170 45 M170 15 C170 21.61, 170 28.22, 170 45 M170 45 C170 55, 165 60, 155 60 M170 45 C170 55, 165 60, 155 60 M155 60 C106.34 60, 57.69 60, 15 60 M155 60 C108.09 60, 61.17 60, 15 60 M15 60 C5 60, 0 55, 0 45 M15 60 C5 60, 0 55, 0 45 M0 45 C0 37.66, 0 30.33, 0 15 M0 45 C0 37.18, 0 29.37, 0 15 M0 15 C0 5, 5 0, 15 0 M0 15 C0 5, 5 0, 15 0" stroke="#9c36b5" stroke-width="2" fill="none"/></g><g transform="translate(500 826.25) rotate(0 75 13.75)"><text x="75" y="0" font-family="Virgil, Segoe UI Emoji" font-size="11px" fill="#9c36b5" text-anchor="middle" style="white-space: pre;" direction="ltr" dominant-baseline="text-before-edge">Operator Pipeline</text><text x="75" y="13.75" font-family="Virgil, Segoe UI Emoji" font-size="11px" fill="#9c36b5" text-anchor="middle" style="white-space: pre;" direction="ltr" dominant-baseline="text-before-edge">WASM (Zig SIMD)</text></g><g stroke-linecap="round" transform="translate(710 810) rotate(0 80 30)"><path d="M15 0 C43.11 0, 71.22 0, 145 0 C155 0, 160 5, 160 15 C160 22.58, 160 30.15, 160 45 C160 55, 155 60, 145 60 C95.49 60, 45.98 60, 15 60 C5 60, 0 55, 0 45 C0 33.47, 0 21.95, 0 15 C0 5, 5 0, 15 0" stroke="none" stroke-width="0" fill="#b2f2bb"/><path d="M15 0 C54.22 0, 93.44 0, 145 0 M15 0 C62.96 0, 110.92 0, 145 0 M145 0 C155 0, 160 5, 160 15 M145 0 C155 0, 160 5, 160 15 M160 15 C160 25.22, 160 35.44, 160 45 M160 15 C160 22.88, 160 30.76, 160 45 M160 45 C160 55, 155 60, 145 60 M160 45 C160 55, 155 60, 145 60 M145 60 C110.11 60, 75.22 60, 15 60 M145 60 C94.85 60, 44.71 60, 15 60 M15 60 C5 60, 0 55, 0 45 M15 60 C5 60, 0 55, 0 45 M0 45 C0 35.77, 0 26.54, 0 15 M0 45 C0 37.29, 0 29.58, 0 15 M0 15 C0 5, 5 0, 15 0 M0 15 C0 5, 5 0, 15 0" stroke="#2f9e44" stroke-width="2" fill="none"/></g><g transform="translate(720 819.375) rotate(0 70 20.625)"><text x="70" y="0" font-family="Virgil, Segoe UI Emoji" font-size="11px" fill="#2f9e44" text-anchor="middle" style="white-space: pre;" direction="ltr" dominant-baseline="text-before-edge">Accumulate</text><text x="70" y="13.75" font-family="Virgil, Segoe UI Emoji" font-size="11px" fill="#2f9e44" text-anchor="middle" style="white-space: pre;" direction="ltr" dominant-baseline="text-before-edge">Partial Results</text><text x="70" y="27.5" font-family="Virgil, Segoe UI Emoji" font-size="11px" fill="#2f9e44" text-anchor="middle" style="white-space: pre;" direction="ltr" dominant-baseline="text-before-edge">(partial-agg.ts)</text></g><g stroke-linecap="round" transform="translate(940 810) rotate(0 55 30)"><path d="M15 0 C37.99 0, 60.98 0, 95 0 C105 0, 110 5, 110 15 C110 23.39, 110 31.77, 110 45 C110 55, 105 60, 95 60 C69.19 60, 43.37 60, 15 60 C5 60, 0 55, 0 45 C0 33.88, 0 22.75, 0 15 C0 5, 5 0, 15 0" stroke="none" stroke-width="0" fill="#a5d8ff"/><path d="M15 0 C33.66 0, 52.31 0, 95 0 M15 0 C33.52 0, 52.05 0, 95 0 M95 0 C105 0, 110 5, 110 15 M95 0 C105 0, 110 5, 110 15 M110 15 C110 24.52, 110 34.04, 110 45 M110 15 C110 26.38, 110 37.75, 110 45 M110 45 C110 55, 105 60, 95 60 M110 45 C110 55, 105 60, 95 60 M95 60 C69.13 60, 43.26 60, 15 60 M95 60 C67.19 60, 39.37 60, 15 60 M15 60 C5 60, 0 55, 0 45 M15 60 C5 60, 0 55, 0 45 M0 45 C0 34.73, 0 24.47, 0 15 M0 45 C0 37.02, 0 29.04, 0 15 M0 15 C0 5, 5 0, 15 0 M0 15 C0 5, 5 0, 15 0" stroke="#1971c2" stroke-width="2" fill="none"/></g><g transform="translate(950 825) rotate(0 45 15)"><text x="45" y="0" font-family="Virgil, Segoe UI Emoji" font-size="12px" fill="#1971c2" text-anchor="middle" style="white-space: pre;" direction="ltr" dominant-baseline="text-before-edge">Return RPC result</text><text x="45" y="15" font-family="Virgil, Segoe UI Emoji" font-size="12px" fill="#1971c2" text-anchor="middle" style="white-space: pre;" direction="ltr" dominant-baseline="text-before-edge">(zero serialization)</text></g><g stroke-linecap="round" transform="translate(330 890) rotate(0 190 20)"><path d="M10 0 C142.21 0, 274.42 0, 370 0 C376.67 0, 380 3.33, 380 10 C380 17.68, 380 25.36, 380 30 C380 36.67, 376.67 40, 370 40 C233.54 40, 97.07 40, 10 40 C3.33 40, 0 36.67, 0 30 C0 24.79, 0 19.57, 0 10 C0 3.33, 3.33 0, 10 0" stroke="none" stroke-width="0" fill="#ffd8a8"/><path d="M10 0 C128.28 0, 246.56 0, 370 0 M370 0 C376.67 0, 380 3.33, 380 10 M380 10 C380 16.44, 380 22.87, 380 30 M380 30 C380 36.67, 376.67 40, 370 40 M370 40 C288.36 40, 206.71 40, 10 40 M10 40 C3.33 40, 0 36.67, 0 30 M0 30 C0 24.91, 0 19.83, 0 10 M0 10 C0 3.33, 3.33 0, 10 0" stroke="#e8590c" stroke-width="1.5" fill="none" stroke-dasharray="8 9"/></g><g transform="translate(340 896.25) rotate(0 180 13.75)"><text x="180" y="0" font-family="Virgil, Segoe UI Emoji" font-size="11px" fill="#e8590c" text-anchor="middle" style="white-space: pre;" direction="ltr" dominant-baseline="text-before-edge">Bounded Prefetch: fetch page N+1</text><text x="180" y="13.75" font-family="Virgil, Segoe UI Emoji" font-size="11px" fill="#e8590c" text-anchor="middle" style="white-space: pre;" direction="ltr" dominant-baseline="text-before-edge">while WASM processes page N</text></g><g stroke-linecap="round" transform="translate(270 970) rotate(0 395 104.46068137499412)"><path d="M32 0 C187.26 0, 342.52 0, 758 0 M758 0 C779.33 0, 790 10.67, 790 32 M790 32 C790 82.21, 790 132.42, 790 176.92 M790 176.92 C790 198.25, 779.33 208.92, 758 208.92 M758 208.92 C492.59 208.92, 227.17 208.92, 32 208.92 M32 208.92 C10.67 208.92, 0 198.25, 0 176.92 M0 176.92 C0 147.1, 0 117.28, 0 32 M0 32 C0 10.67, 10.67 0, 32 0" stroke="#e03131" stroke-width="1.5" fill="none" stroke-dasharray="8 9"/></g><g stroke-linecap="round" transform="translate(281.24755880556006 993.9676112375273) rotate(0 75 30)"><path d="M15 0 C45.36 0, 75.72 0, 135 0 C145 0, 150 5, 150 15 C150 21.6, 150 28.21, 150 45 C150 55, 145 60, 135 60 C89.88 60, 44.77 60, 15 60 C5 60, 0 55, 0 45 C0 33.4, 0 21.79, 0 15 C0 5, 5 0, 15 0" stroke="none" stroke-width="0" fill="#a5d8ff"/><path d="M15 0 C42.86 0, 70.73 0, 135 0 M15 0 C39.8 0, 64.6 0, 135 0 M135 0 C145 0, 150 5, 150 15 M135 0 C145 0, 150 5, 150 15 M150 15 C150 26.41, 150 37.82, 150 45 M150 15 C150 22.42, 150 29.83, 150 45 M150 45 C150 55, 145 60, 135 60 M150 45 C150 55, 145 60, 135 60 M135 60 C87.76 60, 40.52 60, 15 60 M135 60 C88.43 60, 41.85 60, 15 60 M15 60 C5 60, 0 55, 0 45 M15 60 C5 60, 0 55, 0 45 M0 45 C0 37.6, 0 30.2, 0 15 M0 45 C0 33.94, 0 22.88, 0 15 M0 15 C0 5, 5 0, 15 0 M0 15 C0 5, 5 0, 15 0" stroke="#1971c2" stroke-width="2" fill="none"/></g><g transform="translate(291.24755880556006 1008.9676112375273) rotate(0 65 15)"><text x="65" y="0" font-family="Virgil, Segoe UI Emoji" font-size="12px" fill="#1971c2" text-anchor="middle" style="white-space: pre;" direction="ltr" dominant-baseline="text-before-edge">Query DO</text><text x="65" y="15" font-family="Virgil, Segoe UI Emoji" font-size="12px" fill="#1971c2" text-anchor="middle" style="white-space: pre;" direction="ltr" dominant-baseline="text-before-edge">(Coordinator)</text></g><g stroke-linecap="round" transform="translate(821.4639921851718 998.8865030209795) rotate(0 114.99999999999994 25)"><path d="M12.5 0 C57.4 0, 102.31 0, 217.5 0 C225.83 0, 230 4.17, 230 12.5 C230 21.91, 230 31.32, 230 37.5 C230 45.83, 225.83 50, 217.5 50 C142.42 50, 67.33 50, 12.5 50 C4.17 50, 0 45.83, 0 37.5 C0 28, 0 18.5, 0 12.5 C0 4.17, 4.17 0, 12.5 0" stroke="none" stroke-width="0" fill="#b2f2bb"/><path d="M12.5 0 C82.26 0, 152.02 0, 217.5 0 M12.5 0 C87.95 0, 163.39 0, 217.5 0 M217.5 0 C225.83 0, 230 4.17, 230 12.5 M217.5 0 C225.83 0, 230 4.17, 230 12.5 M230 12.5 C230 22.07, 230 31.63, 230 37.5 M230 12.5 C230 18.78, 230 25.07, 230 37.5 M230 37.5 C230 45.83, 225.83 50, 217.5 50 M230 37.5 C230 45.83, 225.83 50, 217.5 50 M217.5 50 C163.9 50, 110.3 50, 12.5 50 M217.5 50 C168.23 50, 118.96 50, 12.5 50 M12.5 50 C4.17 50, 0 45.83, 0 37.5 M12.5 50 C4.17 50, 0 45.83, 0 37.5 M0 37.5 C0 30.46, 0 23.41, 0 12.5 M0 37.5 C0 30.49, 0 23.47, 0 12.5 M0 12.5 C0 4.17, 4.17 0, 12.5 0 M0 12.5 C0 4.17, 4.17 0, 12.5 0" stroke="#2f9e44" stroke-width="2" fill="none"/></g><g transform="translate(831.4639921851718 1011.3865030209795) rotate(0 104.99999999999994 12.5)"><text x="105" y="0" font-family="Virgil, Segoe UI Emoji" font-size="10px" fill="#2f9e44" text-anchor="middle" style="white-space: pre;" direction="ltr" dominant-baseline="text-before-edge">mergeQueryResults()</text><text x="105" y="12.5" font-family="Virgil, Segoe UI Emoji" font-size="10px" fill="#2f9e44" text-anchor="middle" style="white-space: pre;" direction="ltr" dominant-baseline="text-before-edge">k-way merge | partial-agg merge</text></g><g stroke-linecap="round" transform="translate(527.1484712746202 995.8771083175395) rotate(0 75 27.5)"><path d="M13.75 0 C50.72 0, 87.7 0, 136.25 0 C145.42 0, 150 4.58, 150 13.75 C150 21.9, 150 30.05, 150 41.25 C150 50.42, 145.42 55, 136.25 55 C111.36 55, 86.48 55, 13.75 55 C4.58 55, 0 50.42, 0 41.25 C0 33.85, 0 26.44, 0 13.75 C0 4.58, 4.58 0, 13.75 0" stroke="none" stroke-width="0" fill="#ffc9c9"/><path d="M13.75 0 C61.88 0, 110.01 0, 136.25 0 M13.75 0 C44.58 0, 75.41 0, 136.25 0 M136.25 0 C145.42 0, 150 4.58, 150 13.75 M136.25 0 C145.42 0, 150 4.58, 150 13.75 M150 13.75 C150 22.45, 150 31.15, 150 41.25 M150 13.75 C150 23.26, 150 32.78, 150 41.25 M150 41.25 C150 50.42, 145.42 55, 136.25 55 M150 41.25 C150 50.42, 145.42 55, 136.25 55 M136.25 55 C88.48 55, 40.71 55, 13.75 55 M136.25 55 C88.68 55, 41.11 55, 13.75 55 M13.75 55 C4.58 55, 0 50.42, 0 41.25 M13.75 55 C4.58 55, 0 50.42, 0 41.25 M0 41.25 C0 31.89, 0 22.53, 0 13.75 M0 41.25 C0 31.86, 0 22.48, 0 13.75 M0 13.75 C0 4.58, 4.58 0, 13.75 0 M0 13.75 C0 4.58, 4.58 0, 13.75 0" stroke="#e03131" stroke-width="2" fill="none"/></g><g transform="translate(537.1484712746202 1004.6271083175395) rotate(0 65 18.75)"><text x="65" y="0" font-family="Virgil, Segoe UI Emoji" font-size="10px" fill="#e03131" text-anchor="middle" style="white-space: pre;" direction="ltr" dominant-baseline="text-before-edge">Fragment DO</text><text x="65" y="12.5" font-family="Virgil, Segoe UI Emoji" font-size="10px" fill="#e03131" text-anchor="middle" style="white-space: pre;" direction="ltr" dominant-baseline="text-before-edge">slot-0: frags 0..99</text><text x="65" y="25" font-family="Virgil, Segoe UI Emoji" font-size="10px" fill="#e03131" text-anchor="middle" style="white-space: pre;" direction="ltr" dominant-baseline="text-before-edge">+ footer cache</text></g><g stroke-linecap="round" transform="translate(527.4024873760031 1057.6283746333245) rotate(0 75 27.5)"><path d="M13.75 0 C41.76 0, 69.76 0, 136.25 0 C145.42 0, 150 4.58, 150 13.75 C150 24.68, 150 35.6, 150 41.25 C150 50.42, 145.42 55, 136.25 55 C109.28 55, 82.3 55, 13.75 55 C4.58 55, 0 50.42, 0 41.25 C0 31.3, 0 21.34, 0 13.75 C0 4.58, 4.58 0, 13.75 0" stroke="none" stroke-width="0" fill="#ffc9c9"/><path d="M13.75 0 C60.85 0, 107.95 0, 136.25 0 M13.75 0 C38.35 0, 62.94 0, 136.25 0 M136.25 0 C145.42 0, 150 4.58, 150 13.75 M136.25 0 C145.42 0, 150 4.58, 150 13.75 M150 13.75 C150 19.82, 150 25.9, 150 41.25 M150 13.75 C150 23.84, 150 33.93, 150 41.25 M150 41.25 C150 50.42, 145.42 55, 136.25 55 M150 41.25 C150 50.42, 145.42 55, 136.25 55 M136.25 55 C91.75 55, 47.26 55, 13.75 55 M136.25 55 C97.65 55, 59.06 55, 13.75 55 M13.75 55 C4.58 55, 0 50.42, 0 41.25 M13.75 55 C4.58 55, 0 50.42, 0 41.25 M0 41.25 C0 33.34, 0 25.43, 0 13.75 M0 41.25 C0 31.19, 0 21.12, 0 13.75 M0 13.75 C0 4.58, 4.58 0, 13.75 0 M0 13.75 C0 4.58, 4.58 0, 13.75 0" stroke="#e03131" stroke-width="2" fill="none"/></g><g transform="translate(537.4024873760031 1066.3783746333245) rotate(0 65 18.75)"><text x="65" y="0" font-family="Virgil, Segoe UI Emoji" font-size="10px" fill="#e03131" text-anchor="middle" style="white-space: pre;" direction="ltr" dominant-baseline="text-before-edge">Fragment DO</text><text x="65" y="12.5" font-family="Virgil, Segoe UI Emoji" font-size="10px" fill="#e03131" text-anchor="middle" style="white-space: pre;" direction="ltr" dominant-baseline="text-before-edge">slot-1: frags 100..199</text><text x="65" y="25" font-family="Virgil, Segoe UI Emoji" font-size="10px" fill="#e03131" text-anchor="middle" style="white-space: pre;" direction="ltr" dominant-baseline="text-before-edge">+ footer cache</text></g><g stroke-linecap="round" transform="translate(525.797805964109 1117.4956562713442) rotate(0 75 27.5)"><path d="M13.75 0 C50.94 0, 88.12 0, 136.25 0 C145.42 0, 150 4.58, 150 13.75 C150 23.43, 150 33.1, 150 41.25 C150 50.42, 145.42 55, 136.25 55 C87.55 55, 38.84 55, 13.75 55 C4.58 55, 0 50.42, 0 41.25 C0 34.11, 0 26.97, 0 13.75 C0 4.58, 4.58 0, 13.75 0" stroke="none" stroke-width="0" fill="#ffc9c9"/><path d="M13.75 0 C48.96 0, 84.17 0, 136.25 0 M13.75 0 C38.67 0, 63.59 0, 136.25 0 M136.25 0 C145.42 0, 150 4.58, 150 13.75 M136.25 0 C145.42 0, 150 4.58, 150 13.75 M150 13.75 C150 19.96, 150 26.18, 150 41.25 M150 13.75 C150 22.94, 150 32.13, 150 41.25 M150 41.25 C150 50.42, 145.42 55, 136.25 55 M150 41.25 C150 50.42, 145.42 55, 136.25 55 M136.25 55 C109.99 55, 83.73 55, 13.75 55 M136.25 55 C109.32 55, 82.39 55, 13.75 55 M13.75 55 C4.58 55, 0 50.42, 0 41.25 M13.75 55 C4.58 55, 0 50.42, 0 41.25 M0 41.25 C0 33.71, 0 26.16, 0 13.75 M0 41.25 C0 32.21, 0 23.17, 0 13.75 M0 13.75 C0 4.58, 4.58 0, 13.75 0 M0 13.75 C0 4.58, 4.58 0, 13.75 0" stroke="#e03131" stroke-width="2" fill="none"/></g><g transform="translate(535.797805964109 1126.2456562713442) rotate(0 65 18.75)"><text x="65" y="0" font-family="Virgil, Segoe UI Emoji" font-size="10px" fill="#e03131" text-anchor="middle" style="white-space: pre;" direction="ltr" dominant-baseline="text-before-edge">Fragment DO</text><text x="65" y="12.5" font-family="Virgil, Segoe UI Emoji" font-size="10px" fill="#e03131" text-anchor="middle" style="white-space: pre;" direction="ltr" dominant-baseline="text-before-edge">slot-2: frags 200..299</text><text x="65" y="25" font-family="Virgil, Segoe UI Emoji" font-size="10px" fill="#e03131" text-anchor="middle" style="white-space: pre;" direction="ltr" dominant-baseline="text-before-edge">+ footer cache</text></g><g transform="translate(330 10) rotate(0 210 20)"><text x="0" y="0" font-family="Virgil, Segoe UI Emoji" font-size="28px" fill="#1e1e1e" text-anchor="start" style="white-space: pre;" direction="ltr" dominant-baseline="text-before-edge">QueryMode — Serverless Columnar Query Engine</text></g><g transform="translate(360 48) rotate(0 180 10)"><text x="0" y="0" font-family="Virgil, Segoe UI Emoji" font-size="14px" fill="#868e96" text-anchor="start" style="white-space: pre;" direction="ltr" dominant-baseline="text-before-edge">Cloudflare Durable Objects + R2 Data Lake</text></g><g transform="translate(180.86938827907136 258.62327992895564) rotate(0 50 9)"><text x="0" y="0" font-family="Virgil, Segoe UI Emoji" font-size="11px" fill="#c92a2a" text-anchor="start" style="white-space: pre;" direction="ltr" dominant-baseline="text-before-edge">/write, /refresh</text></g><g transform="translate(258.9958618816381 347.6982727285686) rotate(0 151.1038818359375 9)"><text x="0" y="0" font-family="Virgil, Segoe UI Emoji" font-size="12px" fill="#868e96" text-anchor="start" style="white-space: pre;" direction="ltr" dominant-baseline="text-before-edge">Regional Query DOs             (1 per datacenter)</text></g><g transform="translate(220.18393542143792 307.9867838374623) rotate(0 30 7)"><text x="0" y="0" font-family="Virgil, Segoe UI Emoji" font-size="10px" fill="#e03131" text-anchor="start" style="white-space: pre;" direction="ltr" dominant-baseline="text-before-edge">broadcast</text></g><g transform="translate(133.30493052894323 547.3141100025971) rotate(0 70.00000000000001 14)"><text x="0" y="0" font-family="Virgil, Segoe UI Emoji" font-size="10px" fill="#2f9e44" text-anchor="start" style="white-space: pre;" direction="ltr" dominant-baseline="text-before-edge">register on wake</text><text x="0" y="12.5" font-family="Virgil, Segoe UI Emoji" font-size="10px" fill="#2f9e44" text-anchor="start" style="white-space: pre;" direction="ltr" dominant-baseline="text-before-edge">+ refreshStaleTables()</text></g><g transform="translate(138.32580642231102 593.933808422838) rotate(0 50 7)"><text x="0" y="0" font-family="Virgil, Segoe UI Emoji" font-size="10px" fill="#c92a2a" text-anchor="start" style="white-space: pre;" direction="ltr" dominant-baseline="text-before-edge">read footer (40B)</text></g><g transform="translate(430.3456477188521 596.646205607999) rotate(0 100 14)"><text x="0" y="0" font-family="Virgil, Segoe UI Emoji" font-size="10px" fill="#f08c00" text-anchor="start" style="white-space: pre;" direction="ltr" dominant-baseline="text-before-edge">Coalesced Range reads</text><text x="0" y="12.5" font-family="Virgil, Segoe UI Emoji" font-size="10px" fill="#f08c00" text-anchor="start" style="white-space: pre;" direction="ltr" dominant-baseline="text-before-edge">(merge within 64KB gap)</text></g><g transform="translate(280 775) rotate(0 175 9)"><text x="0" y="0" font-family="Virgil, Segoe UI Emoji" font-size="12px" fill="#9c36b5" text-anchor="start" style="white-space: pre;" direction="ltr" dominant-baseline="text-before-edge">Page-Streaming Pipeline (inside Query DO + Fragment DO)</text></g><g transform="translate(280 975) rotate(0 210 9)"><text x="0" y="0" font-family="Virgil, Segoe UI Emoji" font-size="12px" fill="#e03131" text-anchor="start" style="white-space: pre;" direction="ltr" dominant-baseline="text-before-edge">TB+ Scale: Fragment DO Pool (frag-{region}-slot-{N}, max 20)</text></g><g transform="translate(49.01330380340141 621.3266385564806) rotate(0 25 9)"><text x="0" y="0" font-family="Virgil, Segoe UI Emoji" font-size="13px" fill="#1e1e1e" text-anchor="start" style="white-space: pre;" direction="ltr" dominant-baseline="text-before-edge">Legend</text></g><g transform="translate(49.01330380340141 646.2410624672648) rotate(0 100 7)"><text x="0" y="0" font-family="Virgil, Segoe UI Emoji" font-size="10px" fill="#1971c2" text-anchor="start" style="white-space: pre;" direction="ltr" dominant-baseline="text-before-edge">--- Solid arrow: data flow</text></g><g transform="translate(49.01330380340141 666.2410624672648) rotate(0 100 7)"><text x="0" y="0" font-family="Virgil, Segoe UI Emoji" font-size="10px" fill="#e03131" text-anchor="start" style="white-space: pre;" direction="ltr" dominant-baseline="text-before-edge">- - Dashed: broadcast invalidation</text></g><g transform="translate(49.01330380340141 686.1700969298663) rotate(0 100 7)"><text x="0" y="0" font-family="Virgil, Segoe UI Emoji" font-size="10px" fill="#2f9e44" text-anchor="start" style="white-space: pre;" direction="ltr" dominant-baseline="text-before-edge">... Dotted: register + refreshStale</text></g><g transform="translate(48.86244754030855 711.0845208406505) rotate(0 130 42)"><text x="0" y="0" font-family="Virgil, Segoe UI Emoji" font-size="10px" fill="#868e96" text-anchor="start" style="white-space: pre;" direction="ltr" dominant-baseline="text-before-edge">Purple = Worker Router</text><text x="0" y="12.5" font-family="Virgil, Segoe UI Emoji" font-size="10px" fill="#868e96" text-anchor="start" style="white-space: pre;" direction="ltr" dominant-baseline="text-before-edge">Blue = Query DOs + SDK</text><text x="0" y="25" font-family="Virgil, Segoe UI Emoji" font-size="10px" fill="#868e96" text-anchor="start" style="white-space: pre;" direction="ltr" dominant-baseline="text-before-edge">Red/Coral = Master DO / Fragment DOs</text><text x="0" y="37.5" font-family="Virgil, Segoe UI Emoji" font-size="10px" fill="#868e96" text-anchor="start" style="white-space: pre;" direction="ltr" dominant-baseline="text-before-edge">Yellow = R2 Data Lake</text><text x="0" y="50" font-family="Virgil, Segoe UI Emoji" font-size="10px" fill="#868e96" text-anchor="start" style="white-space: pre;" direction="ltr" dominant-baseline="text-before-edge">Green = Results / Merge</text><text x="0" y="62.5" font-family="Virgil, Segoe UI Emoji" font-size="10px" fill="#868e96" text-anchor="start" style="white-space: pre;" direction="ltr" dominant-baseline="text-before-edge">Magenta = WASM / Operator Pipeline</text></g><g transform="translate(423.24972458504254 1031.9898521721545) rotate(0 30 7)"><text x="0" y="0" font-family="Virgil, Segoe UI Emoji" font-size="10px" fill="#e03131" text-anchor="start" style="white-space: pre;" direction="ltr" dominant-baseline="text-before-edge">fan-out</text></g><g stroke-linecap="round"><g transform="translate(540 310) rotate(0 62.5 32.5)"><path d="M0 0 C0 11.84, 0 23.68, 0 33 M0 0 C0 10.05, 0 20.11, 0 33 M0 33 C28.42 33, 56.85 33, 125 33 M0 33 C45.87 33, 91.74 33, 125 33 M125 33 C125 43.93, 125 54.87, 125 65 M125 33 C125 41.57, 125 50.14, 125 65" stroke="#1971c2" stroke-width="2" fill="none"/></g><g transform="translate(540 310) rotate(0 62.5 32.5)"><path d="M119.53 49.96 C121.49 55.36, 123.45 60.75, 125 65 M119.53 49.96 C121.19 54.55, 122.86 59.13, 125 65" stroke="#1971c2" stroke-width="2" fill="none"/></g><g transform="translate(540 310) rotate(0 62.5 32.5)"><path d="M130.47 49.96 C128.51 55.36, 126.55 60.75, 125 65 M130.47 49.96 C128.81 54.55, 127.14 59.13, 125 65" stroke="#1971c2" stroke-width="2" fill="none"/></g></g><mask/><g stroke-linecap="round"><g transform="translate(468 310) rotate(0 233.5 32.5)"><path d="M0 0 C0 10, 0 19.99, 0 33 M0 0 C0 8.71, 0 17.41, 0 33 M0 33 C149.84 33, 299.67 33, 467 33 M0 33 C120.06 33, 240.13 33, 467 33 M467 33 C467 40.06, 467 47.11, 467 65 M467 33 C467 42.19, 467 51.39, 467 65" stroke="#1971c2" stroke-width="2" fill="none"/></g><g transform="translate(468 310) rotate(0 233.5 32.5)"><path d="M461.53 49.96 C463.19 54.52, 464.84 59.07, 467 65 M461.53 49.96 C462.97 53.93, 464.42 57.9, 467 65" stroke="#1971c2" stroke-width="2" fill="none"/></g><g transform="translate(468 310) rotate(0 233.5 32.5)"><path d="M472.47 49.96 C470.81 54.52, 469.16 59.07, 467 65 M472.47 49.96 C471.03 53.93, 469.58 57.9, 467 65" stroke="#1971c2" stroke-width="2" fill="none"/></g></g><mask/><g stroke-linecap="round"><g transform="translate(110 475) rotate(0 142.5 -49.93696215389269)"><path d="M0 0 C0 -19.49, 0 -38.97, 0 -50 M0 -50 C84.46 -50, 168.92 -50, 285 -50 M285 -50 C285 -69.9, 285 -89.8, 285 -99.87" stroke="#e03131" stroke-width="2.5" fill="none" stroke-dasharray="8 10"/></g><g transform="translate(110 475) rotate(0 142.5 -49.93696215389269)"><path d="M293.53 -76.44 C290.21 -85.57, 286.88 -94.7, 285 -99.87" stroke="#e03131" stroke-width="2.5" fill="none"/></g><g transform="translate(110 475) rotate(0 142.5 -49.93696215389269)"><path d="M276.47 -76.44 C279.79 -85.57, 283.12 -94.7, 285 -99.87" stroke="#e03131" stroke-width="2.5" fill="none"/></g></g><mask/><g stroke-linecap="round"><g transform="translate(74 475) rotate(0 295.5 -50)"><path d="M0 0 C0 -14.59, 0 -29.17, 0 -50 M0 -50 C159.49 -50, 318.98 -50, 591 -50 M591 -50 C591 -66.47, 591 -82.95, 591 -100" stroke="#e03131" stroke-width="2.5" fill="none" stroke-dasharray="8 10"/></g><g transform="translate(74 475) rotate(0 295.5 -50)"><path d="M599.55 -76.51 C597.06 -83.36, 594.56 -90.21, 591 -100" stroke="#e03131" stroke-width="2.5" fill="none"/></g><g transform="translate(74 475) rotate(0 295.5 -50)"><path d="M582.45 -76.51 C584.94 -83.36, 587.44 -90.21, 591 -100" stroke="#e03131" stroke-width="2.5" fill="none"/></g></g><mask/><g stroke-linecap="round"><g transform="translate(146 475) rotate(0 394.5 -50)"><path d="M0 0 C0 -14.54, 0 -29.08, 0 -50 M0 -50 C185.31 -50, 370.63 -50, 789 -50 M789 -50 C789 -68.62, 789 -87.23, 789 -100" stroke="#e03131" stroke-width="2.5" fill="none" stroke-dasharray="8 10"/></g><g transform="translate(146 475) rotate(0 394.5 -50)"><path d="M797.55 -76.51 C795.06 -83.34, 792.58 -90.17, 789 -100" stroke="#e03131" stroke-width="2.5" fill="none"/></g><g transform="translate(146 475) rotate(0 394.5 -50)"><path d="M780.45 -76.51 C782.94 -83.34, 785.42 -90.17, 789 -100" stroke="#e03131" stroke-width="2.5" fill="none"/></g></g><mask/><g stroke-linecap="round"><g transform="translate(935 535) rotate(0 -412.5 -90)"><path d="M0 0 C0 -27.57, 0 -55.15, 0 -90 M0 -90 C-176 -90, -351.99 -90, -825 -90 M-825 -90 C-825 -123.03, -825 -156.06, -825 -180" stroke="#2f9e44" stroke-width="1.5" fill="none" stroke-dasharray="1.5 7"/></g><g transform="translate(935 535) rotate(0 -412.5 -90)"><path d="M-814.74 -151.81 C-817.88 -160.45, -821.03 -169.08, -825 -180" stroke="#2f9e44" stroke-width="1.5" fill="none" stroke-dasharray="1.5 5"/></g><g transform="translate(935 535) rotate(0 -412.5 -90)"><path d="M-835.26 -151.81 C-832.12 -160.45, -828.97 -169.08, -825 -180" stroke="#2f9e44" stroke-width="1.5" fill="none" stroke-dasharray="1.5 5"/></g></g><mask/><g stroke-linecap="round"><g transform="translate(665 535) rotate(0 -277.5 -90)"><path d="M0 0 C0 -34.3, 0 -68.6, 0 -90 M0 -90 C-170.46 -90, -340.93 -90, -555 -90 M-555 -90 C-555 -109.74, -555 -129.48, -555 -180" stroke="#2f9e44" stroke-width="1.5" fill="none" stroke-dasharray="1.5 7"/></g><g transform="translate(665 535) rotate(0 -277.5 -90)"><path d="M-544.74 -151.81 C-548.65 -162.55, -552.56 -173.3, -555 -180" stroke="#2f9e44" stroke-width="1.5" fill="none" stroke-dasharray="1.5 5"/></g><g transform="translate(665 535) rotate(0 -277.5 -90)"><path d="M-565.26 -151.81 C-561.35 -162.55, -557.44 -173.3, -555 -180" stroke="#2f9e44" stroke-width="1.5" fill="none" stroke-dasharray="1.5 5"/></g></g><mask/><g stroke-linecap="round"><g transform="translate(395 535.1260756922146) rotate(0 -142.5 -90.0630378461073)"><path d="M0 0 C0 -29.53, 0 -59.07, 0 -90.13 M0 -90.13 C-57.95 -90.13, -115.9 -90.13, -285 -90.13 M-285 -90.13 C-285 -109.44, -285 -128.75, -285 -180.13" stroke="#2f9e44" stroke-width="1.5" fill="none" stroke-dasharray="1.5 7"/></g><g transform="translate(395 535.1260756922146) rotate(0 -142.5 -90.0630378461073)"><path d="M-274.74 -151.94 C-278.1 -161.17, -281.46 -170.41, -285 -180.13" stroke="#2f9e44" stroke-width="1.5" fill="none" stroke-dasharray="1.5 5"/></g><g transform="translate(395 535.1260756922146) rotate(0 -142.5 -90.0630378461073)"><path d="M-295.26 -151.94 C-291.9 -161.17, -288.54 -170.41, -285 -180.13" stroke="#2f9e44" stroke-width="1.5" fill="none" stroke-dasharray="1.5 5"/></g></g><mask/><g stroke-linecap="round"><g transform="translate(356.24755880556006 1053.9676112375273) rotate(0 123.07746428522154 1.8303816978985878)"><path d="M0 0 C0 0.43, 0 0.85, 0 2.03 M0 0 C0 0.43, 0 0.85, 0 2.03 M0 2.03 C90.77 2.03, 181.53 2.03, 246.15 2.03 M0 2.03 C97.15 2.03, 194.3 2.03, 246.15 2.03 M246.15 2.03 C246.15 2.57, 246.15 3.11, 246.15 3.66 M246.15 2.03 C246.15 2.55, 246.15 3.08, 246.15 3.66" stroke="#e03131" stroke-width="2" fill="none"/></g><g transform="translate(356.24755880556006 1053.9676112375273) rotate(0 123.07746428522154 1.8303816978985878)"><path d="M245.88 2.9 C245.93 3.06, 245.99 3.22, 246.15 3.66 M245.88 2.9 C245.93 3.06, 245.99 3.22, 246.15 3.66" stroke="#e03131" stroke-width="2" fill="none"/></g><g transform="translate(356.24755880556006 1053.9676112375273) rotate(0 123.07746428522154 1.8303816978985878)"><path d="M246.43 2.9 C246.37 3.06, 246.32 3.22, 246.15 3.66 M246.43 2.9 C246.38 3.06, 246.32 3.22, 246.15 3.66" stroke="#e03131" stroke-width="2" fill="none"/></g></g><mask/><g stroke-linecap="round"><g transform="translate(329.24755880556006 1053.9676112375273) rotate(0 135.77512357927446 31.764022516908426)"><path d="M0 0 C0 7.36, 0 14.73, 0 32.03 M0 0 C0 10.3, 0 20.59, 0 32.03 M0 32.03 C88.66 32.03, 177.32 32.03, 271.55 32.03 M0 32.03 C91.64 32.03, 183.28 32.03, 271.55 32.03 M271.55 32.03 C271.55 42.92, 271.55 53.81, 271.55 63.53 M271.55 32.03 C271.55 43.49, 271.55 54.95, 271.55 63.53" stroke="#e03131" stroke-width="2" fill="none"/></g><g transform="translate(329.24755880556006 1053.9676112375273) rotate(0 135.77512357927446 31.764022516908426)"><path d="M266.16 48.73 C267.4 52.13, 268.64 55.53, 271.55 63.53 M266.16 48.73 C267.9 53.49, 269.63 58.24, 271.55 63.53" stroke="#e03131" stroke-width="2" fill="none"/></g><g transform="translate(329.24755880556006 1053.9676112375273) rotate(0 135.77512357927446 31.764022516908426)"><path d="M276.94 48.73 C275.7 52.13, 274.46 55.53, 271.55 63.53 M276.94 48.73 C275.21 53.49, 273.47 58.24, 271.55 63.53" stroke="#e03131" stroke-width="2" fill="none"/></g></g><mask/><g stroke-linecap="round"><g transform="translate(602.4024873760031 1112.6283746333245) rotate(0 167.03075240458435 -56.8709358061725)"><path d="M0 0 C0 -12.59, 0 -25.17, 0 -56.63 M0 0 C0 -21.9, 0 -43.79, 0 -56.63 M0 -56.63 C114.81 -56.63, 229.62 -56.63, 334.06 -56.63 M0 -56.63 C100.37 -56.63, 200.74 -56.63, 334.06 -56.63 M334.06 -56.63 C334.06 -72.7, 334.06 -88.77, 334.06 -113.74 M334.06 -56.63 C334.06 -72.93, 334.06 -89.23, 334.06 -113.74" stroke="#2f9e44" stroke-width="2" fill="none"/></g><g transform="translate(602.4024873760031 1112.6283746333245) rotate(0 167.03075240458435 -56.8709358061725)"><path d="M343.83 -86.91 C341.66 -92.87, 339.49 -98.83, 334.06 -113.74 M343.83 -86.91 C340.05 -97.28, 336.28 -107.66, 334.06 -113.74" stroke="#2f9e44" stroke-width="2" fill="none"/></g><g transform="translate(602.4024873760031 1112.6283746333245) rotate(0 167.03075240458435 -56.8709358061725)"><path d="M324.29 -86.91 C326.47 -92.87, 328.64 -98.83, 334.06 -113.74 M324.29 -86.91 C328.07 -97.28, 331.85 -107.66, 334.06 -113.74" stroke="#2f9e44" stroke-width="2" fill="none"/></g></g><mask/><g stroke-linecap="round"><g transform="translate(602.1484712746202 1050.8771083175395) rotate(0 167.15776045527582 -25.995302648280017)"><path d="M0 0 C0 -10, 0 -20, 0 -25.88 M0 0 C0 -5.61, 0 -11.22, 0 -25.88 M0 -25.88 C105.6 -25.88, 211.19 -25.88, 334.32 -25.88 M0 -25.88 C94.07 -25.88, 188.13 -25.88, 334.32 -25.88 M334.32 -25.88 C334.32 -31.69, 334.32 -37.5, 334.32 -51.99 M334.32 -25.88 C334.32 -33.57, 334.32 -41.25, 334.32 -51.99" stroke="#2f9e44" stroke-width="2" fill="none"/></g><g transform="translate(602.1484712746202 1050.8771083175395) rotate(0 167.15776045527582 -25.995302648280017)"><path d="M338.78 -39.72 C337.06 -44.46, 335.33 -49.2, 334.32 -51.99 M338.78 -39.72 C337.81 -42.38, 336.84 -45.04, 334.32 -51.99" stroke="#2f9e44" stroke-width="2" fill="none"/></g><g transform="translate(602.1484712746202 1050.8771083175395) rotate(0 167.15776045527582 -25.995302648280017)"><path d="M329.85 -39.72 C331.58 -44.46, 333.3 -49.2, 334.32 -51.99 M329.85 -39.72 C330.82 -42.38, 331.79 -45.04, 334.32 -51.99" stroke="#2f9e44" stroke-width="2" fill="none"/></g></g><mask/><g stroke-linecap="round"><g transform="translate(600.797805964109 1172.4956562713442) rotate(0 167.83309311053142 -86.80457662518234)"><path d="M0 0 C0 -24.96, 0 -49.93, 0 -86.5 M0 0 C0 -19.36, 0 -38.72, 0 -86.5 M0 -86.5 C75.17 -86.5, 150.33 -86.5, 335.67 -86.5 M0 -86.5 C96.36 -86.5, 192.72 -86.5, 335.67 -86.5 M335.67 -86.5 C335.67 -119.47, 335.67 -152.44, 335.67 -173.61 M335.67 -86.5 C335.67 -108.76, 335.67 -131.02, 335.67 -173.61" stroke="#2f9e44" stroke-width="2" fill="none"/></g><g transform="translate(600.797805964109 1172.4956562713442) rotate(0 167.83309311053142 -86.80457662518234)"><path d="M345.93 -145.42 C342.97 -153.55, 340 -161.69, 335.67 -173.61 M345.93 -145.42 C343.63 -151.73, 341.33 -158.04, 335.67 -173.61" stroke="#2f9e44" stroke-width="2" fill="none"/></g><g transform="translate(600.797805964109 1172.4956562713442) rotate(0 167.83309311053142 -86.80457662518234)"><path d="M325.41 -145.42 C328.37 -153.55, 331.33 -161.69, 335.67 -173.61 M325.41 -145.42 C327.7 -151.73, 330 -158.04, 335.67 -173.61" stroke="#2f9e44" stroke-width="2" fill="none"/></g></g><mask/><g stroke-linecap="round"><g transform="translate(383.24755880556006 1053.9676112375273) rotate(0 109.45045623453007 -29.045251459993892)"><path d="M0 0 C0 -7.65, 0 -15.3, 0 -28.97 M0 0 C0 -7.9, 0 -15.8, 0 -28.97 M0 -28.97 C83.11 -28.97, 166.21 -28.97, 218.9 -28.97 M0 -28.97 C75.52 -28.97, 151.04 -28.97, 218.9 -28.97 M218.9 -28.97 C218.9 -35.45, 218.9 -41.93, 218.9 -58.09 M218.9 -28.97 C218.9 -38.1, 218.9 -47.24, 218.9 -58.09" stroke="#e03131" stroke-width="2" fill="none"/></g><g transform="translate(383.24755880556006 1053.9676112375273) rotate(0 109.45045623453007 -29.045251459993892)"><path d="M223.88 -44.41 C222.57 -48.02, 221.25 -51.63, 218.9 -58.09 M223.88 -44.41 C222.52 -48.14, 221.16 -51.87, 218.9 -58.09" stroke="#e03131" stroke-width="2" fill="none"/></g><g transform="translate(383.24755880556006 1053.9676112375273) rotate(0 109.45045623453007 -29.045251459993892)"><path d="M213.92 -44.41 C215.24 -48.02, 216.55 -51.63, 218.9 -58.09 M213.92 -44.41 C215.28 -48.14, 216.64 -51.87, 218.9 -58.09" stroke="#e03131" stroke-width="2" fill="none"/></g></g><mask/><g stroke-linecap="round"><g transform="translate(540 200) rotate(0 0 20)"><path d="M0 0 C0 8, 0 16.01, 0 40 M0 0 C0 9.6, 0 19.19, 0 40" stroke="#1971c2" stroke-width="2" fill="none"/></g><g transform="translate(540 200) rotate(0 0 20)"><path d="M-6.84 21.21 C-5.47 24.97, -4.1 28.73, 0 40 M-6.84 21.21 C-5.2 25.71, -3.56 30.22, 0 40" stroke="#1971c2" stroke-width="2" fill="none"/></g><g transform="translate(540 200) rotate(0 0 20)"><path d="M6.84 21.21 C5.47 24.97, 4.1 28.73, 0 40 M6.84 21.21 C5.2 25.71, 3.56 30.22, 0 40" stroke="#1971c2" stroke-width="2" fill="none"/></g></g><mask/><g stroke-linecap="round"><g transform="translate(334 274.9) rotate(0 -112.05 36.80000000000001)"><path d="M0 0 C-44.86 0, -89.72 0, -224.1 0 M0 0 C-62.69 0, -125.39 0, -224.1 0 M-224.1 0 C-224.1 15.11, -224.1 30.23, -224.1 73.6 M-224.1 0 C-224.1 15.55, -224.1 31.1, -224.1 73.6" stroke="#c92a2a" stroke-width="2" fill="none"/></g><g transform="translate(334 274.9) rotate(0 -112.05 36.80000000000001)"><path d="M-234.36 45.41 C-232.31 51.05, -230.25 56.7, -224.1 73.6 M-234.36 45.41 C-231.49 53.3, -228.62 61.18, -224.1 73.6" stroke="#c92a2a" stroke-width="2" fill="none"/></g><g transform="translate(334 274.9) rotate(0 -112.05 36.80000000000001)"><path d="M-213.84 45.41 C-215.89 51.05, -217.95 56.7, -224.1 73.6 M-213.84 45.41 C-216.71 53.3, -219.58 61.18, -224.1 73.6" stroke="#c92a2a" stroke-width="2" fill="none"/></g></g><mask/><g stroke-linecap="round"><g transform="translate(437.3615398845229 316) rotate(0 0 26.5)"><path d="M0 0 C0 10.62, 0 21.24, 0 53 M0 0 C0 14.81, 0 29.62, 0 53" stroke="#1971c2" stroke-width="2" fill="none"/></g><g transform="translate(437.3615398845229 316) rotate(0 0 26.5)"><path d="M-9.06 28.1 C-7.25 33.09, -5.43 38.08, 0 53 M-9.06 28.1 C-6.53 35.06, -4 42.02, 0 53" stroke="#1971c2" stroke-width="2" fill="none"/></g><g transform="translate(437.3615398845229 316) rotate(0 0 26.5)"><path d="M9.06 28.1 C7.25 33.09, 5.43 38.08, 0 53 M9.06 28.1 C6.53 35.06, 4 42.02, 0 53" stroke="#1971c2" stroke-width="2" fill="none"/></g></g><mask/><g stroke-linecap="round"><g transform="translate(394.9 541.1260756922146) rotate(0 0.05000000000001137 41.500376709331135)"><path d="M0 0 C0.02 16.64, 0.04 33.29, 0.1 83 M0 0 C0.02 19.86, 0.05 39.72, 0.1 83" stroke="#f08c00" stroke-width="2" fill="none"/></g><g transform="translate(394.9 541.1260756922146) rotate(0 0.05000000000001137 41.500376709331135)"><path d="M-10.19 54.82 C-8.13 60.47, -6.07 66.12, 0.1 83 M-10.19 54.82 C-7.73 61.56, -5.27 68.31, 0.1 83" stroke="#f08c00" stroke-width="2" fill="none"/></g><g transform="translate(394.9 541.1260756922146) rotate(0 0.05000000000001137 41.500376709331135)"><path d="M10.33 54.8 C8.28 60.45, 6.22 66.11, 0.1 83 M10.33 54.8 C7.88 61.55, 5.43 68.29, 0.1 83" stroke="#f08c00" stroke-width="2" fill="none"/></g></g><mask/><g stroke-linecap="round"><g transform="translate(664.9 541) rotate(0 0.05000000000001137 41.56341455543844)"><path d="M0 0 C0.02 16.67, 0.04 33.34, 0.1 83.13 M0 0 C0.03 25.87, 0.06 51.75, 0.1 83.13" stroke="#f08c00" stroke-width="2" fill="none"/></g><g transform="translate(664.9 541) rotate(0 0.05000000000001137 41.56341455543844)"><path d="M-10.19 54.95 C-8.13 60.6, -6.07 66.25, 0.1 83.13 M-10.19 54.95 C-6.99 63.72, -3.79 72.49, 0.1 83.13" stroke="#f08c00" stroke-width="2" fill="none"/></g><g transform="translate(664.9 541) rotate(0 0.05000000000001137 41.56341455543844)"><path d="M10.33 54.92 C8.28 60.58, 6.22 66.24, 0.1 83.13 M10.33 54.92 C7.14 63.7, 3.96 72.48, 0.1 83.13" stroke="#f08c00" stroke-width="2" fill="none"/></g></g><mask/><g stroke-linecap="round"><g transform="translate(934.9 541) rotate(0 -87.10447939137072 41.56341455543844)"><path d="M0 0 C0 9.77, 0 19.54, 0 48.72 M0 0 C0 18.67, 0 37.34, 0 48.72 M0 48.72 C-49.87 48.72, -99.75 48.72, -174.21 48.72 M0 48.72 C-66.96 48.72, -133.92 48.72, -174.21 48.72 M-174.21 48.72 C-174.21 59.2, -174.21 69.68, -174.21 83.13 M-174.21 48.72 C-174.21 62.17, -174.21 75.62, -174.21 83.13" stroke="#f08c00" stroke-width="2" fill="none"/></g><g transform="translate(934.9 541) rotate(0 -87.10447939137072 41.56341455543844)"><path d="M-180.09 66.96 C-178.91 70.2, -177.73 73.44, -174.21 83.13 M-180.09 66.96 C-177.84 73.16, -175.58 79.35, -174.21 83.13" stroke="#f08c00" stroke-width="2" fill="none"/></g><g transform="translate(934.9 541) rotate(0 -87.10447939137072 41.56341455543844)"><path d="M-168.32 66.96 C-169.5 70.2, -170.69 73.44, -174.21 83.13 M-168.32 66.96 C-170.58 73.16, -172.83 79.35, -174.21 83.13" stroke="#f08c00" stroke-width="2" fill="none"/></g></g><mask/><g stroke-linecap="round"><g transform="translate(110 475.0855760892159) rotate(0 115 77.5)"><path d="M0 0 C0 26.91, 0 53.82, 0 134.18 M0 0 C0 34.25, 0 68.5, 0 134.18 M0 134.18 C73.93 134.18, 147.85 134.18, 230 134.18 M0 134.18 C82.72 134.18, 165.43 134.18, 230 134.18 M230 134.18 C230 139.72, 230 145.26, 230 155 M230 134.18 C230 139.01, 230 143.84, 230 155" stroke="#c92a2a" stroke-width="2" fill="none"/></g><g transform="translate(110 475.0855760892159) rotate(0 115 77.5)"><path d="M226.44 145.22 C227.15 147.18, 227.87 149.14, 230 155 M226.44 145.22 C227.35 147.72, 228.26 150.21, 230 155" stroke="#c92a2a" stroke-width="2" fill="none"/></g><g transform="translate(110 475.0855760892159) rotate(0 115 77.5)"><path d="M233.56 145.22 C232.85 147.18, 232.13 149.14, 230 155 M233.56 145.22 C232.65 147.72, 231.74 150.21, 230 155" stroke="#c92a2a" stroke-width="2" fill="none"/></g></g><mask/><g stroke-linecap="round"><g transform="translate(440 840) rotate(0 25 0)"><path d="M0 0 C10.03 0, 20.06 0, 50 0 M0 0 C11.16 0, 22.31 0, 50 0" stroke="#9c36b5" stroke-width="2" fill="none"/></g><g transform="translate(440 840) rotate(0 25 0)"><path d="M26.51 8.55 C31.22 6.83, 35.93 5.12, 50 0 M26.51 8.55 C31.75 6.64, 36.99 4.73, 50 0" stroke="#9c36b5" stroke-width="2" fill="none"/></g><g transform="translate(440 840) rotate(0 25 0)"><path d="M26.51 -8.55 C31.22 -6.83, 35.93 -5.12, 50 0 M26.51 -8.55 C31.75 -6.64, 36.99 -4.73, 50 0" stroke="#9c36b5" stroke-width="2" fill="none"/></g></g><mask/><g stroke-linecap="round"><g transform="translate(660 840) rotate(0 25 0)"><path d="M0 0 C10.03 0, 20.07 0, 50 0 M0 0 C17.15 0, 34.31 0, 50 0" stroke="#9c36b5" stroke-width="2" fill="none"/></g><g transform="translate(660 840) rotate(0 25 0)"><path d="M26.51 8.55 C31.22 6.83, 35.94 5.12, 50 0 M26.51 8.55 C34.57 5.62, 42.63 2.68, 50 0" stroke="#9c36b5" stroke-width="2" fill="none"/></g><g transform="translate(660 840) rotate(0 25 0)"><path d="M26.51 -8.55 C31.22 -6.83, 35.94 -5.12, 50 0 M26.51 -8.55 C34.57 -5.62, 42.63 -2.68, 50 0" stroke="#9c36b5" stroke-width="2" fill="none"/></g></g><mask/><g stroke-linecap="round"><g transform="translate(870 840) rotate(0 35 0)"><path d="M0 0 C14.05 0, 28.1 0, 70 0 M0 0 C18.41 0, 36.82 0, 70 0" stroke="#2f9e44" stroke-width="2" fill="none"/></g><g transform="translate(870 840) rotate(0 35 0)"><path d="M41.81 10.26 C47.47 8.2, 53.13 6.14, 70 0 M41.81 10.26 C49.22 7.56, 56.64 4.86, 70 0" stroke="#2f9e44" stroke-width="2" fill="none"/></g><g transform="translate(870 840) rotate(0 35 0)"><path d="M41.81 -10.26 C47.47 -8.2, 53.13 -6.14, 70 0 M41.81 -10.26 C49.22 -7.56, 56.64 -4.86, 70 0" stroke="#2f9e44" stroke-width="2" fill="none"/></g></g><mask/></svg>