<svg version="1.1" xmlns="http://www.w3.org/2000/svg" viewBox="0 0 2942 1356" width="2942" height="1356">
  <!-- svg-source:excalidraw -->
  
  <defs>
    <style class="style-fonts">
      @font-face {
        font-family: "Virgil";
        src: url("https://unpkg.com/@excalidraw/excalidraw@undefined/dist/excalidraw-assets/Virgil.woff2");
      }
      @font-face {
        font-family: "Cascadia";
        src: url("https://unpkg.com/@excalidraw/excalidraw@undefined/dist/excalidraw-assets/Cascadia.woff2");
      }
      @font-face {
        font-family: "Assistant";
        src: url("https://unpkg.com/@excalidraw/excalidraw@undefined/dist/excalidraw-assets/Assistant-Regular.woff2");
      }
    </style>
    
  </defs>
  <rect x="0" y="0" width="2942" height="1356" fill="#ffffff"/><g stroke-linecap="round" transform="translate(1469 54) rotate(0 100 64)"><path d="M32 0 C72.11 0, 112.22 0, 168 0 C189.33 0, 200 10.67, 200 32 C200 55.96, 200 79.92, 200 96 C200 117.33, 189.33 128, 168 128 C136.22 128, 104.43 128, 32 128 C10.67 128, 0 117.33, 0 96 C0 76.04, 0 56.07, 0 32 C0 10.67, 10.67 0, 32 0" stroke="none" stroke-width="0" fill="#a5d8ff"/><path d="M32 0 C81.96 0, 131.92 0, 168 0 M32 0 C73.49 0, 114.98 0, 168 0 M168 0 C189.33 0, 200 10.67, 200 32 M168 0 C189.33 0, 200 10.67, 200 32 M200 32 C200 51.5, 200 71, 200 96 M200 32 C200 55.56, 200 79.11, 200 96 M200 96 C200 117.33, 189.33 128, 168 128 M200 96 C200 117.33, 189.33 128, 168 128 M168 128 C131.84 128, 95.68 128, 32 128 M168 128 C131.2 128, 94.4 128, 32 128 M32 128 C10.67 128, 0 117.33, 0 96 M32 128 C10.67 128, 0 117.33, 0 96 M0 96 C0 76.14, 0 56.28, 0 32 M0 96 C0 74.18, 0 52.36, 0 32 M0 32 C0 10.67, 10.67 0, 32 0 M0 32 C0 10.67, 10.67 0, 32 0" stroke="#1971c2" stroke-width="1" fill="none"/></g><g transform="translate(1479 108) rotate(0 90 10)"><text x="90" y="0" font-family="Cascadia, Segoe UI Emoji" font-size="16px" fill="#1971c2" text-anchor="middle" style="white-space: pre;" direction="ltr" dominant-baseline="text-before-edge">🔌</text><text x="90" y="19.2" font-family="Cascadia, Segoe UI Emoji" font-size="16px" fill="#1971c2" text-anchor="middle" style="white-space: pre;" direction="ltr" dominant-baseline="text-before-edge">QueryMode SDK</text><text x="90" y="38.4" font-family="Cascadia, Segoe UI Emoji" font-size="16px" fill="#1971c2" text-anchor="middle" style="white-space: pre;" direction="ltr" dominant-baseline="text-before-edge">(DataFrame API)</text></g><g stroke-linecap="round" transform="translate(1161 54) rotate(0 100 64)"><path d="M32 0 C85.2 0, 138.41 0, 168 0 C189.33 0, 200 10.67, 200 32 C200 52.11, 200 72.22, 200 96 C200 117.33, 189.33 128, 168 128 C118.95 128, 69.9 128, 32 128 C10.67 128, 0 117.33, 0 96 C0 80.43, 0 64.87, 0 32 C0 10.67, 10.67 0, 32 0" stroke="none" stroke-width="0" fill="#a5d8ff"/><path d="M32 0 C74.46 0, 116.91 0, 168 0 M32 0 C66.06 0, 100.12 0, 168 0 M168 0 C189.33 0, 200 10.67, 200 32 M168 0 C189.33 0, 200 10.67, 200 32 M200 32 C200 50.67, 200 69.34, 200 96 M200 32 C200 49.06, 200 66.13, 200 96 M200 96 C200 117.33, 189.33 128, 168 128 M200 96 C200 117.33, 189.33 128, 168 128 M168 128 C120.11 128, 72.22 128, 32 128 M168 128 C118.82 128, 69.63 128, 32 128 M32 128 C10.67 128, 0 117.33, 0 96 M32 128 C10.67 128, 0 117.33, 0 96 M0 96 C0 73.23, 0 50.46, 0 32 M0 96 C0 80.61, 0 65.21, 0 32 M0 32 C0 10.67, 10.67 0, 32 0 M0 32 C0 10.67, 10.67 0, 32 0" stroke="#1971c2" stroke-width="1" fill="none"/></g><g transform="translate(1171 108) rotate(0 90 10)"><text x="90" y="0" font-family="Cascadia, Segoe UI Emoji" font-size="16px" fill="#1971c2" text-anchor="middle" style="white-space: pre;" direction="ltr" dominant-baseline="text-before-edge">☁️</text><text x="90" y="19.2" font-family="Cascadia, Segoe UI Emoji" font-size="16px" fill="#1971c2" text-anchor="middle" style="white-space: pre;" direction="ltr" dominant-baseline="text-before-edge">HTTP API</text><text x="90" y="38.4" font-family="Cascadia, Segoe UI Emoji" font-size="16px" fill="#1971c2" text-anchor="middle" style="white-space: pre;" direction="ltr" dominant-baseline="text-before-edge">(worker.ts)</text></g><g stroke-linecap="round" transform="translate(1777 66) rotate(0 100 52)"><path d="M26 0 C73.25 0, 120.5 0, 174 0 C191.33 0, 200 8.67, 200 26 C200 40.86, 200 55.71, 200 78 C200 95.33, 191.33 104, 174 104 C126.24 104, 78.48 104, 26 104 C8.67 104, 0 95.33, 0 78 C0 64.53, 0 51.06, 0 26 C0 8.67, 8.67 0, 26 0" stroke="none" stroke-width="0" fill="#a5d8ff"/><path d="M26 0 C79.47 0, 132.94 0, 174 0 M26 0 C74.11 0, 122.23 0, 174 0 M174 0 C191.33 0, 200 8.67, 200 26 M174 0 C191.33 0, 200 8.67, 200 26 M200 26 C200 44.49, 200 62.98, 200 78 M200 26 C200 39.88, 200 53.76, 200 78 M200 78 C200 95.33, 191.33 104, 174 104 M200 78 C200 95.33, 191.33 104, 174 104 M174 104 C130.21 104, 86.41 104, 26 104 M174 104 C128.73 104, 83.46 104, 26 104 M26 104 C8.67 104, 0 95.33, 0 78 M26 104 C8.67 104, 0 95.33, 0 78 M0 78 C0 63.55, 0 49.1, 0 26 M0 78 C0 59.06, 0 40.11, 0 26 M0 26 C0 8.67, 8.67 0, 26 0 M0 26 C0 8.67, 8.67 0, 26 0" stroke="#1971c2" stroke-width="1" fill="none"/></g><g transform="translate(1787 108) rotate(0 90 10)"><text x="90" y="0" font-family="Cascadia, Segoe UI Emoji" font-size="16px" fill="#1971c2" text-anchor="middle" style="white-space: pre;" direction="ltr" dominant-baseline="text-before-edge">Local Executor</text><text x="90" y="19.2" font-family="Cascadia, Segoe UI Emoji" font-size="16px" fill="#1971c2" text-anchor="middle" style="white-space: pre;" direction="ltr" dominant-baseline="text-before-edge">(Node / Bun)</text></g><g stroke-linecap="round" transform="translate(897 295) rotate(0 100 64)"><path d="M32 0 C68.24 0, 104.48 0, 168 0 C189.33 0, 200 10.67, 200 32 C200 45.44, 200 58.89, 200 96 C200 117.33, 189.33 128, 168 128 C119.71 128, 71.41 128, 32 128 C10.67 128, 0 117.33, 0 96 C0 81.03, 0 66.07, 0 32 C0 10.67, 10.67 0, 32 0" stroke="none" stroke-width="0" fill="#ffa8a8"/><path d="M32 0 C78.56 0, 125.12 0, 168 0 M32 0 C80.66 0, 129.32 0, 168 0 M168 0 C189.33 0, 200 10.67, 200 32 M168 0 C189.33 0, 200 10.67, 200 32 M200 32 C200 51.22, 200 70.44, 200 96 M200 32 C200 49.68, 200 67.37, 200 96 M200 96 C200 117.33, 189.33 128, 168 128 M200 96 C200 117.33, 189.33 128, 168 128 M168 128 C125.13 128, 82.26 128, 32 128 M168 128 C115.13 128, 62.27 128, 32 128 M32 128 C10.67 128, 0 117.33, 0 96 M32 128 C10.67 128, 0 117.33, 0 96 M0 96 C0 78.07, 0 60.14, 0 32 M0 96 C0 73.66, 0 51.31, 0 32 M0 32 C0 10.67, 10.67 0, 32 0 M0 32 C0 10.67, 10.67 0, 32 0" stroke="#c92a2a" stroke-width="1" fill="none"/></g><g transform="translate(907 349) rotate(0 90 10)"><text x="90" y="0" font-family="Cascadia, Segoe UI Emoji" font-size="16px" fill="#c92a2a" text-anchor="middle" style="white-space: pre;" direction="ltr" dominant-baseline="text-before-edge">🔒</text><text x="90" y="19.2" font-family="Cascadia, Segoe UI Emoji" font-size="16px" fill="#c92a2a" text-anchor="middle" style="white-space: pre;" direction="ltr" dominant-baseline="text-before-edge">Master DO</text><text x="90" y="38.4" font-family="Cascadia, Segoe UI Emoji" font-size="16px" fill="#c92a2a" text-anchor="middle" style="white-space: pre;" direction="ltr" dominant-baseline="text-before-edge">(Single Writer)</text></g><g stroke-linecap="round" transform="translate(1185 526) rotate(0 110 64)"><path d="M32 0 C86.89 0, 141.78 0, 188 0 C209.33 0, 220 10.67, 220 32 C220 45.71, 220 59.41, 220 96 C220 117.33, 209.33 128, 188 128 C125.94 128, 63.89 128, 32 128 C10.67 128, 0 117.33, 0 96 C0 71.43, 0 46.86, 0 32 C0 10.67, 10.67 0, 32 0" stroke="none" stroke-width="0" fill="#d0bfff"/><path d="M32 0 C87.14 0, 142.27 0, 188 0 M32 0 C67.99 0, 103.97 0, 188 0 M188 0 C209.33 0, 220 10.67, 220 32 M188 0 C209.33 0, 220 10.67, 220 32 M220 32 C220 46.11, 220 60.23, 220 96 M220 32 C220 56.25, 220 80.51, 220 96 M220 96 C220 117.33, 209.33 128, 188 128 M220 96 C220 117.33, 209.33 128, 188 128 M188 128 C156.45 128, 124.9 128, 32 128 M188 128 C151.31 128, 114.62 128, 32 128 M32 128 C10.67 128, 0 117.33, 0 96 M32 128 C10.67 128, 0 117.33, 0 96 M0 96 C0 77.28, 0 58.56, 0 32 M0 96 C0 73.52, 0 51.04, 0 32 M0 32 C0 10.67, 10.67 0, 32 0 M0 32 C0 10.67, 10.67 0, 32 0" stroke="#7048e8" stroke-width="1" fill="none"/></g><g transform="translate(1195 580) rotate(0 100 10)"><text x="100" y="0" font-family="Cascadia, Segoe UI Emoji" font-size="16px" fill="#7048e8" text-anchor="middle" style="white-space: pre;" direction="ltr" dominant-baseline="text-before-edge">🖥️</text><text x="100" y="19.2" font-family="Cascadia, Segoe UI Emoji" font-size="16px" fill="#7048e8" text-anchor="middle" style="white-space: pre;" direction="ltr" dominant-baseline="text-before-edge">Query DO</text><text x="100" y="38.4" font-family="Cascadia, Segoe UI Emoji" font-size="16px" fill="#7048e8" text-anchor="middle" style="white-space: pre;" direction="ltr" dominant-baseline="text-before-edge">(Regional Coordinator)</text></g><g stroke-linecap="round" transform="translate(877 526) rotate(0 100 64)"><path d="M32 0 C65.2 0, 98.41 0, 168 0 C189.33 0, 200 10.67, 200 32 C200 57.05, 200 82.09, 200 96 C200 117.33, 189.33 128, 168 128 C121.43 128, 74.86 128, 32 128 C10.67 128, 0 117.33, 0 96 C0 73.56, 0 51.11, 0 32 C0 10.67, 10.67 0, 32 0" stroke="none" stroke-width="0" fill="#d0bfff"/><path d="M32 0 C67.68 0, 103.37 0, 168 0 M32 0 C67.7 0, 103.39 0, 168 0 M168 0 C189.33 0, 200 10.67, 200 32 M168 0 C189.33 0, 200 10.67, 200 32 M200 32 C200 57.23, 200 82.46, 200 96 M200 32 C200 45.47, 200 58.95, 200 96 M200 96 C200 117.33, 189.33 128, 168 128 M200 96 C200 117.33, 189.33 128, 168 128 M168 128 C117.94 128, 67.88 128, 32 128 M168 128 C118.88 128, 69.75 128, 32 128 M32 128 C10.67 128, 0 117.33, 0 96 M32 128 C10.67 128, 0 117.33, 0 96 M0 96 C0 75.58, 0 55.15, 0 32 M0 96 C0 82.83, 0 69.67, 0 32 M0 32 C0 10.67, 10.67 0, 32 0 M0 32 C0 10.67, 10.67 0, 32 0" stroke="#7048e8" stroke-width="1" fill="none"/></g><g transform="translate(887 580) rotate(0 90 10)"><text x="90" y="0" font-family="Cascadia, Segoe UI Emoji" font-size="16px" fill="#7048e8" text-anchor="middle" style="white-space: pre;" direction="ltr" dominant-baseline="text-before-edge">🖥️</text><text x="90" y="19.2" font-family="Cascadia, Segoe UI Emoji" font-size="16px" fill="#7048e8" text-anchor="middle" style="white-space: pre;" direction="ltr" dominant-baseline="text-before-edge">Query DO</text><text x="90" y="38.4" font-family="Cascadia, Segoe UI Emoji" font-size="16px" fill="#7048e8" text-anchor="middle" style="white-space: pre;" direction="ltr" dominant-baseline="text-before-edge">(Region B)</text></g><g stroke-linecap="round" transform="translate(2216 769) rotate(0 80 52)"><path d="M26 0 C60.81 0, 95.63 0, 134 0 C151.33 0, 160 8.67, 160 26 C160 45.22, 160 64.43, 160 78 C160 95.33, 151.33 104, 134 104 C101.77 104, 69.53 104, 26 104 C8.67 104, 0 95.33, 0 78 C0 58.09, 0 38.18, 0 26 C0 8.67, 8.67 0, 26 0" stroke="none" stroke-width="0" fill="#ffa8a8"/><path d="M26 0 C53.65 0, 81.3 0, 134 0 M26 0 C49.58 0, 73.16 0, 134 0 M134 0 C151.33 0, 160 8.67, 160 26 M134 0 C151.33 0, 160 8.67, 160 26 M160 26 C160 42.21, 160 58.41, 160 78 M160 26 C160 39.64, 160 53.27, 160 78 M160 78 C160 95.33, 151.33 104, 134 104 M160 78 C160 95.33, 151.33 104, 134 104 M134 104 C94.02 104, 54.05 104, 26 104 M134 104 C105.38 104, 76.77 104, 26 104 M26 104 C8.67 104, 0 95.33, 0 78 M26 104 C8.67 104, 0 95.33, 0 78 M0 78 C0 59.88, 0 41.76, 0 26 M0 78 C0 61.82, 0 45.64, 0 26 M0 26 C0 8.67, 8.67 0, 26 0 M0 26 C0 8.67, 8.67 0, 26 0" stroke="#c92a2a" stroke-width="1" fill="none"/></g><g transform="translate(2226 811) rotate(0 70 10)"><text x="70" y="0" font-family="Cascadia, Segoe UI Emoji" font-size="16px" fill="#c92a2a" text-anchor="middle" style="white-space: pre;" direction="ltr" dominant-baseline="text-before-edge">Fragment DO</text><text x="70" y="19.2" font-family="Cascadia, Segoe UI Emoji" font-size="16px" fill="#c92a2a" text-anchor="middle" style="white-space: pre;" direction="ltr" dominant-baseline="text-before-edge">Slot 1</text></g><g stroke-linecap="round" transform="translate(2484 769) rotate(0 80 52)"><path d="M26 0 C48.04 0, 70.09 0, 134 0 C151.33 0, 160 8.67, 160 26 C160 41.81, 160 57.63, 160 78 C160 95.33, 151.33 104, 134 104 C99.33 104, 64.65 104, 26 104 C8.67 104, 0 95.33, 0 78 C0 65.84, 0 53.67, 0 26 C0 8.67, 8.67 0, 26 0" stroke="none" stroke-width="0" fill="#ffa8a8"/><path d="M26 0 C59.42 0, 92.85 0, 134 0 M26 0 C67.02 0, 108.04 0, 134 0 M134 0 C151.33 0, 160 8.67, 160 26 M134 0 C151.33 0, 160 8.67, 160 26 M160 26 C160 44.84, 160 63.68, 160 78 M160 26 C160 37.07, 160 48.14, 160 78 M160 78 C160 95.33, 151.33 104, 134 104 M160 78 C160 95.33, 151.33 104, 134 104 M134 104 C93.33 104, 52.65 104, 26 104 M134 104 C99.8 104, 65.61 104, 26 104 M26 104 C8.67 104, 0 95.33, 0 78 M26 104 C8.67 104, 0 95.33, 0 78 M0 78 C0 59.39, 0 40.78, 0 26 M0 78 C0 62.99, 0 47.98, 0 26 M0 26 C0 8.67, 8.67 0, 26 0 M0 26 C0 8.67, 8.67 0, 26 0" stroke="#c92a2a" stroke-width="1" fill="none"/></g><g transform="translate(2494 811) rotate(0 70 10)"><text x="70" y="0" font-family="Cascadia, Segoe UI Emoji" font-size="16px" fill="#c92a2a" text-anchor="middle" style="white-space: pre;" direction="ltr" dominant-baseline="text-before-edge">Fragment DO</text><text x="70" y="19.2" font-family="Cascadia, Segoe UI Emoji" font-size="16px" fill="#c92a2a" text-anchor="middle" style="white-space: pre;" direction="ltr" dominant-baseline="text-before-edge">Slot 2</text></g><g stroke-linecap="round" transform="translate(2752 769) rotate(0 80 52)"><path d="M26 0 C61.9 0, 97.79 0, 134 0 C151.33 0, 160 8.67, 160 26 C160 43.72, 160 61.43, 160 78 C160 95.33, 151.33 104, 134 104 C109.24 104, 84.48 104, 26 104 C8.67 104, 0 95.33, 0 78 C0 62.79, 0 47.57, 0 26 C0 8.67, 8.67 0, 26 0" stroke="none" stroke-width="0" fill="#ffa8a8"/><path d="M26 0 C56.41 0, 86.82 0, 134 0 M26 0 C55.75 0, 85.5 0, 134 0 M134 0 C151.33 0, 160 8.67, 160 26 M134 0 C151.33 0, 160 8.67, 160 26 M160 26 C160 41.83, 160 57.65, 160 78 M160 26 C160 45.82, 160 65.65, 160 78 M160 78 C160 95.33, 151.33 104, 134 104 M160 78 C160 95.33, 151.33 104, 134 104 M134 104 C92.56 104, 51.11 104, 26 104 M134 104 C107.79 104, 81.59 104, 26 104 M26 104 C8.67 104, 0 95.33, 0 78 M26 104 C8.67 104, 0 95.33, 0 78 M0 78 C0 62.36, 0 46.72, 0 26 M0 78 C0 58.68, 0 39.35, 0 26 M0 26 C0 8.67, 8.67 0, 26 0 M0 26 C0 8.67, 8.67 0, 26 0" stroke="#c92a2a" stroke-width="1" fill="none"/></g><g transform="translate(2762 811) rotate(0 70 10)"><text x="70" y="0" font-family="Cascadia, Segoe UI Emoji" font-size="16px" fill="#c92a2a" text-anchor="middle" style="white-space: pre;" direction="ltr" dominant-baseline="text-before-edge">Fragment DO</text><text x="70" y="19.2" font-family="Cascadia, Segoe UI Emoji" font-size="16px" fill="#c92a2a" text-anchor="middle" style="white-space: pre;" direction="ltr" dominant-baseline="text-before-edge">Slot N</text></g><g stroke-linecap="round" transform="translate(2454 1010) rotate(0 110 52)"><path d="M26 0 C86.04 0, 146.07 0, 194 0 C211.33 0, 220 8.67, 220 26 C220 36.44, 220 46.89, 220 78 C220 95.33, 211.33 104, 194 104 C139.19 104, 84.37 104, 26 104 C8.67 104, 0 95.33, 0 78 C0 60.23, 0 42.45, 0 26 C0 8.67, 8.67 0, 26 0" stroke="none" stroke-width="0" fill="#e599f7"/><path d="M26 0 C86.29 0, 146.58 0, 194 0 M26 0 C80.66 0, 135.33 0, 194 0 M194 0 C211.33 0, 220 8.67, 220 26 M194 0 C211.33 0, 220 8.67, 220 26 M220 26 C220 44.11, 220 62.23, 220 78 M220 26 C220 37.53, 220 49.06, 220 78 M220 78 C220 95.33, 211.33 104, 194 104 M220 78 C220 95.33, 211.33 104, 194 104 M194 104 C137.93 104, 81.86 104, 26 104 M194 104 C129.43 104, 64.86 104, 26 104 M26 104 C8.67 104, 0 95.33, 0 78 M26 104 C8.67 104, 0 95.33, 0 78 M0 78 C0 60.62, 0 43.23, 0 26 M0 78 C0 65.64, 0 53.28, 0 26 M0 26 C0 8.67, 8.67 0, 26 0 M0 26 C0 8.67, 8.67 0, 26 0" stroke="#9c36b5" stroke-width="1" fill="none"/></g><g transform="translate(2464 1052) rotate(0 100 10)"><text x="100" y="0" font-family="Cascadia, Segoe UI Emoji" font-size="16px" fill="#9c36b5" text-anchor="middle" style="white-space: pre;" direction="ltr" dominant-baseline="text-before-edge">WASM Engine</text><text x="100" y="19.2" font-family="Cascadia, Segoe UI Emoji" font-size="16px" fill="#9c36b5" text-anchor="middle" style="white-space: pre;" direction="ltr" dominant-baseline="text-before-edge">(Filter / Agg / Sort)</text></g><g stroke-linecap="round" transform="translate(1639 769) rotate(0 150 52)"><path d="M26 0 C102.04 0, 178.08 0, 274 0 C291.33 0, 300 8.67, 300 26 C300 36.93, 300 47.87, 300 78 C300 95.33, 291.33 104, 274 104 C191.81 104, 109.62 104, 26 104 C8.67 104, 0 95.33, 0 78 C0 60.99, 0 43.99, 0 26 C0 8.67, 8.67 0, 26 0" stroke="none" stroke-width="0" fill="#d0bfff"/><path d="M26 0 C78.18 0, 130.35 0, 274 0 M26 0 C100.11 0, 174.21 0, 274 0 M274 0 C291.33 0, 300 8.67, 300 26 M274 0 C291.33 0, 300 8.67, 300 26 M300 26 C300 39.75, 300 53.49, 300 78 M300 26 C300 41.38, 300 56.77, 300 78 M300 78 C300 95.33, 291.33 104, 274 104 M300 78 C300 95.33, 291.33 104, 274 104 M274 104 C218.61 104, 163.22 104, 26 104 M274 104 C197.71 104, 121.42 104, 26 104 M26 104 C8.67 104, 0 95.33, 0 78 M26 104 C8.67 104, 0 95.33, 0 78 M0 78 C0 58.99, 0 39.99, 0 26 M0 78 C0 58.9, 0 39.79, 0 26 M0 26 C0 8.67, 8.67 0, 26 0 M0 26 C0 8.67, 8.67 0, 26 0" stroke="#7048e8" stroke-width="1" fill="none"/></g><g transform="translate(1649 811) rotate(0 140 10)"><text x="140" y="0" font-family="Cascadia, Segoe UI Emoji" font-size="16px" fill="#7048e8" text-anchor="middle" style="white-space: pre;" direction="ltr" dominant-baseline="text-before-edge">Operator Pipeline</text><text x="140" y="19.2" font-family="Cascadia, Segoe UI Emoji" font-size="16px" fill="#7048e8" text-anchor="middle" style="white-space: pre;" direction="ltr" dominant-baseline="text-before-edge">Scan→Filter→Agg→Sort→Project</text></g><g stroke-linecap="round" transform="translate(508 757) rotate(0 90 64)"><path d="M32 0 C60.21 0, 88.43 0, 148 0 C169.33 0, 180 10.67, 180 32 C180 50.04, 180 68.09, 180 96 C180 117.33, 169.33 128, 148 128 C109.5 128, 71 128, 32 128 C10.67 128, 0 117.33, 0 96 C0 82.44, 0 68.88, 0 32 C0 10.67, 10.67 0, 32 0" stroke="none" stroke-width="0" fill="#ffe8cc"/><path d="M32 0 C71.04 0, 110.07 0, 148 0 M32 0 C74.93 0, 117.85 0, 148 0 M148 0 C169.33 0, 180 10.67, 180 32 M148 0 C169.33 0, 180 10.67, 180 32 M180 32 C180 55.8, 180 79.6, 180 96 M180 32 C180 47.4, 180 62.8, 180 96 M180 96 C180 117.33, 169.33 128, 148 128 M180 96 C180 117.33, 169.33 128, 148 128 M148 128 C103.53 128, 59.07 128, 32 128 M148 128 C111.12 128, 74.25 128, 32 128 M32 128 C10.67 128, 0 117.33, 0 96 M32 128 C10.67 128, 0 117.33, 0 96 M0 96 C0 81.39, 0 66.79, 0 32 M0 96 C0 72.55, 0 49.09, 0 32 M0 32 C0 10.67, 10.67 0, 32 0 M0 32 C0 10.67, 10.67 0, 32 0" stroke="#fd7e14" stroke-width="1" fill="none"/></g><g transform="translate(518 811) rotate(0 80 10)"><text x="80" y="0" font-family="Cascadia, Segoe UI Emoji" font-size="16px" fill="#fd7e14" text-anchor="middle" style="white-space: pre;" direction="ltr" dominant-baseline="text-before-edge">⚡</text><text x="80" y="19.2" font-family="Cascadia, Segoe UI Emoji" font-size="16px" fill="#fd7e14" text-anchor="middle" style="white-space: pre;" direction="ltr" dominant-baseline="text-before-edge">VIP Cache</text><text x="80" y="38.4" font-family="Cascadia, Segoe UI Emoji" font-size="16px" fill="#fd7e14" text-anchor="middle" style="white-space: pre;" direction="ltr" dominant-baseline="text-before-edge">(L1 per-DO)</text></g><g stroke-linecap="round" transform="translate(796 757) rotate(0 100 64)"><path d="M32 0 C71.68 0, 111.36 0, 168 0 C189.33 0, 200 10.67, 200 32 C200 56, 200 80.01, 200 96 C200 117.33, 189.33 128, 168 128 C119.95 128, 71.89 128, 32 128 C10.67 128, 0 117.33, 0 96 C0 71.12, 0 46.25, 0 32 C0 10.67, 10.67 0, 32 0" stroke="none" stroke-width="0" fill="#ffe8cc"/><path d="M32 0 C61.9 0, 91.79 0, 168 0 M32 0 C66.72 0, 101.45 0, 168 0 M168 0 C189.33 0, 200 10.67, 200 32 M168 0 C189.33 0, 200 10.67, 200 32 M200 32 C200 49.09, 200 66.19, 200 96 M200 32 C200 47.57, 200 63.14, 200 96 M200 96 C200 117.33, 189.33 128, 168 128 M200 96 C200 117.33, 189.33 128, 168 128 M168 128 C125.35 128, 82.7 128, 32 128 M168 128 C116.7 128, 65.4 128, 32 128 M32 128 C10.67 128, 0 117.33, 0 96 M32 128 C10.67 128, 0 117.33, 0 96 M0 96 C0 76.13, 0 56.27, 0 32 M0 96 C0 71.66, 0 47.31, 0 32 M0 32 C0 10.67, 10.67 0, 32 0 M0 32 C0 10.67, 10.67 0, 32 0" stroke="#fd7e14" stroke-width="1" fill="none"/></g><g transform="translate(806 811) rotate(0 90 10)"><text x="90" y="0" font-family="Cascadia, Segoe UI Emoji" font-size="16px" fill="#fd7e14" text-anchor="middle" style="white-space: pre;" direction="ltr" dominant-baseline="text-before-edge">⚡</text><text x="90" y="19.2" font-family="Cascadia, Segoe UI Emoji" font-size="16px" fill="#fd7e14" text-anchor="middle" style="white-space: pre;" direction="ltr" dominant-baseline="text-before-edge">Edge Cache</text><text x="90" y="38.4" font-family="Cascadia, Segoe UI Emoji" font-size="16px" fill="#fd7e14" text-anchor="middle" style="white-space: pre;" direction="ltr" dominant-baseline="text-before-edge">(L2 per-datacenter)</text></g><g stroke-linecap="round" transform="translate(1956 998) rotate(0 100 64)"><path d="M32 0 C78.4 0, 124.81 0, 168 0 C189.33 0, 200 10.67, 200 32 C200 49.65, 200 67.3, 200 96 C200 117.33, 189.33 128, 168 128 C140.45 128, 112.91 128, 32 128 C10.67 128, 0 117.33, 0 96 C0 71.84, 0 47.68, 0 32 C0 10.67, 10.67 0, 32 0" stroke="none" stroke-width="0" fill="#ffec99"/><path d="M32 0 C67.37 0, 102.75 0, 168 0 M32 0 C76.73 0, 121.45 0, 168 0 M168 0 C189.33 0, 200 10.67, 200 32 M168 0 C189.33 0, 200 10.67, 200 32 M200 32 C200 47.05, 200 62.11, 200 96 M200 32 C200 45.53, 200 59.07, 200 96 M200 96 C200 117.33, 189.33 128, 168 128 M200 96 C200 117.33, 189.33 128, 168 128 M168 128 C135.78 128, 103.57 128, 32 128 M168 128 C131.71 128, 95.42 128, 32 128 M32 128 C10.67 128, 0 117.33, 0 96 M32 128 C10.67 128, 0 117.33, 0 96 M0 96 C0 82.06, 0 68.12, 0 32 M0 96 C0 79.44, 0 62.88, 0 32 M0 32 C0 10.67, 10.67 0, 32 0 M0 32 C0 10.67, 10.67 0, 32 0" stroke="#f08c00" stroke-width="1" fill="none"/></g><g transform="translate(1966 1052) rotate(0 90 10)"><text x="90" y="0" font-family="Cascadia, Segoe UI Emoji" font-size="16px" fill="#f08c00" text-anchor="middle" style="white-space: pre;" direction="ltr" dominant-baseline="text-before-edge">🗄️</text><text x="90" y="19.2" font-family="Cascadia, Segoe UI Emoji" font-size="16px" fill="#f08c00" text-anchor="middle" style="white-space: pre;" direction="ltr" dominant-baseline="text-before-edge">Cloudflare R2</text><text x="90" y="38.4" font-family="Cascadia, Segoe UI Emoji" font-size="16px" fill="#f08c00" text-anchor="middle" style="white-space: pre;" direction="ltr" dominant-baseline="text-before-edge">(Data Lake)</text></g><g stroke-linecap="round" transform="translate(1648 1010) rotate(0 100 52)"><path d="M26 0 C77 0, 128.01 0, 174 0 C191.33 0, 200 8.67, 200 26 C200 45.83, 200 65.66, 200 78 C200 95.33, 191.33 104, 174 104 C134.55 104, 95.11 104, 26 104 C8.67 104, 0 95.33, 0 78 C0 64.82, 0 51.63, 0 26 C0 8.67, 8.67 0, 26 0" stroke="none" stroke-width="0" fill="#ffec99"/><path d="M26 0 C64.23 0, 102.46 0, 174 0 M26 0 C80.78 0, 135.55 0, 174 0 M174 0 C191.33 0, 200 8.67, 200 26 M174 0 C191.33 0, 200 8.67, 200 26 M200 26 C200 41.98, 200 57.97, 200 78 M200 26 C200 40.73, 200 55.46, 200 78 M200 78 C200 95.33, 191.33 104, 174 104 M200 78 C200 95.33, 191.33 104, 174 104 M174 104 C121.83 104, 69.67 104, 26 104 M174 104 C118.54 104, 63.08 104, 26 104 M26 104 C8.67 104, 0 95.33, 0 78 M26 104 C8.67 104, 0 95.33, 0 78 M0 78 C0 65.52, 0 53.04, 0 26 M0 78 C0 66.41, 0 54.83, 0 26 M0 26 C0 8.67, 8.67 0, 26 0 M0 26 C0 8.67, 8.67 0, 26 0" stroke="#f08c00" stroke-width="1" fill="none"/></g><g transform="translate(1658 1052) rotate(0 90 10)"><text x="90" y="0" font-family="Cascadia, Segoe UI Emoji" font-size="16px" fill="#f08c00" text-anchor="middle" style="white-space: pre;" direction="ltr" dominant-baseline="text-before-edge">R2 Spill</text><text x="90" y="19.2" font-family="Cascadia, Segoe UI Emoji" font-size="16px" fill="#f08c00" text-anchor="middle" style="white-space: pre;" direction="ltr" dominant-baseline="text-before-edge">(Sort / Join overflow)</text></g><g stroke-linecap="round" transform="translate(1320 998) rotate(0 110 64)"><path d="M32 0 C69.5 0, 107.01 0, 188 0 C209.33 0, 220 10.67, 220 32 C220 47.85, 220 63.69, 220 96 C220 117.33, 209.33 128, 188 128 C148.89 128, 109.79 128, 32 128 C10.67 128, 0 117.33, 0 96 C0 81.16, 0 66.32, 0 32 C0 10.67, 10.67 0, 32 0" stroke="none" stroke-width="0" fill="#b2f2bb"/><path d="M32 0 C88.45 0, 144.9 0, 188 0 M32 0 C84.97 0, 137.95 0, 188 0 M188 0 C209.33 0, 220 10.67, 220 32 M188 0 C209.33 0, 220 10.67, 220 32 M220 32 C220 46.54, 220 61.09, 220 96 M220 32 C220 53.53, 220 75.06, 220 96 M220 96 C220 117.33, 209.33 128, 188 128 M220 96 C220 117.33, 209.33 128, 188 128 M188 128 C143.09 128, 98.19 128, 32 128 M188 128 C152.75 128, 117.5 128, 32 128 M32 128 C10.67 128, 0 117.33, 0 96 M32 128 C10.67 128, 0 117.33, 0 96 M0 96 C0 74.78, 0 53.57, 0 32 M0 96 C0 71.77, 0 47.54, 0 32 M0 32 C0 10.67, 10.67 0, 32 0 M0 32 C0 10.67, 10.67 0, 32 0" stroke="#2f9e44" stroke-width="1" fill="none"/></g><g transform="translate(1330 1052) rotate(0 100 10)"><text x="100" y="0" font-family="Cascadia, Segoe UI Emoji" font-size="16px" fill="#2f9e44" text-anchor="middle" style="white-space: pre;" direction="ltr" dominant-baseline="text-before-edge">🗄️</text><text x="100" y="19.2" font-family="Cascadia, Segoe UI Emoji" font-size="16px" fill="#2f9e44" text-anchor="middle" style="white-space: pre;" direction="ltr" dominant-baseline="text-before-edge">DO Storage</text><text x="100" y="38.4" font-family="Cascadia, Segoe UI Emoji" font-size="16px" fill="#2f9e44" text-anchor="middle" style="white-space: pre;" direction="ltr" dominant-baseline="text-before-edge">(SQLite — metadata)</text></g><g stroke-linecap="round" transform="translate(1861 1235) rotate(0 70 40)"><path d="M20 0 C46.54 0, 73.08 0, 120 0 C133.33 0, 140 6.67, 140 20 C140 33.39, 140 46.78, 140 60 C140 73.33, 133.33 80, 120 80 C96.47 80, 72.94 80, 20 80 C6.67 80, 0 73.33, 0 60 C0 46.36, 0 32.72, 0 20 C0 6.67, 6.67 0, 20 0" stroke="none" stroke-width="0" fill="#ffc9c9"/><path d="M20 0 C59.55 0, 99.1 0, 120 0 M20 0 C56.07 0, 92.15 0, 120 0 M120 0 C133.33 0, 140 6.67, 140 20 M120 0 C133.33 0, 140 6.67, 140 20 M140 20 C140 32.77, 140 45.53, 140 60 M140 20 C140 28.18, 140 36.37, 140 60 M140 60 C140 73.33, 133.33 80, 120 80 M140 60 C140 73.33, 133.33 80, 120 80 M120 80 C94.15 80, 68.31 80, 20 80 M120 80 C83.22 80, 46.44 80, 20 80 M20 80 C6.67 80, 0 73.33, 0 60 M20 80 C6.67 80, 0 73.33, 0 60 M0 60 C0 50.08, 0 40.16, 0 20 M0 60 C0 47.04, 0 34.07, 0 20 M0 20 C0 6.67, 6.67 0, 20 0 M0 20 C0 6.67, 6.67 0, 20 0" stroke="#e03131" stroke-width="1" fill="none"/></g><g transform="translate(1871 1265) rotate(0 60 10)"><text x="60" y="0" font-family="Cascadia, Segoe UI Emoji" font-size="16px" fill="#e03131" text-anchor="middle" style="white-space: pre;" direction="ltr" dominant-baseline="text-before-edge">Lance v1/v2</text></g><g stroke-linecap="round" transform="translate(2109 1235) rotate(0 70 40)"><path d="M20 0 C40.77 0, 61.54 0, 120 0 C133.33 0, 140 6.67, 140 20 C140 31.33, 140 42.67, 140 60 C140 73.33, 133.33 80, 120 80 C83.78 80, 47.55 80, 20 80 C6.67 80, 0 73.33, 0 60 C0 45.14, 0 30.28, 0 20 C0 6.67, 6.67 0, 20 0" stroke="none" stroke-width="0" fill="#ffc9c9"/><path d="M20 0 C55.49 0, 90.97 0, 120 0 M20 0 C49.74 0, 79.47 0, 120 0 M120 0 C133.33 0, 140 6.67, 140 20 M120 0 C133.33 0, 140 6.67, 140 20 M140 20 C140 31.51, 140 43.01, 140 60 M140 20 C140 34.48, 140 48.96, 140 60 M140 60 C140 73.33, 133.33 80, 120 80 M140 60 C140 73.33, 133.33 80, 120 80 M120 80 C81.28 80, 42.56 80, 20 80 M120 80 C84.36 80, 48.71 80, 20 80 M20 80 C6.67 80, 0 73.33, 0 60 M20 80 C6.67 80, 0 73.33, 0 60 M0 60 C0 46.48, 0 32.96, 0 20 M0 60 C0 51.58, 0 43.17, 0 20 M0 20 C0 6.67, 6.67 0, 20 0 M0 20 C0 6.67, 6.67 0, 20 0" stroke="#e03131" stroke-width="1" fill="none"/></g><g transform="translate(2119 1265) rotate(0 60 10)"><text x="60" y="0" font-family="Cascadia, Segoe UI Emoji" font-size="16px" fill="#e03131" text-anchor="middle" style="white-space: pre;" direction="ltr" dominant-baseline="text-before-edge">Parquet</text></g><g stroke-linecap="round" transform="translate(1613 1235) rotate(0 70 40)"><path d="M20 0 C55.32 0, 90.65 0, 120 0 C133.33 0, 140 6.67, 140 20 C140 30.45, 140 40.91, 140 60 C140 73.33, 133.33 80, 120 80 C86.31 80, 52.61 80, 20 80 C6.67 80, 0 73.33, 0 60 C0 48.44, 0 36.87, 0 20 C0 6.67, 6.67 0, 20 0" stroke="none" stroke-width="0" fill="#ffc9c9"/><path d="M20 0 C50.5 0, 80.99 0, 120 0 M20 0 C50.54 0, 81.07 0, 120 0 M120 0 C133.33 0, 140 6.67, 140 20 M120 0 C133.33 0, 140 6.67, 140 20 M140 20 C140 28.26, 140 36.51, 140 60 M140 20 C140 32.41, 140 44.82, 140 60 M140 60 C140 73.33, 133.33 80, 120 80 M140 60 C140 73.33, 133.33 80, 120 80 M120 80 C86.93 80, 53.86 80, 20 80 M120 80 C88.19 80, 56.38 80, 20 80 M20 80 C6.67 80, 0 73.33, 0 60 M20 80 C6.67 80, 0 73.33, 0 60 M0 60 C0 48.52, 0 37.05, 0 20 M0 60 C0 46.38, 0 32.75, 0 20 M0 20 C0 6.67, 6.67 0, 20 0 M0 20 C0 6.67, 6.67 0, 20 0" stroke="#e03131" stroke-width="1" fill="none"/></g><g transform="translate(1623 1265) rotate(0 60 10)"><text x="60" y="0" font-family="Cascadia, Segoe UI Emoji" font-size="16px" fill="#e03131" text-anchor="middle" style="white-space: pre;" direction="ltr" dominant-baseline="text-before-edge">Iceberg</text></g><g stroke-linecap="round" transform="translate(1325 1223) rotate(0 90 52)"><path d="M26 0 C69.81 0, 113.63 0, 154 0 C171.33 0, 180 8.67, 180 26 C180 37.3, 180 48.59, 180 78 C180 95.33, 171.33 104, 154 104 C119.89 104, 85.78 104, 26 104 C8.67 104, 0 95.33, 0 78 C0 65.31, 0 52.61, 0 26 C0 8.67, 8.67 0, 26 0" stroke="none" stroke-width="0" fill="#e599f7"/><path d="M26 0 C70.85 0, 115.71 0, 154 0 M26 0 C71.57 0, 117.13 0, 154 0 M154 0 C171.33 0, 180 8.67, 180 26 M154 0 C171.33 0, 180 8.67, 180 26 M180 26 C180 39.28, 180 52.55, 180 78 M180 26 C180 41.11, 180 56.21, 180 78 M180 78 C180 95.33, 171.33 104, 154 104 M180 78 C180 95.33, 171.33 104, 154 104 M154 104 C113.73 104, 73.45 104, 26 104 M154 104 C123.12 104, 92.25 104, 26 104 M26 104 C8.67 104, 0 95.33, 0 78 M26 104 C8.67 104, 0 95.33, 0 78 M0 78 C0 65.64, 0 53.27, 0 26 M0 78 C0 61.99, 0 45.97, 0 26 M0 26 C0 8.67, 8.67 0, 26 0 M0 26 C0 8.67, 8.67 0, 26 0" stroke="#9c36b5" stroke-width="1" fill="none"/></g><g transform="translate(1335 1265) rotate(0 80 10)"><text x="80" y="0" font-family="Cascadia, Segoe UI Emoji" font-size="16px" fill="#9c36b5" text-anchor="middle" style="white-space: pre;" direction="ltr" dominant-baseline="text-before-edge">HNSW Index</text><text x="80" y="19.2" font-family="Cascadia, Segoe UI Emoji" font-size="16px" fill="#9c36b5" text-anchor="middle" style="white-space: pre;" direction="ltr" dominant-baseline="text-before-edge">(Vector Search)</text></g><g stroke-linecap="round"><g transform="translate(1537 179) rotate(0 -97.5 171)"><path d="M0 0 C-21.17 40.67, -99 193.33, -127 244 C-155 294.67, -156.67 287.67, -168 304 C-179.33 320.33, -190.5 335.67, -195 342 M0 0 C-21.17 40.67, -99 193.33, -127 244 C-155 294.67, -156.67 287.67, -168 304 C-179.33 320.33, -190.5 335.67, -195 342" stroke="#7048e8" stroke-width="2" fill="none"/></g><g transform="translate(1537 179) rotate(0 -97.5 171)"><path d="M-188.72 319.56 C-191.09 328.04, -193.47 336.53, -195 342 M-188.72 319.56 C-191.14 328.22, -193.57 336.88, -195 342" stroke="#7048e8" stroke-width="2" fill="none"/></g><g transform="translate(1537 179) rotate(0 -97.5 171)"><path d="M-175.76 328.85 C-183.04 333.82, -190.31 338.79, -195 342 M-175.76 328.85 C-183.18 333.92, -190.61 339, -195 342" stroke="#7048e8" stroke-width="2" fill="none"/></g></g><mask/><g transform="translate(1642 347) rotate(0 71 10)"><text x="71" y="0" font-family="Virgil, Segoe UI Emoji" font-size="14px" fill="#1e1e1e" text-anchor="middle" style="white-space: pre;" direction="ltr" dominant-baseline="text-before-edge">RPC (zero-copy)</text></g><g stroke-linecap="round"><g transform="translate(1265 183) rotate(0 12 165.5)"><path d="M0 0 C4 55.17, 20 275.83, 24 331 M0 0 C4 55.17, 20 275.83, 24 331" stroke="#7048e8" stroke-width="2" fill="none"/></g><g transform="translate(1265 183) rotate(0 12 165.5)"><path d="M11.73 303.63 C15.54 312.13, 19.35 320.63, 24 331 M11.73 303.63 C15.1 311.15, 18.47 318.67, 24 331" stroke="#7048e8" stroke-width="2" fill="none"/></g><g transform="translate(1265 183) rotate(0 12 165.5)"><path d="M32.2 302.14 C29.65 311.1, 27.11 320.06, 24 331 M32.2 302.14 C29.94 310.07, 27.69 318, 24 331" stroke="#7048e8" stroke-width="2" fill="none"/></g></g><mask/><g transform="translate(1277.8 347) rotate(0 54.200000000000045 10)"><text x="54.2" y="0" font-family="Virgil, Segoe UI Emoji" font-size="14px" fill="#1e1e1e" text-anchor="middle" style="white-space: pre;" direction="ltr" dominant-baseline="text-before-edge">JSON → RPC</text></g><g stroke-linecap="round"><g transform="translate(1196 167) rotate(0 -71 64)"><path d="M0 0 C-13 9.67, -54.33 36.67, -78 58 C-101.67 79.33, -131.33 116.33, -142 128 M0 0 C-13 9.67, -54.33 36.67, -78 58 C-101.67 79.33, -131.33 116.33, -142 128" stroke="#c92a2a" stroke-width="2" fill="none"/></g><g transform="translate(1196 167) rotate(0 -71 64)"><path d="M-131.3 99.97 C-133.85 106.65, -136.4 113.33, -142 128 M-131.3 99.97 C-135.07 109.85, -138.84 119.73, -142 128" stroke="#c92a2a" stroke-width="2" fill="none"/></g><g transform="translate(1196 167) rotate(0 -71 64)"><path d="M-115.79 113.4 C-122.03 116.88, -128.28 120.36, -142 128 M-115.79 113.4 C-125.03 118.55, -134.27 123.69, -142 128" stroke="#c92a2a" stroke-width="2" fill="none"/></g></g><mask/><g transform="translate(1110 222) rotate(0 71 10)"><text x="71" y="0" font-family="Virgil, Segoe UI Emoji" font-size="14px" fill="#1e1e1e" text-anchor="middle" style="white-space: pre;" direction="ltr" dominant-baseline="text-before-edge">/write /refresh</text></g><g stroke-linecap="round"><g transform="translate(1492 160) rotate(0 -205 75.5)"><path d="M0 0 C-12.83 7, -40.17 28.33, -77 42 C-113.83 55.67, -183.67 74, -221 82 C-258.33 90, -269.5 78.5, -301 90 C-332.5 101.5, -391.83 140.83, -410 151" stroke="#c92a2a" stroke-width="2.5" fill="none" stroke-dasharray="8 10"/></g><g transform="translate(1492 160) rotate(0 -205 75.5)"><path d="M-391.19 127.63 C-397.47 135.43, -403.74 143.23, -410 151" stroke="#c92a2a" stroke-width="2.5" fill="none"/></g><g transform="translate(1492 160) rotate(0 -205 75.5)"><path d="M-380.57 145.19 C-390.39 147.13, -400.21 149.07, -410 151" stroke="#c92a2a" stroke-width="2.5" fill="none"/></g></g><mask/><g transform="translate(1321.4 250) rotate(0 41.60000000000002 10)"><text x="41.6" y="0" font-family="Virgil, Segoe UI Emoji" font-size="14px" fill="#1e1e1e" text-anchor="middle" style="white-space: pre;" direction="ltr" dominant-baseline="text-before-edge">append()</text></g><g stroke-linecap="round"><g transform="translate(1060 409) rotate(0 79.5 61)"><path d="M0 0 C26.5 20.33, 132.5 101.67, 159 122" stroke="#7048e8" stroke-width="2.5" fill="none" stroke-dasharray="8 10"/></g><g transform="translate(1060 409) rotate(0 79.5 61)"><path d="M130.39 112.98 C136.62 114.94, 142.86 116.91, 159 122" stroke="#7048e8" stroke-width="2.5" fill="none"/></g><g transform="translate(1060 409) rotate(0 79.5 61)"><path d="M142.88 96.7 C146.39 102.21, 149.9 107.72, 159 122" stroke="#7048e8" stroke-width="2.5" fill="none"/></g></g><mask/><g transform="translate(1146 463) rotate(0 50 10)"><text x="50" y="0" font-family="Virgil, Segoe UI Emoji" font-size="14px" fill="#1e1e1e" text-anchor="middle" style="white-space: pre;" direction="ltr" dominant-baseline="text-before-edge">invalidate</text></g><g stroke-linecap="round"><g transform="translate(977 422) rotate(0 -7 46)"><path d="M0 0 C-2.33 7.33, -11.67 33.83, -14 44 C-16.33 54.17, -14.67 53, -14 61 C-13.33 69, -10.67 86.83, -10 92" stroke="#7048e8" stroke-width="2.5" fill="none" stroke-dasharray="8 10"/></g><g transform="translate(977 422) rotate(0 -7 46)"><path d="M-17.31 78.18 C-15.16 82.24, -13.02 86.29, -10 92" stroke="#7048e8" stroke-width="2.5" fill="none"/></g><g transform="translate(977 422) rotate(0 -7 46)"><path d="M-6.72 76.72 C-7.68 81.2, -8.64 85.69, -10 92" stroke="#7048e8" stroke-width="2.5" fill="none"/></g></g><mask/><g transform="translate(955 463) rotate(0 50 10)"><text x="50" y="0" font-family="Virgil, Segoe UI Emoji" font-size="14px" fill="#1e1e1e" text-anchor="middle" style="white-space: pre;" direction="ltr" dominant-baseline="text-before-edge">invalidate</text></g><g stroke-linecap="round"><g transform="translate(1399 611) rotate(0 407 91.5)"><path d="M0 0 C99 18.83, 458.33 82.5, 594 113 C729.67 143.5, 777.33 171.33, 814 183 M0 0 C99 18.83, 458.33 82.5, 594 113 C729.67 143.5, 777.33 171.33, 814 183" stroke="#c92a2a" stroke-width="2" fill="none"/></g><g transform="translate(1399 611) rotate(0 407 91.5)"><path d="M784 182.55 C792.27 182.67, 800.54 182.8, 814 183 M784 182.55 C792.34 182.67, 800.67 182.8, 814 183" stroke="#c92a2a" stroke-width="2" fill="none"/></g><g transform="translate(1399 611) rotate(0 407 91.5)"><path d="M791.31 163.37 C797.56 168.78, 803.82 174.19, 814 183 M791.31 163.37 C797.61 168.83, 803.92 174.28, 814 183" stroke="#c92a2a" stroke-width="2" fill="none"/></g></g><mask/><g transform="translate(1924.6 694) rotate(0 37.39999999999998 10)"><text x="37.400000000000006" y="0" font-family="Virgil, Segoe UI Emoji" font-size="14px" fill="#1e1e1e" text-anchor="middle" style="white-space: pre;" direction="ltr" dominant-baseline="text-before-edge">scanRpc</text></g><g stroke-linecap="round"><g transform="translate(1403 604) rotate(0 549 85.5)"><path d="M0 0 C171.17 20, 844 91.5, 1027 120 C1210 148.5, 1086.17 162.5, 1098 171 M0 0 C171.17 20, 844 91.5, 1027 120 C1210 148.5, 1086.17 162.5, 1098 171" stroke="#c92a2a" stroke-width="2" fill="none"/></g><g transform="translate(1403 604) rotate(0 549 85.5)"><path d="M1115.74 146.81 C1110.78 153.57, 1105.81 160.34, 1098 171 M1115.74 146.81 C1111.78 152.21, 1107.82 157.61, 1098 171" stroke="#c92a2a" stroke-width="2" fill="none"/></g><g transform="translate(1403 604) rotate(0 549 85.5)"><path d="M1127.14 163.87 C1118.99 165.86, 1110.84 167.86, 1098 171 M1127.14 163.87 C1120.63 165.46, 1114.13 167.05, 1098 171" stroke="#c92a2a" stroke-width="2" fill="none"/></g></g><mask/><g transform="translate(2324.6 734) rotate(0 37.40000000000009 10)"><text x="37.400000000000006" y="0" font-family="Virgil, Segoe UI Emoji" font-size="14px" fill="#1e1e1e" text-anchor="middle" style="white-space: pre;" direction="ltr" dominant-baseline="text-before-edge">scanRpc</text></g><g stroke-linecap="round"><g transform="translate(1403 601) rotate(0 683 87)"><path d="M0 0 C169.33 16, 800.17 75.5, 1016 96 C1231.83 116.5, 1236.67 110, 1295 123 C1353.33 136, 1354.17 165.5, 1366 174 M0 0 C169.33 16, 800.17 75.5, 1016 96 C1231.83 116.5, 1236.67 110, 1295 123 C1353.33 136, 1354.17 165.5, 1366 174" stroke="#c92a2a" stroke-width="2" fill="none"/></g><g transform="translate(1403 601) rotate(0 683 87)"><path d="M1340.63 157.99 C1345.79 161.25, 1350.95 164.5, 1366 174 M1340.63 157.99 C1348.53 162.97, 1356.42 167.96, 1366 174" stroke="#c92a2a" stroke-width="2" fill="none"/></g><g transform="translate(1403 601) rotate(0 683 87)"><path d="M1356.85 145.43 C1358.71 151.24, 1360.57 157.05, 1366 174 M1356.85 145.43 C1359.7 154.32, 1362.55 163.22, 1366 174" stroke="#c92a2a" stroke-width="2" fill="none"/></g></g><mask/><g transform="translate(2574.6 666) rotate(0 37.40000000000009 10)"><text x="37.400000000000006" y="0" font-family="Virgil, Segoe UI Emoji" font-size="14px" fill="#1e1e1e" text-anchor="middle" style="white-space: pre;" direction="ltr" dominant-baseline="text-before-edge">scanRpc</text></g><g stroke-linecap="round"><g transform="translate(2346 862) rotate(0 81.5 72.5)"><path d="M0 0 C14 11, 56.83 41.83, 84 66 C111.17 90.17, 149.83 131.83, 163 145" stroke="#9c36b5" stroke-width="2.5" fill="none" stroke-dasharray="1.5 8"/></g><g transform="translate(2346 862) rotate(0 81.5 72.5)"><path d="M136.01 131.9 C146.1 136.79, 156.18 141.69, 163 145" stroke="#9c36b5" stroke-width="2.5" fill="none" stroke-dasharray="1.5 6"/></g><g transform="translate(2346 862) rotate(0 81.5 72.5)"><path d="M150.75 117.61 C155.33 127.85, 159.9 138.08, 163 145" stroke="#9c36b5" stroke-width="2.5" fill="none" stroke-dasharray="1.5 6"/></g></g><mask/><g stroke-linecap="round"><g transform="translate(2564 873) rotate(0 0 62.5)"><path d="M0 0 C0 20.83, 0 104.17, 0 125" stroke="#9c36b5" stroke-width="2.5" fill="none" stroke-dasharray="1.5 8"/></g><g transform="translate(2564 873) rotate(0 0 62.5)"><path d="M-10.26 96.81 C-6.18 108.02, -2.1 119.22, 0 125" stroke="#9c36b5" stroke-width="2.5" fill="none" stroke-dasharray="1.5 6"/></g><g transform="translate(2564 873) rotate(0 0 62.5)"><path d="M10.26 96.81 C6.18 108.02, 2.1 119.22, 0 125" stroke="#9c36b5" stroke-width="2.5" fill="none" stroke-dasharray="1.5 6"/></g></g><mask/><g stroke-linecap="round"><g transform="translate(2785 864) rotate(0 -81 72)"><path d="M0 0 C-27 24, -135 120, -162 144" stroke="#9c36b5" stroke-width="2.5" fill="none" stroke-dasharray="1.5 8"/></g><g transform="translate(2785 864) rotate(0 -81 72)"><path d="M-147.75 117.6 C-152.14 125.74, -156.53 133.87, -162 144" stroke="#9c36b5" stroke-width="2.5" fill="none" stroke-dasharray="1.5 6"/></g><g transform="translate(2785 864) rotate(0 -81 72)"><path d="M-134.11 132.94 C-142.71 136.35, -151.3 139.76, -162 144" stroke="#9c36b5" stroke-width="2.5" fill="none" stroke-dasharray="1.5 6"/></g></g><mask/><g stroke-linecap="round"><g transform="translate(1380 631) rotate(0 154.5 71.5)"><path d="M0 0 C51.5 23.83, 257.5 119.17, 309 143 M0 0 C51.5 23.83, 257.5 119.17, 309 143" stroke="#7048e8" stroke-width="2" fill="none"/></g><g transform="translate(1380 631) rotate(0 154.5 71.5)"><path d="M279.11 140.47 C291.03 141.48, 302.95 142.49, 309 143 M279.11 140.47 C285.32 141, 291.54 141.52, 309 143" stroke="#7048e8" stroke-width="2" fill="none"/></g><g transform="translate(1380 631) rotate(0 154.5 71.5)"><path d="M287.73 121.85 C296.21 130.28, 304.69 138.72, 309 143 M287.73 121.85 C292.15 126.25, 296.58 130.65, 309 143" stroke="#7048e8" stroke-width="2" fill="none"/></g></g><mask/><g transform="translate(1548.4 694) rotate(0 62.60000000000002 10)"><text x="62.6" y="0" font-family="Virgil, Segoe UI Emoji" font-size="14px" fill="#1e1e1e" text-anchor="middle" style="white-space: pre;" direction="ltr" dominant-baseline="text-before-edge">merge results</text></g><g stroke-linecap="round"><g transform="translate(1212 633) rotate(0 -270 68.5)"><path d="M0 0 C-13.5 6.83, -26.5 30.33, -81 41 C-135.5 51.67, -262.17 55.67, -327 64 C-391.83 72.33, -434.5 78.83, -470 91 C-505.5 103.17, -528.33 129.33, -540 137 M0 0 C-13.5 6.83, -26.5 30.33, -81 41 C-135.5 51.67, -262.17 55.67, -327 64 C-391.83 72.33, -434.5 78.83, -470 91 C-505.5 103.17, -528.33 129.33, -540 137" stroke="#fd7e14" stroke-width="2" fill="none"/></g><g transform="translate(1212 633) rotate(0 -270 68.5)"><path d="M-524.6 111.26 C-530.5 121.13, -536.41 130.99, -540 137 M-524.6 111.26 C-529 118.62, -533.41 125.98, -540 137" stroke="#fd7e14" stroke-width="2" fill="none"/></g><g transform="translate(1212 633) rotate(0 -270 68.5)"><path d="M-511.65 127.18 C-522.52 130.95, -533.39 134.71, -540 137 M-511.65 127.18 C-519.76 129.99, -527.87 132.8, -540 137" stroke="#fd7e14" stroke-width="2" fill="none"/></g></g><mask/><g transform="translate(867.2 694) rotate(0 45.80000000000001 10)"><text x="45.800000000000004" y="0" font-family="Virgil, Segoe UI Emoji" font-size="14px" fill="#1e1e1e" text-anchor="middle" style="white-space: pre;" direction="ltr" dominant-baseline="text-before-edge">L1 lookup</text></g><g stroke-linecap="round"><g transform="translate(1212 633) rotate(0 -131 61.5)"><path d="M0 0 C-13.5 6.83, -45.83 30.33, -81 41 C-116.17 51.67, -180.83 50.33, -211 64 C-241.17 77.67, -253.5 113.17, -262 123" stroke="#fd7e14" stroke-width="2.5" fill="none" stroke-dasharray="8 10"/></g><g transform="translate(1212 633) rotate(0 -131 61.5)"><path d="M-255.76 93.66 C-257.05 99.73, -258.34 105.79, -262 123" stroke="#fd7e14" stroke-width="2.5" fill="none"/></g><g transform="translate(1212 633) rotate(0 -131 61.5)"><path d="M-238.36 104.53 C-243.25 108.35, -248.14 112.17, -262 123" stroke="#fd7e14" stroke-width="2.5" fill="none"/></g></g><mask/><g transform="translate(1003.2 722) rotate(0 45.80000000000001 10)"><text x="45.800000000000004" y="0" font-family="Virgil, Segoe UI Emoji" font-size="14px" fill="#1e1e1e" text-anchor="middle" style="white-space: pre;" direction="ltr" dominant-baseline="text-before-edge">L2 lookup</text></g><g stroke-linecap="round"><g transform="translate(2233 853) rotate(0 -81 67)"><path d="M0 0 C-25 12.5, -123 52.67, -150 75 C-177 97.33, -160 124.17, -162 134 M0 0 C-25 12.5, -123 52.67, -150 75 C-177 97.33, -160 124.17, -162 134" stroke="#f08c00" stroke-width="2" fill="none"/></g><g transform="translate(2233 853) rotate(0 -81 67)"><path d="M-175.72 107.32 C-171.73 115.09, -167.74 122.85, -162 134 M-175.72 107.32 C-172.09 114.38, -168.46 121.43, -162 134" stroke="#f08c00" stroke-width="2" fill="none"/></g><g transform="translate(2233 853) rotate(0 -81 67)"><path d="M-155.36 104.74 C-157.29 113.26, -159.23 121.77, -162 134 M-155.36 104.74 C-157.12 112.48, -158.87 120.22, -162 134" stroke="#f08c00" stroke-width="2" fill="none"/></g></g><mask/><g transform="translate(1958.3999999999999 925) rotate(0 54.200000000000045 10)"><text x="54.2" y="0" font-family="Virgil, Segoe UI Emoji" font-size="14px" fill="#1e1e1e" text-anchor="middle" style="white-space: pre;" direction="ltr" dominant-baseline="text-before-edge">range reads</text></g><g stroke-linecap="round"><g transform="translate(2499 852) rotate(0 -190 74)"><path d="M0 0 C-11.5 5.5, -14 16.17, -69 33 C-124 49.83, -278.17 81.83, -330 101 C-381.83 120.17, -371.67 140.17, -380 148 M0 0 C-11.5 5.5, -14 16.17, -69 33 C-124 49.83, -278.17 81.83, -330 101 C-381.83 120.17, -371.67 140.17, -380 148" stroke="#f08c00" stroke-width="2" fill="none"/></g><g transform="translate(2499 852) rotate(0 -190 74)"><path d="M-377.33 118.12 C-378.27 128.62, -379.21 139.13, -380 148 M-377.33 118.12 C-378.32 129.21, -379.31 140.3, -380 148" stroke="#f08c00" stroke-width="2" fill="none"/></g><g transform="translate(2499 852) rotate(0 -190 74)"><path d="M-358.75 126.83 C-366.22 134.27, -373.69 141.71, -380 148 M-358.75 126.83 C-366.64 134.69, -374.52 142.54, -380 148" stroke="#f08c00" stroke-width="2" fill="none"/></g></g><mask/><g transform="translate(2252.8 965) rotate(0 54.200000000000045 10)"><text x="54.2" y="0" font-family="Virgil, Segoe UI Emoji" font-size="14px" fill="#1e1e1e" text-anchor="middle" style="white-space: pre;" direction="ltr" dominant-baseline="text-before-edge">range reads</text></g><g stroke-linecap="round"><g transform="translate(1780 873) rotate(0 -11 62.5)"><path d="M0 0 C-3.67 20.83, -18.33 104.17, -22 125" stroke="#f08c00" stroke-width="2.5" fill="none" stroke-dasharray="8 10"/></g><g transform="translate(1780 873) rotate(0 -11 62.5)"><path d="M-27.22 95.46 C-25.77 103.63, -24.33 111.8, -22 125" stroke="#f08c00" stroke-width="2.5" fill="none"/></g><g transform="translate(1780 873) rotate(0 -11 62.5)"><path d="M-7.01 99.01 C-11.16 106.2, -15.3 113.39, -22 125" stroke="#f08c00" stroke-width="2.5" fill="none"/></g></g><mask/><g transform="translate(1761 925) rotate(0 50 10)"><text x="50" y="0" font-family="Virgil, Segoe UI Emoji" font-size="14px" fill="#1e1e1e" text-anchor="middle" style="white-space: pre;" direction="ltr" dominant-baseline="text-before-edge">spill/read</text></g><g stroke-linecap="round"><g transform="translate(928 406) rotate(0 288.5 300.5)"><path d="M0 0 C-79 53, -395 238.17, -474 318 C-553 397.83, -603.33 442.17, -474 479 C-344.67 515.83, 60.67 527.67, 302 539 C543.33 550.33, 849.17 536.67, 974 547 C1098.83 557.33, 1038.17 592, 1051 601 M0 0 C-79 53, -395 238.17, -474 318 C-553 397.83, -603.33 442.17, -474 479 C-344.67 515.83, 60.67 527.67, 302 539 C543.33 550.33, 849.17 536.67, 974 547 C1098.83 557.33, 1038.17 592, 1051 601" stroke="#f08c00" stroke-width="2" fill="none"/></g><g transform="translate(928 406) rotate(0 288.5 300.5)"><path d="M1043.46 571.96 C1046 581.76, 1048.55 591.55, 1051 601 M1043.46 571.96 C1046.28 582.81, 1049.09 593.66, 1051 601" stroke="#f08c00" stroke-width="2" fill="none"/></g><g transform="translate(928 406) rotate(0 288.5 300.5)"><path d="M1063.89 573.91 C1059.54 583.05, 1055.19 592.19, 1051 601 M1063.89 573.91 C1059.07 584.03, 1054.26 594.15, 1051 601" stroke="#f08c00" stroke-width="2" fill="none"/></g></g><mask/><g transform="translate(483.8 734) rotate(0 54.20000000000002 10)"><text x="54.2" y="0" font-family="Virgil, Segoe UI Emoji" font-size="14px" fill="#1e1e1e" text-anchor="middle" style="white-space: pre;" direction="ltr" dominant-baseline="text-before-edge">read footer</text></g><g stroke-linecap="round"><g transform="translate(899 374) rotate(0 -181.5 337.5)"><path d="M0 0 C-106 15.33, -507.17 38.17, -636 92 C-764.83 145.83, -750.17 281.67, -773 323 C-795.83 364.33, -795.83 298.67, -773 340 C-750.17 381.33, -833.17 515.17, -636 571 C-438.83 626.83, 235.67 657.67, 410 675 M0 0 C-106 15.33, -507.17 38.17, -636 92 C-764.83 145.83, -750.17 281.67, -773 323 C-795.83 364.33, -795.83 298.67, -773 340 C-750.17 381.33, -833.17 515.17, -636 571 C-438.83 626.83, 235.67 657.67, 410 675" stroke="#2f9e44" stroke-width="2" fill="none"/></g><g transform="translate(899 374) rotate(0 -181.5 337.5)"><path d="M381.13 683.16 C391.68 680.18, 402.23 677.2, 410 675 M381.13 683.16 C391.2 680.32, 401.26 677.47, 410 675" stroke="#2f9e44" stroke-width="2" fill="none"/></g><g transform="translate(899 374) rotate(0 -181.5 337.5)"><path d="M382.64 662.7 C392.64 667.19, 402.64 671.69, 410 675 M382.64 662.7 C392.18 666.99, 401.72 671.28, 410 675" stroke="#2f9e44" stroke-width="2" fill="none"/></g></g><mask/><g transform="translate(10 694) rotate(0 50 10)"><text x="50" y="0" font-family="Virgil, Segoe UI Emoji" font-size="14px" fill="#1e1e1e" text-anchor="middle" style="white-space: pre;" direction="ltr" dominant-baseline="text-before-edge">table meta</text></g><g stroke-linecap="round"><g transform="translate(1312 653) rotate(0 48 167)"><path d="M0 0 C16 55.67, 80 278.33, 96 334 M0 0 C16 55.67, 80 278.33, 96 334" stroke="#2f9e44" stroke-width="2" fill="none"/></g><g transform="translate(1312 653) rotate(0 48 167)"><path d="M78.35 309.74 C85.13 319.06, 91.91 328.38, 96 334 M78.35 309.74 C85.35 319.36, 92.34 328.97, 96 334" stroke="#2f9e44" stroke-width="2" fill="none"/></g><g transform="translate(1312 653) rotate(0 48 167)"><path d="M98.07 304.07 C97.28 315.57, 96.48 327.07, 96 334 M98.07 304.07 C97.25 315.93, 96.43 327.79, 96 334" stroke="#2f9e44" stroke-width="2" fill="none"/></g></g><mask/><g transform="translate(1494.3999999999999 809) rotate(0 58.39999999999998 10)"><text x="58.400000000000006" y="0" font-family="Virgil, Segoe UI Emoji" font-size="14px" fill="#1e1e1e" text-anchor="middle" style="white-space: pre;" direction="ltr" dominant-baseline="text-before-edge">footer cache</text></g><g stroke-linecap="round"><g transform="translate(2020 1122) rotate(0 -31 52.5)"><path d="M0 0 C-10.33 17.5, -51.67 87.5, -62 105 M0 0 C-10.33 17.5, -51.67 87.5, -62 105" stroke="#e03131" stroke-width="2" fill="none"/></g><g transform="translate(2020 1122) rotate(0 -31 52.5)"><path d="M-56.5 75.51 C-58.59 86.7, -60.68 97.9, -62 105 M-56.5 75.51 C-58.48 86.14, -60.47 96.78, -62 105" stroke="#e03131" stroke-width="2" fill="none"/></g><g transform="translate(2020 1122) rotate(0 -31 52.5)"><path d="M-38.83 85.94 C-47.63 93.18, -56.42 100.41, -62 105 M-38.83 85.94 C-47.19 92.81, -55.54 99.69, -62 105" stroke="#e03131" stroke-width="2" fill="none"/></g></g><mask/><g stroke-linecap="round"><g transform="translate(2090 1122) rotate(0 30.5 52.5)"><path d="M0 0 C10.17 17.5, 50.83 87.5, 61 105 M0 0 C10.17 17.5, 50.83 87.5, 61 105" stroke="#e03131" stroke-width="2" fill="none"/></g><g transform="translate(2090 1122) rotate(0 30.5 52.5)"><path d="M37.97 85.78 C42.69 89.72, 47.42 93.66, 61 105 M37.97 85.78 C46.96 93.28, 55.95 100.78, 61 105" stroke="#e03131" stroke-width="2" fill="none"/></g><g transform="translate(2090 1122) rotate(0 30.5 52.5)"><path d="M55.71 75.47 C56.8 81.53, 57.88 87.58, 61 105 M55.71 75.47 C57.78 87, 59.84 98.52, 61 105" stroke="#e03131" stroke-width="2" fill="none"/></g></g><mask/><g stroke-linecap="round"><g transform="translate(1979 1104) rotate(0 -123 65.5)"><path d="M0 0 C-12.83 7, -48.33 29.67, -77 42 C-105.67 54.33, -143.83 59.17, -172 74 C-200.17 88.83, -233.67 121.5, -246 131 M0 0 C-12.83 7, -48.33 29.67, -77 42 C-105.67 54.33, -143.83 59.17, -172 74 C-200.17 88.83, -233.67 121.5, -246 131" stroke="#e03131" stroke-width="2" fill="none"/></g><g transform="translate(1979 1104) rotate(0 -123 65.5)"><path d="M-231.18 104.92 C-237.01 115.17, -242.84 125.43, -246 131 M-231.18 104.92 C-235.38 112.31, -239.58 119.7, -246 131" stroke="#e03131" stroke-width="2" fill="none"/></g><g transform="translate(1979 1104) rotate(0 -123 65.5)"><path d="M-217.88 120.55 C-228.94 124.66, -240 128.77, -246 131 M-217.88 120.55 C-225.85 123.51, -233.82 126.47, -246 131" stroke="#e03131" stroke-width="2" fill="none"/></g></g><mask/><g stroke-linecap="round"><g transform="translate(1287 654) rotate(0 20 284.5)"><path d="M0 0 C-5.17 45.67, -25.83 225.5, -31 274 C-36.17 322.5, -33.83 254.67, -31 291 C-28.17 327.33, -31 445.67, -14 492 C3 538.33, 56.83 556.17, 71 569" stroke="#9c36b5" stroke-width="2.5" fill="none" stroke-dasharray="8 10"/></g><g transform="translate(1287 654) rotate(0 20 284.5)"><path d="M41.69 562.6 C51.34 564.71, 61 566.82, 71 569" stroke="#9c36b5" stroke-width="2.5" fill="none"/></g><g transform="translate(1287 654) rotate(0 20 284.5)"><path d="M52.66 545.26 C58.7 553.08, 64.74 560.9, 71 569" stroke="#9c36b5" stroke-width="2.5" fill="none"/></g></g><mask/><g transform="translate(1248.4 925) rotate(0 62.60000000000002 10)"><text x="62.6" y="0" font-family="Virgil, Segoe UI Emoji" font-size="14px" fill="#1e1e1e" text-anchor="middle" style="white-space: pre;" direction="ltr" dominant-baseline="text-before-edge">vector search</text></g><g stroke-opacity="0.6" fill-opacity="0.6" stroke-linecap="round" transform="translate(1141 10) rotate(0 428 96)"><path d="M32 0 C285.22 0, 538.45 0, 824 0 M824 0 C845.33 0, 856 10.67, 856 32 M856 32 C856 77.58, 856 123.16, 856 160 M856 160 C856 181.33, 845.33 192, 824 192 M824 192 C507.81 192, 191.63 192, 32 192 M32 192 C10.67 192, 0 181.33, 0 160 M0 160 C0 132.93, 0 105.86, 0 32 M0 32 C0 10.67, 10.67 0, 32 0" stroke="#868e96" stroke-width="1.5" fill="none" stroke-dasharray="8 9"/></g><g stroke-opacity="0.6" fill-opacity="0.6" transform="translate(1151 15) rotate(0 58.39999999999998 10)"><text x="0" y="0" font-family="Virgil, Segoe UI Emoji" font-size="14px" fill="#868e96" text-anchor="start" style="white-space: pre;" direction="ltr" dominant-baseline="text-before-edge">Client Layer</text></g><g stroke-opacity="0.6" fill-opacity="0.6" stroke-linecap="round" transform="translate(857 250) rotate(0 284 211.5)"><path d="M32 0 C142.73 0, 253.45 0, 536 0 M536 0 C557.33 0, 568 10.67, 568 32 M568 32 C568 123.35, 568 214.69, 568 391 M568 391 C568 412.33, 557.33 423, 536 423 M536 423 C412.66 423, 289.33 423, 32 423 M32 423 C10.67 423, 0 412.33, 0 391 M0 391 C0 311.13, 0 231.26, 0 32 M0 32 C0 10.67, 10.67 0, 32 0" stroke="#868e96" stroke-width="1.5" fill="none" stroke-dasharray="8 9"/></g><g stroke-opacity="0.6" fill-opacity="0.6" transform="translate(867 255) rotate(0 71 10)"><text x="0" y="0" font-family="Virgil, Segoe UI Emoji" font-size="14px" fill="#868e96" text-anchor="start" style="white-space: pre;" direction="ltr" dominant-baseline="text-before-edge">Durable Objects</text></g><g stroke-opacity="0.6" fill-opacity="0.6" stroke-linecap="round" transform="translate(2196 724) rotate(0 368 204.5)"><path d="M32 0 C281.1 0, 530.19 0, 704 0 M704 0 C725.33 0, 736 10.67, 736 32 M736 32 C736 167.42, 736 302.85, 736 377 M736 377 C736 398.33, 725.33 409, 704 409 M704 409 C458.36 409, 212.72 409, 32 409 M32 409 C10.67 409, 0 398.33, 0 377 M0 377 C0 293.66, 0 210.31, 0 32 M0 32 C0 10.67, 10.67 0, 32 0" stroke="#868e96" stroke-width="1.5" fill="none" stroke-dasharray="8 9"/></g><g stroke-opacity="0.6" fill-opacity="0.6" transform="translate(2206 729) rotate(0 134 10)"><text x="0" y="0" font-family="Virgil, Segoe UI Emoji" font-size="14px" fill="#868e96" text-anchor="start" style="white-space: pre;" direction="ltr" dominant-baseline="text-before-edge">Fragment Pool (per-datacenter)</text></g><g stroke-opacity="0.6" fill-opacity="0.6" stroke-linecap="round" transform="translate(1300 953) rotate(0 438 96)"><path d="M32 0 C236.24 0, 440.48 0, 844 0 M844 0 C865.33 0, 876 10.67, 876 32 M876 32 C876 79.59, 876 127.18, 876 160 M876 160 C876 181.33, 865.33 192, 844 192 M844 192 C594.95 192, 345.9 192, 32 192 M32 192 C10.67 192, 0 181.33, 0 160 M0 160 C0 111.21, 0 62.42, 0 32 M0 32 C0 10.67, 10.67 0, 32 0" stroke="#868e96" stroke-width="1.5" fill="none" stroke-dasharray="8 9"/></g><g stroke-opacity="0.6" fill-opacity="0.6" transform="translate(1310 958) rotate(0 37.39999999999998 10)"><text x="0" y="0" font-family="Virgil, Segoe UI Emoji" font-size="14px" fill="#868e96" text-anchor="start" style="white-space: pre;" direction="ltr" dominant-baseline="text-before-edge">Storage</text></g><g stroke-opacity="0.6" fill-opacity="0.6" stroke-linecap="round" transform="translate(1305 1178) rotate(0 482 84)"><path d="M32 0 C220.27 0, 408.53 0, 932 0 M932 0 C953.33 0, 964 10.67, 964 32 M964 32 C964 67.57, 964 103.15, 964 136 M964 136 C964 157.33, 953.33 168, 932 168 M932 168 C620.04 168, 308.08 168, 32 168 M32 168 C10.67 168, 0 157.33, 0 136 M0 136 C0 113.5, 0 91.01, 0 32 M0 32 C0 10.67, 10.67 0, 32 0" stroke="#868e96" stroke-width="1.5" fill="none" stroke-dasharray="8 9"/></g><g stroke-opacity="0.6" fill-opacity="0.6" transform="translate(1315 1183) rotate(0 37.39999999999998 10)"><text x="0" y="0" font-family="Virgil, Segoe UI Emoji" font-size="14px" fill="#868e96" text-anchor="start" style="white-space: pre;" direction="ltr" dominant-baseline="text-before-edge">Formats</text></g></svg>