<svg version="1.1" xmlns="http://www.w3.org/2000/svg" viewBox="0 0 902.6 1515" width="902.6" height="1515">
  <!-- svg-source:excalidraw -->
  
  <defs>
    <style class="style-fonts">
      @font-face {
        font-family: "Virgil";
        src: url("https://unpkg.com/@excalidraw/excalidraw@undefined/dist/excalidraw-assets/Virgil.woff2");
      }
      @font-face {
        font-family: "Cascadia";
        src: url("https://unpkg.com/@excalidraw/excalidraw@undefined/dist/excalidraw-assets/Cascadia.woff2");
      }
      @font-face {
        font-family: "Assistant";
        src: url("https://unpkg.com/@excalidraw/excalidraw@undefined/dist/excalidraw-assets/Assistant-Regular.woff2");
      }
    </style>
    
  </defs>
  <rect x="0" y="0" width="902.6" height="1515" fill="#ffffff"/><g stroke-linecap="round" transform="translate(10 10) rotate(0 90 40)"><path d="M2.85 7.77 C2.85 7.77, 2.85 7.77, 2.85 7.77 M2.85 7.77 C2.85 7.77, 2.85 7.77, 2.85 7.77 M1.01 22.08 C5.06 12.94, 19.65 1.53, 20.04 0.19 M1.01 22.08 C7.84 14.53, 15.62 6.89, 20.04 0.19 M1.14 34.12 C10.44 24.24, 18.83 15.47, 30.67 0.16 M1.14 34.12 C12.83 21.93, 22.14 11.18, 30.67 0.16 M1.28 46.16 C11.01 33.82, 21.12 23.64, 41.3 0.12 M1.28 46.16 C13.46 30.77, 30.08 12.49, 41.3 0.12 M0.75 58.96 C23.05 38.56, 36.07 14.38, 51.93 0.09 M0.75 58.96 C16.15 41.28, 31.67 21.45, 51.93 0.09 M2.86 68.73 C21.85 44.96, 38.8 26.85, 61.9 0.81 M2.86 68.73 C21.41 47.51, 40.77 28.74, 61.9 0.81 M6.93 76.25 C23.29 56.48, 35.44 43.42, 72.53 0.77 M6.93 76.25 C29.65 50.9, 53.8 23.08, 72.53 0.77 M15.59 78.48 C29.46 66.97, 47.08 43.26, 83.16 0.74 M15.59 78.48 C37.59 52.68, 61.02 27.99, 83.16 0.74 M25.56 79.2 C46.49 63.8, 61.58 42.36, 93.79 0.71 M25.56 79.2 C54 47.11, 78.31 16.87, 93.79 0.71 M36.19 79.16 C59.82 52.71, 84.17 24.03, 104.42 0.67 M36.19 79.16 C60.54 50.98, 82.97 22.41, 104.42 0.67 M46.82 79.13 C64.88 53.66, 82.58 32.8, 115.05 0.64 M46.82 79.13 C73.13 51.26, 97.27 20.25, 115.05 0.64 M57.45 79.09 C77.91 51.28, 101.86 27.19, 125.03 1.36 M57.45 79.09 C78.25 54.33, 98.1 29.5, 125.03 1.36 M68.08 79.06 C91.95 52.16, 109.36 34.81, 135.66 1.32 M68.08 79.06 C85.96 62.35, 99.4 43.88, 135.66 1.32 M78.71 79.02 C103.02 47.66, 134.22 18.27, 146.29 1.29 M78.71 79.02 C97.61 58.15, 119.39 37.75, 146.29 1.29 M88.69 79.74 C111.18 52.63, 137.13 19.9, 156.92 1.25 M88.69 79.74 C108.58 54.79, 130.56 28.78, 156.92 1.25 M99.32 79.71 C126.37 51.97, 153.18 19.76, 167.55 1.22 M99.32 79.71 C110.5 63.35, 124.73 47.38, 167.55 1.22 M109.95 79.67 C133.9 52.36, 157.39 30.07, 174.9 4.96 M109.95 79.67 C131.74 50.58, 159.62 22.66, 174.9 4.96 M120.58 79.64 C138.99 54.77, 163.18 31.98, 178.97 12.47 M120.58 79.64 C133.11 66.3, 145.69 50.93, 178.97 12.47 M131.21 79.61 C153.02 58.48, 168.33 32.83, 179.75 23.76 M131.21 79.61 C149.64 57.56, 171.37 35.82, 179.75 23.76 M141.84 79.57 C154.35 62.15, 169.63 43.22, 179.89 35.8 M141.84 79.57 C151.38 66.87, 158.14 59.68, 179.89 35.8 M151.81 80.29 C159.95 70.63, 168.17 61.42, 179.36 48.59 M151.81 80.29 C157.02 71.7, 166.8 62.17, 179.36 48.59 M163.1 79.5 C170.49 70.89, 175.9 68.12, 179.5 60.63 M163.1 79.5 C171 71.45, 176.39 63.38, 179.5 60.63" stroke="#a5d8ff" stroke-width="1" fill="none"/><path d="M20 0 C69.97 -2.36, 109.57 -5.58, 160 0 M20 0 C73.04 3.19, 127.45 0.86, 160 0 M160 0 C172.74 -1.33, 177.33 6.46, 180 20 M160 0 C170.03 -0.1, 182.79 7.22, 180 20 M180 20 C177.26 34.9, 176.97 41.34, 180 60 M180 20 C178.24 29.86, 178.83 36.5, 180 60 M180 60 C179.17 72.4, 174.55 83.16, 160 80 M180 60 C179.25 75.49, 175.37 75.97, 160 80 M160 80 C129.82 79.56, 97.64 81.61, 20 80 M160 80 C105.38 77.96, 50.73 77.25, 20 80 M20 80 C5.93 81.32, -3.72 71.97, 0 60 M20 80 C9.87 83.63, 1.55 75.86, 0 60 M0 60 C-3.98 48.28, 2.32 34.07, 0 20 M0 60 C-0.97 46.31, -0.92 32.92, 0 20 M0 20 C3.57 7.42, 4.46 3.53, 20 0 M0 20 C-3.01 11.02, 7.77 1.26, 20 0" stroke="#1971c2" stroke-width="2" fill="none"/></g><g transform="translate(20 40) rotate(0 80 10)"><text x="80" y="0" font-family="Virgil, Segoe UI Emoji" font-size="16px" fill="#1971c2" text-anchor="middle" style="white-space: pre;" direction="ltr" dominant-baseline="text-before-edge">Client SDK</text></g><g stroke-linecap="round" transform="translate(298 10) rotate(0 90 40)"><path d="M2.85 7.77 C2.85 7.77, 2.85 7.77, 2.85 7.77 M2.85 7.77 C2.85 7.77, 2.85 7.77, 2.85 7.77 M1.01 22.08 C7.49 14.76, 10.23 13.63, 20.04 0.19 M1.01 22.08 C4.09 18.64, 9.79 11.17, 20.04 0.19 M1.14 34.12 C12.94 24.6, 18.13 10.81, 30.67 0.16 M1.14 34.12 C13.04 20.73, 20.23 8.84, 30.67 0.16 M1.28 46.16 C12.98 32.84, 23.94 17.95, 41.3 0.12 M1.28 46.16 C12.79 31.81, 23.3 23.03, 41.3 0.12 M0.75 58.96 C14.75 36.02, 36.93 22.3, 51.93 0.09 M0.75 58.96 C14.44 41.83, 32.89 21.31, 51.93 0.09 M2.86 68.73 C19.44 48.58, 43.67 27.38, 61.9 0.81 M2.86 68.73 C19.02 48.19, 37.5 28.52, 61.9 0.81 M6.93 76.25 C30.56 54.39, 48.83 29.3, 72.53 0.77 M6.93 76.25 C25.14 56.24, 41.15 36, 72.53 0.77 M15.59 78.48 C32.39 56.18, 51.98 41.37, 83.16 0.74 M15.59 78.48 C36.98 51.57, 61.34 26.3, 83.16 0.74 M25.56 79.2 C41.63 59.92, 63.63 36.15, 93.79 0.71 M25.56 79.2 C50.93 50.05, 72.87 20.68, 93.79 0.71 M36.19 79.16 C59.07 57.3, 75.75 36.4, 104.42 0.67 M36.19 79.16 C57.79 51.68, 79.56 27.22, 104.42 0.67 M46.82 79.13 C67.41 56.97, 81.02 30.73, 115.05 0.64 M46.82 79.13 C73.78 47.12, 101.1 15.84, 115.05 0.64 M57.45 79.09 C71.7 52.82, 96.79 33.36, 125.03 1.36 M57.45 79.09 C75.4 57.11, 95.55 35.9, 125.03 1.36 M68.08 79.06 C82.6 59.21, 97.53 41.98, 135.66 1.32 M68.08 79.06 C97.04 46.24, 122.03 16.91, 135.66 1.32 M78.71 79.02 C98.54 60.98, 116.42 33.52, 146.29 1.29 M78.71 79.02 C103.86 52.46, 124.94 22.85, 146.29 1.29 M88.69 79.74 C107.66 60.97, 123.77 36.97, 156.92 1.25 M88.69 79.74 C109.08 53.26, 129.5 30.09, 156.92 1.25 M99.32 79.71 C120.26 48.61, 150.24 28.32, 167.55 1.22 M99.32 79.71 C123.31 51.28, 142.72 27.31, 167.55 1.22 M109.95 79.67 C124.48 59.97, 144.54 40.6, 174.9 4.96 M109.95 79.67 C123.9 64.39, 135.95 46.7, 174.9 4.96 M120.58 79.64 C144.27 52.46, 166.55 28.16, 178.97 12.47 M120.58 79.64 C137.65 59.78, 158.9 38.3, 178.97 12.47 M131.21 79.61 C143.8 59.82, 164.26 42.96, 179.75 23.76 M131.21 79.61 C143.33 63.87, 157.58 44.76, 179.75 23.76 M141.84 79.57 C154.17 66.98, 163.7 57.55, 179.89 35.8 M141.84 79.57 C154.35 63.46, 170.2 49.51, 179.89 35.8 M151.81 80.29 C164.24 67.16, 174.57 54.28, 179.36 48.59 M151.81 80.29 C156.56 71.88, 162.02 66.27, 179.36 48.59 M163.1 79.5 C165.7 70.45, 168.53 69.65, 179.5 60.63 M163.1 79.5 C167.88 74.92, 174.4 68.5, 179.5 60.63" stroke="#a5d8ff" stroke-width="1" fill="none"/><path d="M20 0 C48.24 2.91, 84.39 -1.39, 160 0 M20 0 C59.89 0.27, 103.01 3.7, 160 0 M160 0 C170.06 -0.62, 181.95 10.06, 180 20 M160 0 C170.11 -2.99, 183.33 10.44, 180 20 M180 20 C181.08 31.78, 177.04 41.75, 180 60 M180 20 C180.65 30.8, 178.53 38.95, 180 60 M180 60 C176.67 76.2, 174.49 78.7, 160 80 M180 60 C177.71 68.98, 174.16 84.05, 160 80 M160 80 C106.25 75.57, 47.99 76.03, 20 80 M160 80 C106.14 76.53, 49.73 75.75, 20 80 M20 80 C9.51 79.85, -1.9 75.76, 0 60 M20 80 C9.27 82.98, -0.01 76.36, 0 60 M0 60 C2.28 47.65, -0.73 33.88, 0 20 M0 60 C-0.63 48.49, 0.82 35.46, 0 20 M0 20 C-3.36 10.31, 9.76 3.78, 20 0 M0 20 C-3.98 7.03, 10.04 1.77, 20 0" stroke="#1971c2" stroke-width="2" fill="none"/></g><g transform="translate(308 40) rotate(0 80 10)"><text x="80" y="0" font-family="Virgil, Segoe UI Emoji" font-size="16px" fill="#1971c2" text-anchor="middle" style="white-space: pre;" direction="ltr" dominant-baseline="text-before-edge">SQL Frontend</text></g><g stroke-linecap="round" transform="translate(154 193) rotate(0 90 40)"><path d="M2.85 7.77 C2.85 7.77, 2.85 7.77, 2.85 7.77 M2.85 7.77 C2.85 7.77, 2.85 7.77, 2.85 7.77 M1.01 22.08 C6.09 17.34, 8.58 9.47, 20.04 0.19 M1.01 22.08 C7.78 15.19, 14.54 8.55, 20.04 0.19 M1.14 34.12 C12.74 26.46, 16.29 13.48, 30.67 0.16 M1.14 34.12 C11.43 21.58, 17.02 13.8, 30.67 0.16 M1.28 46.16 C13.58 27.3, 26.59 17.54, 41.3 0.12 M1.28 46.16 C16.7 27.22, 31.08 12.25, 41.3 0.12 M0.75 58.96 C9.46 48.65, 22.19 28.43, 51.93 0.09 M0.75 58.96 C13.97 42.17, 29 24.36, 51.93 0.09 M2.86 68.73 C23.36 48.53, 38.64 27.57, 61.9 0.81 M2.86 68.73 C19.27 49.27, 37.7 31.5, 61.9 0.81 M6.93 76.25 C29.07 47.11, 60.24 15.97, 72.53 0.77 M6.93 76.25 C28.75 51.22, 51.83 28.83, 72.53 0.77 M15.59 78.48 C44 53.49, 61.48 21.27, 83.16 0.74 M15.59 78.48 C32.93 61.51, 45.75 42.8, 83.16 0.74 M25.56 79.2 C50.41 45.05, 79.81 18.03, 93.79 0.71 M25.56 79.2 C42.63 60.5, 60.21 39.81, 93.79 0.71 M36.19 79.16 C62.5 47.24, 88.35 16.32, 104.42 0.67 M36.19 79.16 C59.33 51.14, 84.13 26.96, 104.42 0.67 M46.82 79.13 C68.78 59.15, 86.39 34.81, 115.05 0.64 M46.82 79.13 C67.78 58.32, 83.9 36.83, 115.05 0.64 M57.45 79.09 C81.55 44.69, 107.03 19.8, 125.03 1.36 M57.45 79.09 C82.31 50.4, 111.22 19.44, 125.03 1.36 M68.08 79.06 C93.87 52.63, 124.04 17.21, 135.66 1.32 M68.08 79.06 C87.63 54.49, 108.79 34.91, 135.66 1.32 M78.71 79.02 C97.54 58.96, 113.37 41.27, 146.29 1.29 M78.71 79.02 C101.71 51.4, 127.66 21.97, 146.29 1.29 M88.69 79.74 C104.17 56.82, 124.04 34.45, 156.92 1.25 M88.69 79.74 C115.38 48.96, 140.28 20.02, 156.92 1.25 M99.32 79.71 C116.89 59.74, 134.02 44.58, 167.55 1.22 M99.32 79.71 C118 57.74, 138.17 37.01, 167.55 1.22 M109.95 79.67 C121.49 64.37, 142.33 44.36, 174.9 4.96 M109.95 79.67 C131.06 49.76, 154.76 24.99, 174.9 4.96 M120.58 79.64 C138.36 54.44, 162.45 37.83, 178.97 12.47 M120.58 79.64 C136.83 62.47, 155.33 44.78, 178.97 12.47 M131.21 79.61 C144.65 60.55, 161.73 50.25, 179.75 23.76 M131.21 79.61 C151.68 57.16, 170.96 34.39, 179.75 23.76 M141.84 79.57 C159.95 66.1, 174.36 45.94, 179.89 35.8 M141.84 79.57 C148.86 67.82, 156.32 60.93, 179.89 35.8 M151.81 80.29 C154.54 71.45, 162.45 66.21, 179.36 48.59 M151.81 80.29 C161.55 67.99, 170.24 59.25, 179.36 48.59 M163.1 79.5 C166.33 77.39, 168.49 71.21, 179.5 60.63 M163.1 79.5 C168.26 73.56, 173.82 68.31, 179.5 60.63" stroke="#d0bfff" stroke-width="1" fill="none"/><path d="M20 0 C57.6 4.3, 104.45 0.07, 160 0 M20 0 C65.2 -3.13, 106.74 -2.15, 160 0 M160 0 C177.3 -2.13, 183.93 5.84, 180 20 M160 0 C168.81 0.02, 183.43 3.99, 180 20 M180 20 C178.3 34.58, 179.41 40.08, 180 60 M180 20 C182.12 31.9, 178.49 47.18, 180 60 M180 60 C183.59 75.61, 169.77 79.78, 160 80 M180 60 C181.68 75.38, 175.33 78.07, 160 80 M160 80 C129.13 77.38, 95.99 78.01, 20 80 M160 80 C110.31 78.62, 63.33 76.65, 20 80 M20 80 C10.2 81.34, 1.86 71.1, 0 60 M20 80 C6.52 82.17, -2.78 68.81, 0 60 M0 60 C-0.72 54.16, 1.22 44.2, 0 20 M0 60 C1.61 43.66, -1.69 31.16, 0 20 M0 20 C-3.36 5.66, 9.55 -1.53, 20 0 M0 20 C1.5 8.52, 8.23 -1.63, 20 0" stroke="#7048e8" stroke-width="2" fill="none"/></g><g transform="translate(164 223) rotate(0 80 10)"><text x="80" y="0" font-family="Virgil, Segoe UI Emoji" font-size="16px" fill="#7048e8" text-anchor="middle" style="white-space: pre;" direction="ltr" dominant-baseline="text-before-edge">CF Worker</text></g><g stroke-linecap="round" transform="translate(64 376) rotate(0 90 40)"><path d="M2.85 7.77 C2.85 7.77, 2.85 7.77, 2.85 7.77 M2.85 7.77 C2.85 7.77, 2.85 7.77, 2.85 7.77 M4.29 18.31 C7.61 11.95, 15.15 7.61, 20.04 0.19 M4.29 18.31 C7.79 14.01, 15.75 6.29, 20.04 0.19 M3.77 31.1 C15.55 18.57, 21.18 14.67, 30.67 0.16 M3.77 31.1 C11.11 22.83, 16 15.55, 30.67 0.16 M3.9 43.14 C14.68 29.04, 28.78 18.33, 41.3 0.12 M3.9 43.14 C12.95 33.74, 19.03 25.14, 41.3 0.12 M4.03 55.18 C19.92 38.6, 29.67 23.16, 51.93 0.09 M4.03 55.18 C22.08 31.84, 40.23 13.08, 51.93 0.09 M3.51 67.98 C25.92 50.18, 45.83 22.01, 61.9 0.81 M3.51 67.98 C17.24 48.13, 35.71 33.25, 61.9 0.81 M6.93 76.25 C25.13 51.78, 52.09 24.31, 72.53 0.77 M6.93 76.25 C29.76 50.57, 52 27.98, 72.53 0.77 M13.62 80.74 C39.55 54.39, 66.11 22.74, 83.16 0.74 M13.62 80.74 C37.47 51.55, 59.86 23.13, 83.16 0.74 M24.25 80.7 C43.97 57.9, 60.52 39.45, 93.79 0.71 M24.25 80.7 C45.71 57.9, 68.19 31.68, 93.79 0.71 M34.88 80.67 C63.41 46.23, 84.91 16.08, 104.42 0.67 M34.88 80.67 C48.53 64.3, 62.34 45.14, 104.42 0.67 M44.85 81.39 C64.15 65.52, 73.79 46.04, 115.05 0.64 M44.85 81.39 C61.7 61.5, 77.24 42.37, 115.05 0.64 M55.48 81.36 C75.52 62.17, 86.93 42.9, 125.03 1.36 M55.48 81.36 C70.19 62.57, 88.53 44.37, 125.03 1.36 M66.11 81.32 C86.37 63.44, 96.91 46.27, 135.66 1.32 M66.11 81.32 C89.06 54.13, 107.98 32.6, 135.66 1.32 M76.74 81.29 C101.89 52.66, 130.87 17.76, 146.29 1.29 M76.74 81.29 C93.18 63.66, 113.01 43.1, 146.29 1.29 M87.37 81.25 C111.52 51.62, 138.54 25.47, 156.92 1.25 M87.37 81.25 C106.58 57.11, 127.58 36.31, 156.92 1.25 M98 81.22 C118.46 63.36, 129.83 41.96, 167.55 1.22 M98 81.22 C121.03 57.13, 140.14 32.32, 167.55 1.22 M107.98 81.94 C130.38 60.94, 147.76 37.19, 174.24 5.71 M107.98 81.94 C123.25 64.4, 137.06 50.15, 174.24 5.71 M118.61 81.9 C143.73 54.83, 164.13 26.22, 180.93 10.21 M118.61 81.9 C137.91 60.28, 157.67 34.02, 180.93 10.21 M129.24 81.87 C143.79 61.58, 162.97 46.37, 183.69 19.23 M129.24 81.87 C149.54 59.7, 168.97 36.29, 183.69 19.23 M139.87 81.83 C150.73 70.83, 161.45 59.02, 183.82 31.27 M139.87 81.83 C151.01 66.43, 165.57 52.18, 183.82 31.27 M150.5 81.8 C161.47 64.29, 179.7 55.94, 183.3 44.06 M150.5 81.8 C160.69 68.76, 170.92 55.54, 183.3 44.06 M161.78 81.01 C172.41 73.35, 181.09 57.77, 183.43 56.11 M161.78 81.01 C168.02 73.76, 178.52 63.37, 183.43 56.11" stroke="#ffa8a8" stroke-width="1" fill="none"/><path d="M20 0 C53.51 2.4, 89.66 0.46, 160 0 M20 0 C76.42 1.87, 131.49 0.15, 160 0 M160 0 C176.33 -3.06, 177.55 7.63, 180 20 M160 0 C170.49 -3.54, 177.65 3.54, 180 20 M180 20 C176.08 38.78, 178.44 52.91, 180 60 M180 20 C178.17 34.58, 178.43 49.6, 180 60 M180 60 C183.82 72.1, 174.89 78.08, 160 80 M180 60 C180.61 71.41, 176.18 82.93, 160 80 M160 80 C132.61 74.32, 99.22 77.15, 20 80 M160 80 C112.5 83.72, 62.06 80.5, 20 80 M20 80 C9.47 77.7, -2.07 69.37, 0 60 M20 80 C9.37 82.1, 1.15 73.53, 0 60 M0 60 C2.92 51.39, -2.76 34.07, 0 20 M0 60 C-0.2 47.38, 2.1 32.53, 0 20 M0 20 C3.66 6.36, 7.12 1.94, 20 0 M0 20 C0.4 9.2, 11.22 -1.04, 20 0" stroke="#c92a2a" stroke-width="2" fill="none"/></g><g transform="translate(74 406) rotate(0 80 10)"><text x="80" y="0" font-family="Virgil, Segoe UI Emoji" font-size="16px" fill="#c92a2a" text-anchor="middle" style="white-space: pre;" direction="ltr" dominant-baseline="text-before-edge">MasterDO</text></g><g stroke-linecap="round" transform="translate(352 376) rotate(0 90 40)"><path d="M2.85 7.77 C2.85 7.77, 2.85 7.77, 2.85 7.77 M2.85 7.77 C2.85 7.77, 2.85 7.77, 2.85 7.77 M4.29 18.31 C12.82 11.47, 12.12 5.89, 20.04 0.19 M4.29 18.31 C8.14 12.41, 13.5 8.82, 20.04 0.19 M3.77 31.1 C15.87 20.37, 24.03 13.39, 30.67 0.16 M3.77 31.1 C12.41 17.67, 23.84 6.8, 30.67 0.16 M3.9 43.14 C13.45 29.6, 29.46 11.55, 41.3 0.12 M3.9 43.14 C15.43 27.78, 31.47 14.55, 41.3 0.12 M4.03 55.18 C13.43 42.46, 26.81 28.68, 51.93 0.09 M4.03 55.18 C16.96 40.59, 31.73 25.96, 51.93 0.09 M3.51 67.98 C19.72 42, 44.21 22.42, 61.9 0.81 M3.51 67.98 C20.46 47.03, 35.5 30.5, 61.9 0.81 M6.93 76.25 C27.19 51.54, 56.24 18.14, 72.53 0.77 M6.93 76.25 C22.86 60.21, 39.12 41.31, 72.53 0.77 M13.62 80.74 C43.19 49.95, 67.75 17.15, 83.16 0.74 M13.62 80.74 C27.76 60.31, 46.04 42.57, 83.16 0.74 M24.25 80.7 C43.93 57.05, 63.59 31.07, 93.79 0.71 M24.25 80.7 C40.96 60.25, 60.38 41.28, 93.79 0.71 M34.88 80.67 C53.87 63.14, 71.92 46.1, 104.42 0.67 M34.88 80.67 C53.27 61.19, 70.32 40.04, 104.42 0.67 M44.85 81.39 C69.78 55.24, 93.48 22.27, 115.05 0.64 M44.85 81.39 C60.9 58.94, 79.57 41.37, 115.05 0.64 M55.48 81.36 C78.94 52.46, 101.34 26.26, 125.03 1.36 M55.48 81.36 C84.61 50.39, 108.2 22.14, 125.03 1.36 M66.11 81.32 C90.06 60.4, 107.53 32.88, 135.66 1.32 M66.11 81.32 C91.01 53.7, 114.3 24.2, 135.66 1.32 M76.74 81.29 C100.49 59.06, 119.29 29.38, 146.29 1.29 M76.74 81.29 C99.27 51.28, 128.21 23.51, 146.29 1.29 M87.37 81.25 C113.98 56.02, 137.87 21.08, 156.92 1.25 M87.37 81.25 C111.08 54.92, 132.18 30.49, 156.92 1.25 M98 81.22 C123.2 54.42, 147.8 25.37, 167.55 1.22 M98 81.22 C123.41 52.44, 150.25 21.2, 167.55 1.22 M107.98 81.94 C127 62.55, 145.2 43.98, 174.24 5.71 M107.98 81.94 C126.03 59.6, 143.68 38.46, 174.24 5.71 M118.61 81.9 C132.47 63.93, 149.11 40.21, 180.93 10.21 M118.61 81.9 C132.77 66.22, 144.23 50.98, 180.93 10.21 M129.24 81.87 C151.35 59.01, 169.32 35.66, 183.69 19.23 M129.24 81.87 C149.43 59.82, 168.54 36.49, 183.69 19.23 M139.87 81.83 C152.35 69.97, 163.4 55.5, 183.82 31.27 M139.87 81.83 C156.9 61.33, 175.04 42.05, 183.82 31.27 M150.5 81.8 C154.16 76.62, 164.02 61.84, 183.3 44.06 M150.5 81.8 C162.64 69.66, 171.45 57.73, 183.3 44.06 M161.78 81.01 C170.85 73.33, 172.9 62.44, 183.43 56.11 M161.78 81.01 C171.55 72.2, 180.88 62.05, 183.43 56.11" stroke="#ffa8a8" stroke-width="1" fill="none"/><path d="M20 0 C65.72 -0.94, 107.05 1.17, 160 0 M20 0 C69.62 -0.89, 121.39 -0.5, 160 0 M160 0 C170.75 -3.43, 182.9 10.6, 180 20 M160 0 C172.76 1.09, 177.61 6.09, 180 20 M180 20 C180.07 26.69, 178.56 41.95, 180 60 M180 20 C180.39 32.98, 179.23 42.32, 180 60 M180 60 C183.1 72.55, 171.22 80.97, 160 80 M180 60 C178.3 76.89, 171.8 80.38, 160 80 M160 80 C127.38 80.33, 90.63 83.87, 20 80 M160 80 C111.02 82.05, 65.92 79.03, 20 80 M20 80 C5.52 82.94, 2.46 74.47, 0 60 M20 80 C5.29 80.23, -0.44 74.03, 0 60 M0 60 C1.34 42.07, 1.11 30.69, 0 20 M0 60 C-2.24 47.3, 1.11 32.72, 0 20 M0 20 C-0.62 9.49, 3.56 -2.74, 20 0 M0 20 C0.62 4.92, 5.82 -0.5, 20 0" stroke="#c92a2a" stroke-width="2" fill="none"/></g><g transform="translate(362 406) rotate(0 80 10)"><text x="80" y="0" font-family="Virgil, Segoe UI Emoji" font-size="16px" fill="#c92a2a" text-anchor="middle" style="white-space: pre;" direction="ltr" dominant-baseline="text-before-edge">QueryDO</text></g><g stroke-linecap="round" transform="translate(236 559) rotate(0 90 40)"><path d="M2.85 7.77 C2.85 7.77, 2.85 7.77, 2.85 7.77 M2.85 7.77 C2.85 7.77, 2.85 7.77, 2.85 7.77 M1.01 22.08 C4.64 12.92, 15.38 7.57, 20.04 0.19 M1.01 22.08 C5.6 17.02, 12.14 9.22, 20.04 0.19 M1.14 34.12 C13.06 23.88, 19.77 13.62, 30.67 0.16 M1.14 34.12 C12.85 23.79, 23.52 8.34, 30.67 0.16 M1.28 46.16 C13.01 31.59, 20.55 17.57, 41.3 0.12 M1.28 46.16 C11.07 35.63, 19.94 25.63, 41.3 0.12 M0.75 58.96 C17.77 40.45, 39.85 12.32, 51.93 0.09 M0.75 58.96 C15.57 44.84, 24.86 29.56, 51.93 0.09 M2.86 68.73 C21.1 43.94, 45.01 22.16, 61.9 0.81 M2.86 68.73 C24.42 42.72, 46.95 20.23, 61.9 0.81 M6.93 76.25 C23.38 51.7, 45.34 29.41, 72.53 0.77 M6.93 76.25 C20.85 61.73, 32.6 44.08, 72.53 0.77 M15.59 78.48 C37.13 58.89, 53.37 31.06, 83.16 0.74 M15.59 78.48 C41.82 50.54, 63.77 23.54, 83.16 0.74 M25.56 79.2 C48.36 50.89, 68.49 29.44, 93.79 0.71 M25.56 79.2 C40.9 61.89, 58.44 42.17, 93.79 0.71 M36.19 79.16 C52.06 62.83, 74.79 42.31, 104.42 0.67 M36.19 79.16 C56.04 58.12, 74.75 37.47, 104.42 0.67 M46.82 79.13 C55.26 60.56, 70.4 49.5, 115.05 0.64 M46.82 79.13 C65.11 57.07, 83.53 34.37, 115.05 0.64 M57.45 79.09 C82.07 54.02, 96.47 28.89, 125.03 1.36 M57.45 79.09 C75.62 59.06, 92.76 36.1, 125.03 1.36 M68.08 79.06 C92.17 55.06, 111.15 26.87, 135.66 1.32 M68.08 79.06 C88.82 57.64, 110.26 34.94, 135.66 1.32 M78.71 79.02 C100.24 52.35, 120.32 34.34, 146.29 1.29 M78.71 79.02 C102.72 52.29, 125.01 27.52, 146.29 1.29 M88.69 79.74 C110.49 57.18, 131.66 33.28, 156.92 1.25 M88.69 79.74 C102.69 62.77, 117.95 45.44, 156.92 1.25 M99.32 79.71 C112.74 58.12, 131.61 42.83, 167.55 1.22 M99.32 79.71 C125.48 49, 154.82 19.15, 167.55 1.22 M109.95 79.67 C126.16 56.61, 146.52 37.87, 174.9 4.96 M109.95 79.67 C135.14 50.78, 161.89 20.71, 174.9 4.96 M120.58 79.64 C136.26 58.35, 153.73 36.46, 178.97 12.47 M120.58 79.64 C132.5 63.92, 149.59 47.85, 178.97 12.47 M131.21 79.61 C147.22 64.72, 156.55 54.83, 179.75 23.76 M131.21 79.61 C148.28 62.44, 161.5 43.93, 179.75 23.76 M141.84 79.57 C154.45 59.83, 173.25 47.26, 179.89 35.8 M141.84 79.57 C155.93 61.8, 168.58 49.29, 179.89 35.8 M151.81 80.29 C160.11 72.88, 162.5 63.39, 179.36 48.59 M151.81 80.29 C160.38 70.56, 168.51 61.47, 179.36 48.59 M163.1 79.5 C167.61 71.77, 178.86 67.38, 179.5 60.63 M163.1 79.5 C169 73.69, 175.26 65.91, 179.5 60.63" stroke="#ffa8a8" stroke-width="1" fill="none"/><path d="M20 0 C51 -1.09, 89.59 -2.71, 160 0 M20 0 C71.54 -4, 119.31 -0.35, 160 0 M160 0 C173.78 -0.21, 181.89 2.88, 180 20 M160 0 C169.65 4.27, 179.7 2.16, 180 20 M180 20 C180.85 31.76, 176.31 44.97, 180 60 M180 20 C180.83 28.12, 181.56 40.98, 180 60 M180 60 C179.67 73.24, 171.69 83.75, 160 80 M180 60 C178.46 69.64, 172.93 79.1, 160 80 M160 80 C118.84 80.2, 82.88 84.23, 20 80 M160 80 C113.22 76.6, 71.37 77.58, 20 80 M20 80 C3.52 81.34, -1.18 71.14, 0 60 M20 80 C4.05 77.79, 4.46 70.98, 0 60 M0 60 C3.46 43.35, 1.72 29.68, 0 20 M0 60 C-0.88 50.07, -0.03 36.33, 0 20 M0 20 C-1.78 3.76, 10.23 1.25, 20 0 M0 20 C2.98 8.96, 10.78 -4.57, 20 0" stroke="#c92a2a" stroke-width="2" fill="none"/></g><g transform="translate(246 589) rotate(0 80 10)"><text x="80" y="0" font-family="Virgil, Segoe UI Emoji" font-size="16px" fill="#c92a2a" text-anchor="middle" style="white-space: pre;" direction="ltr" dominant-baseline="text-before-edge">FragmentDO</text></g><g stroke-linecap="round" transform="translate(524 559) rotate(0 92 40)"><path d="M2.85 7.77 C2.85 7.77, 2.85 7.77, 2.85 7.77 M2.85 7.77 C2.85 7.77, 2.85 7.77, 2.85 7.77 M1.01 22.08 C4.99 14.77, 6.76 9.84, 20.04 0.19 M1.01 22.08 C8.07 16.24, 16.18 6.78, 20.04 0.19 M1.14 34.12 C7.36 24.94, 18.43 11.36, 30.67 0.16 M1.14 34.12 C10.42 22.59, 20.9 11.27, 30.67 0.16 M1.28 46.16 C18.69 32.24, 24.96 16.42, 41.3 0.12 M1.28 46.16 C11.89 34.68, 22.97 21.3, 41.3 0.12 M0.75 58.96 C20.11 37.89, 39.33 15.71, 51.93 0.09 M0.75 58.96 C14.06 42.76, 26.58 28.21, 51.93 0.09 M2.86 68.73 C22.36 49.29, 39.28 28.21, 61.9 0.81 M2.86 68.73 C20.56 46.11, 39.94 20.54, 61.9 0.81 M6.93 76.25 C30.62 50.74, 62.05 18.06, 72.53 0.77 M6.93 76.25 C31.36 48.35, 53.17 20.86, 72.53 0.77 M15.59 78.48 C31.45 57.45, 53.78 37.54, 83.16 0.74 M15.59 78.48 C38.44 55.29, 56.96 31.09, 83.16 0.74 M25.56 79.2 C40.24 57.6, 57.68 42.12, 93.79 0.71 M25.56 79.2 C46.62 54.03, 71.76 29.3, 93.79 0.71 M36.19 79.16 C51.61 64.15, 71.93 42.64, 104.42 0.67 M36.19 79.16 C63.41 50.96, 87.52 21.8, 104.42 0.67 M46.82 79.13 C66.71 55.5, 92.33 28.29, 115.05 0.64 M46.82 79.13 C72.51 53.6, 94.26 23.14, 115.05 0.64 M57.45 79.09 C83.5 49.89, 99.26 22.11, 125.68 0.6 M57.45 79.09 C78.36 55.79, 100.86 28.25, 125.68 0.6 M68.08 79.06 C97.22 44.31, 119.43 18.09, 135.66 1.32 M68.08 79.06 C79.31 63.52, 93.77 48.22, 135.66 1.32 M78.71 79.02 C97.7 58.26, 121.51 36.39, 146.29 1.29 M78.71 79.02 C105.49 46.47, 132.87 16.85, 146.29 1.29 M88.69 79.74 C112.65 50.79, 138.55 16.92, 156.92 1.25 M88.69 79.74 C106.2 58.2, 126.3 35.12, 156.92 1.25 M99.32 79.71 C121.74 49.35, 150.89 23.29, 167.55 1.22 M99.32 79.71 C122.37 54.97, 146.95 25.03, 167.55 1.22 M109.95 79.67 C127.8 55.51, 155.8 35.41, 176.21 3.45 M109.95 79.67 C132.06 51.64, 152.95 27.95, 176.21 3.45 M120.58 79.64 C141.07 58.24, 158.56 31.84, 181.59 9.45 M120.58 79.64 C135.71 65.98, 148.77 48.17, 181.59 9.45 M131.21 79.61 C151.64 54.64, 173.56 31.47, 184.35 18.47 M131.21 79.61 C142.18 67.18, 154.4 53.81, 184.35 18.47 M141.84 79.57 C155.95 66.8, 167.95 48.54, 183.82 31.27 M141.84 79.57 C151.47 64.57, 163.85 51.2, 183.82 31.27 M151.81 80.29 C158.94 70.74, 167 58.82, 183.3 44.06 M151.81 80.29 C161.87 68.36, 170.37 56.14, 183.3 44.06 M162.44 80.26 C170.36 67.72, 174.56 62.93, 183.43 56.11 M162.44 80.26 C168.96 73.81, 177.89 65.72, 183.43 56.11 M174.38 78.71 C178.94 74.92, 180.27 75.06, 182.91 68.9 M174.38 78.71 C175.36 74.71, 178.32 72.27, 182.91 68.9" stroke="#e599f7" stroke-width="1" fill="none"/><path d="M20 0 C57.99 3.27, 103.86 3.79, 164 0 M20 0 C57.68 0.48, 99.34 2.05, 164 0 M164 0 C180.48 2.24, 187.29 9.43, 184 20 M164 0 C175.24 -2.32, 180.21 5.27, 184 20 M184 20 C181.19 38.55, 184.84 49.68, 184 60 M184 20 C183.37 29.86, 181.94 40.65, 184 60 M184 60 C187.41 70.14, 176.31 78.07, 164 80 M184 60 C183.18 76.94, 177.31 81.44, 164 80 M164 80 C117.96 81.24, 79.81 81.1, 20 80 M164 80 C129.53 80.06, 96.19 82.38, 20 80 M20 80 C10.13 77.08, -1.2 75.96, 0 60 M20 80 C8.34 80.97, -1.05 71.18, 0 60 M0 60 C3.6 53.27, 2.04 37.38, 0 20 M0 60 C1.32 50.51, -1.16 41.53, 0 20 M0 20 C-2.45 10.63, 2.86 -1.77, 20 0 M0 20 C-1.08 2.18, 5.61 4.39, 20 0" stroke="#9c36b5" stroke-width="2" fill="none"/></g><g transform="translate(534 589) rotate(0 82 10)"><text x="82" y="0" font-family="Virgil, Segoe UI Emoji" font-size="16px" fill="#9c36b5" text-anchor="middle" style="white-space: pre;" direction="ltr" dominant-baseline="text-before-edge">Zig WASM Engine</text></g><g stroke-linecap="round" transform="translate(526 741) rotate(0 90 40)"><path d="M2.85 7.77 C2.85 7.77, 2.85 7.77, 2.85 7.77 M2.85 7.77 C2.85 7.77, 2.85 7.77, 2.85 7.77 M1.01 22.08 C9.17 17.41, 15.45 5.23, 20.04 0.19 M1.01 22.08 C9.28 13.08, 15.35 9.29, 20.04 0.19 M1.14 34.12 C10.68 25.02, 19.03 11.28, 30.67 0.16 M1.14 34.12 C9.01 22.96, 17.09 14.33, 30.67 0.16 M1.28 46.16 C15.41 29.99, 26.17 14.97, 41.3 0.12 M1.28 46.16 C12.09 35.5, 21.22 25.9, 41.3 0.12 M0.75 58.96 C18.32 41.16, 31.11 17.25, 51.93 0.09 M0.75 58.96 C18.53 38.34, 35.3 19.42, 51.93 0.09 M2.86 68.73 C18.27 42.63, 39.58 24.74, 61.9 0.81 M2.86 68.73 C20.25 44.39, 41.75 21.79, 61.9 0.81 M6.93 76.25 C25.97 52.37, 50.19 27.65, 72.53 0.77 M6.93 76.25 C19.62 59.78, 33.66 46.2, 72.53 0.77 M15.59 78.48 C37.98 53.22, 61.96 26.24, 83.16 0.74 M15.59 78.48 C33.12 60.95, 52.11 40.31, 83.16 0.74 M25.56 79.2 C40.11 64.39, 50.32 44.59, 93.79 0.71 M25.56 79.2 C41.31 61.27, 55.68 42.45, 93.79 0.71 M36.19 79.16 C53.68 58.98, 69.1 40.08, 104.42 0.67 M36.19 79.16 C61.79 51.29, 85.44 20.2, 104.42 0.67 M46.82 79.13 C64.04 61.47, 87.08 40.23, 115.05 0.64 M46.82 79.13 C72.91 47.47, 96.55 20.84, 115.05 0.64 M57.45 79.09 C80.41 54.76, 106.56 22.18, 125.03 1.36 M57.45 79.09 C79.96 52.14, 104.69 26.66, 125.03 1.36 M68.08 79.06 C81.1 62.48, 99.97 42.93, 135.66 1.32 M68.08 79.06 C84.83 59.68, 99.7 44.72, 135.66 1.32 M78.71 79.02 C103.8 50.98, 128.79 19.96, 146.29 1.29 M78.71 79.02 C96.16 59.02, 109.88 41.17, 146.29 1.29 M88.69 79.74 C106.34 54.02, 130.74 37.01, 156.92 1.25 M88.69 79.74 C102.75 62.73, 118.11 45.1, 156.92 1.25 M99.32 79.71 C111.38 62.55, 125.73 49.72, 167.55 1.22 M99.32 79.71 C117.07 61.56, 131.17 43.08, 167.55 1.22 M109.95 79.67 C126.68 62.34, 137.85 42.93, 174.9 4.96 M109.95 79.67 C125.84 61.68, 137.59 44.82, 174.9 4.96 M120.58 79.64 C128.83 69.05, 146.9 51.17, 178.97 12.47 M120.58 79.64 C134.66 62.98, 152.37 42.98, 178.97 12.47 M131.21 79.61 C143.07 64.67, 161.83 39.25, 179.75 23.76 M131.21 79.61 C150.47 56.3, 170.39 37.34, 179.75 23.76 M141.84 79.57 C153.01 69.65, 166.03 50.63, 179.89 35.8 M141.84 79.57 C155.37 63.73, 168.52 47.53, 179.89 35.8 M151.81 80.29 C163.77 67.76, 172.48 59.98, 179.36 48.59 M151.81 80.29 C156.73 72.45, 162.49 68.45, 179.36 48.59 M163.1 79.5 C163.52 72.75, 173.7 73.84, 179.5 60.63 M163.1 79.5 C167.53 73.85, 176.27 65.6, 179.5 60.63" stroke="#ffe8cc" stroke-width="1" fill="none"/><path d="M20 0 C59.48 3.01, 107.7 0.53, 160 0 M20 0 C54.33 -0.04, 88.94 0.02, 160 0 M160 0 C169.63 -1.44, 177.48 6.92, 180 20 M160 0 C175.94 4.2, 180.9 9.32, 180 20 M180 20 C184.42 37.11, 184.14 55.95, 180 60 M180 20 C177.95 30.15, 179.86 40.73, 180 60 M180 60 C176.3 71.27, 170.83 80.94, 160 80 M180 60 C180.18 73.93, 169.87 75.98, 160 80 M160 80 C129.3 78.63, 90.36 80.8, 20 80 M160 80 C125.39 77.29, 87.53 76.77, 20 80 M20 80 C6.76 80.26, -1.24 76.54, 0 60 M20 80 C10.4 76.2, -0.38 73.41, 0 60 M0 60 C3.74 42.81, 1.63 30.74, 0 20 M0 60 C-0.23 44.25, -0.87 29.71, 0 20 M0 20 C-3.12 5.19, 8.29 -1.26, 20 0 M0 20 C1.56 7.03, 4.72 -0.77, 20 0" stroke="#fd7e14" stroke-width="2" fill="none"/></g><g transform="translate(536 771) rotate(0 80 10)"><text x="80" y="0" font-family="Virgil, Segoe UI Emoji" font-size="16px" fill="#fd7e14" text-anchor="middle" style="white-space: pre;" direction="ltr" dominant-baseline="text-before-edge">Scan</text></g><g stroke-linecap="round" transform="translate(382 924) rotate(0 90 40)"><path d="M2.85 7.77 C2.85 7.77, 2.85 7.77, 2.85 7.77 M2.85 7.77 C2.85 7.77, 2.85 7.77, 2.85 7.77 M1.01 22.08 C7.98 19.03, 12.51 12.99, 20.04 0.19 M1.01 22.08 C6.27 15.19, 12.44 8.14, 20.04 0.19 M1.14 34.12 C9.8 28.03, 18.18 16.3, 30.67 0.16 M1.14 34.12 C5.77 26.64, 13.44 18.94, 30.67 0.16 M1.28 46.16 C9.73 34.95, 24.54 21.48, 41.3 0.12 M1.28 46.16 C9.99 37.85, 18.58 25.97, 41.3 0.12 M0.75 58.96 C22.61 39.05, 36.18 13.51, 51.93 0.09 M0.75 58.96 C12.36 44.95, 21.04 35.61, 51.93 0.09 M2.86 68.73 C15.48 55.03, 29.68 41.48, 61.9 0.81 M2.86 68.73 C23.39 45.15, 46.1 18.49, 61.9 0.81 M6.93 76.25 C26.44 51.36, 48.86 32.43, 72.53 0.77 M6.93 76.25 C21.03 58.14, 37.35 42.32, 72.53 0.77 M15.59 78.48 C32.64 61, 55.49 39.21, 83.16 0.74 M15.59 78.48 C38.69 52.36, 60.59 27.88, 83.16 0.74 M25.56 79.2 C44.32 55.35, 68.1 31.75, 93.79 0.71 M25.56 79.2 C49.73 54.36, 69.2 26.79, 93.79 0.71 M36.19 79.16 C59.14 59.05, 76.6 35.82, 104.42 0.67 M36.19 79.16 C64.18 48.25, 91.22 17.01, 104.42 0.67 M46.82 79.13 C62.75 53.05, 81.47 34.18, 115.05 0.64 M46.82 79.13 C62.93 57.92, 82.17 35.67, 115.05 0.64 M57.45 79.09 C71.28 57.51, 91.82 38.59, 125.03 1.36 M57.45 79.09 C74.26 62.16, 91.7 43.31, 125.03 1.36 M68.08 79.06 C87.14 59.82, 101.66 45.82, 135.66 1.32 M68.08 79.06 C88.09 57.14, 104.4 39.27, 135.66 1.32 M78.71 79.02 C94.54 57.1, 109.83 38.51, 146.29 1.29 M78.71 79.02 C101.7 54.38, 122.54 32.06, 146.29 1.29 M88.69 79.74 C114.41 53.49, 139.56 18.34, 156.92 1.25 M88.69 79.74 C116.4 50.68, 143.78 19.46, 156.92 1.25 M99.32 79.71 C117.06 55.5, 142.66 30.67, 167.55 1.22 M99.32 79.71 C118.76 57.3, 134.39 37.39, 167.55 1.22 M109.95 79.67 C137.02 52.75, 159.82 24.3, 174.9 4.96 M109.95 79.67 C127.03 59.44, 142.89 43.22, 174.9 4.96 M120.58 79.64 C142.2 56.3, 161.56 34.52, 178.97 12.47 M120.58 79.64 C139.18 58.65, 156.5 39.31, 178.97 12.47 M131.21 79.61 C141.09 68.99, 150.67 54.6, 179.75 23.76 M131.21 79.61 C148.17 62.2, 163.35 44.67, 179.75 23.76 M141.84 79.57 C148.28 73.1, 160.58 62.46, 179.89 35.8 M141.84 79.57 C151.13 67.93, 163.18 55.56, 179.89 35.8 M151.81 80.29 C159.28 71.69, 168.98 56.78, 179.36 48.59 M151.81 80.29 C159.87 71.14, 168.6 59.68, 179.36 48.59 M163.1 79.5 C168.1 72.08, 176.36 64.34, 179.5 60.63 M163.1 79.5 C169.07 73.52, 173.31 65.69, 179.5 60.63" stroke="#ffe8cc" stroke-width="1" fill="none"/><path d="M20 0 C69.26 1.58, 116.39 -4.91, 160 0 M20 0 C63.97 1.45, 111.47 1.12, 160 0 M160 0 C175.89 -3.63, 182.08 7.81, 180 20 M160 0 C177.77 3.99, 177.55 4.92, 180 20 M180 20 C180.85 35.2, 179.62 40.58, 180 60 M180 20 C180.05 35.33, 180.35 51.39, 180 60 M180 60 C177.67 71.79, 173.89 83.91, 160 80 M180 60 C179.96 74.9, 169.42 81.09, 160 80 M160 80 C113.83 81.86, 62.15 78.91, 20 80 M160 80 C113.58 79.55, 70.21 81.23, 20 80 M20 80 C8.92 78.69, 2.24 72.32, 0 60 M20 80 C9.64 83.91, -4.33 72.84, 0 60 M0 60 C-1.7 47.97, -3.35 31.35, 0 20 M0 60 C-0.35 47.48, -0.94 36.27, 0 20 M0 20 C-2.36 4.01, 2.99 -1.44, 20 0 M0 20 C-3.12 3.4, 5.73 0.93, 20 0" stroke="#fd7e14" stroke-width="2" fill="none"/></g><g transform="translate(392 954) rotate(0 80 10)"><text x="80" y="0" font-family="Virgil, Segoe UI Emoji" font-size="16px" fill="#fd7e14" text-anchor="middle" style="white-space: pre;" direction="ltr" dominant-baseline="text-before-edge">Filter</text></g><g stroke-linecap="round" transform="translate(363 1091) rotate(0 90 40)"><path d="M2.85 7.77 C2.85 7.77, 2.85 7.77, 2.85 7.77 M2.85 7.77 C2.85 7.77, 2.85 7.77, 2.85 7.77 M1.01 22.08 C7.12 12.58, 15.24 11.59, 20.04 0.19 M1.01 22.08 C5.5 19.21, 10.02 12.58, 20.04 0.19 M1.14 34.12 C9.58 29.98, 15.96 19.76, 30.67 0.16 M1.14 34.12 C13.38 19.43, 25.57 8.17, 30.67 0.16 M1.28 46.16 C18.06 31.54, 28.56 7.84, 41.3 0.12 M1.28 46.16 C11.22 35.36, 21.53 23.48, 41.3 0.12 M0.75 58.96 C11.75 46.67, 24.17 30.03, 51.93 0.09 M0.75 58.96 C17.05 40.6, 29.42 22.09, 51.93 0.09 M2.86 68.73 C17.83 52.97, 30.68 29.79, 61.9 0.81 M2.86 68.73 C14.78 54.83, 26.71 40.68, 61.9 0.81 M6.93 76.25 C24.7 57.94, 41.42 41.56, 72.53 0.77 M6.93 76.25 C23.12 60.57, 35.41 42.29, 72.53 0.77 M15.59 78.48 C41.81 50.56, 64.73 23.44, 83.16 0.74 M15.59 78.48 C29.32 59.33, 45.14 43.32, 83.16 0.74 M25.56 79.2 C43.97 52.83, 63.87 34.06, 93.79 0.71 M25.56 79.2 C39.33 62.6, 55.99 42.97, 93.79 0.71 M36.19 79.16 C57.57 56.13, 76.83 28.37, 104.42 0.67 M36.19 79.16 C58.77 52.85, 80.73 23.35, 104.42 0.67 M46.82 79.13 C73.79 50.77, 96.75 16.53, 115.05 0.64 M46.82 79.13 C72.19 51.29, 94.17 23.65, 115.05 0.64 M57.45 79.09 C72.95 58.06, 83.75 45.15, 125.03 1.36 M57.45 79.09 C78.02 58.75, 93.74 37.8, 125.03 1.36 M68.08 79.06 C94.92 49.89, 114.07 26.28, 135.66 1.32 M68.08 79.06 C88.66 57.45, 109.44 34.55, 135.66 1.32 M78.71 79.02 C93.64 55.87, 115.47 38.83, 146.29 1.29 M78.71 79.02 C97.54 56.04, 115.61 34.7, 146.29 1.29 M88.69 79.74 C112.36 50.2, 135.16 22.79, 156.92 1.25 M88.69 79.74 C106.07 56.94, 126.98 37.4, 156.92 1.25 M99.32 79.71 C119.74 56.02, 134.65 37.8, 167.55 1.22 M99.32 79.71 C118.16 57.75, 137.37 34.01, 167.55 1.22 M109.95 79.67 C131.25 58.85, 146.73 39.35, 174.9 4.96 M109.95 79.67 C135.47 53.45, 159.87 25.91, 174.9 4.96 M120.58 79.64 C132.63 64.72, 144.64 49.65, 178.97 12.47 M120.58 79.64 C143.17 55.47, 161.94 36.3, 178.97 12.47 M131.21 79.61 C150.55 58.4, 163.45 40.43, 179.75 23.76 M131.21 79.61 C146.93 64.09, 159.42 48.08, 179.75 23.76 M141.84 79.57 C148.42 65.68, 166.11 51.35, 179.89 35.8 M141.84 79.57 C157.75 62.6, 171.79 46.87, 179.89 35.8 M151.81 80.29 C156.35 73.31, 166.18 65.08, 179.36 48.59 M151.81 80.29 C157.86 70.61, 163.65 66.34, 179.36 48.59 M163.1 79.5 C172.52 75.38, 174.69 65.05, 179.5 60.63 M163.1 79.5 C168.87 73.74, 170.64 68.05, 179.5 60.63" stroke="#ffe8cc" stroke-width="1" fill="none"/><path d="M20 0 C69.77 -1.4, 126 -0.56, 160 0 M20 0 C68.04 0.41, 117.37 2.58, 160 0 M160 0 C173.67 2.5, 183.78 5.41, 180 20 M160 0 C173.82 -4.46, 180.13 4.97, 180 20 M180 20 C178.9 31.15, 177.01 40.03, 180 60 M180 20 C179.15 34.8, 179.02 49.05, 180 60 M180 60 C182.37 73.49, 170.01 83.27, 160 80 M180 60 C180.16 73.69, 177.28 78.49, 160 80 M160 80 C114.2 79.64, 64.99 80.47, 20 80 M160 80 C119.25 77.31, 76.28 80.1, 20 80 M20 80 C6.64 79.8, -3.1 72.11, 0 60 M20 80 C7.69 83.03, 1.38 74, 0 60 M0 60 C-0.03 48.25, -0.2 41.81, 0 20 M0 60 C0.63 50.19, -1.79 36.36, 0 20 M0 20 C2.32 10.02, 5.96 -1.12, 20 0 M0 20 C2.78 3.44, 8.16 4.05, 20 0" stroke="#fd7e14" stroke-width="2" fill="none"/></g><g transform="translate(373 1121) rotate(0 80 10)"><text x="80" y="0" font-family="Virgil, Segoe UI Emoji" font-size="16px" fill="#fd7e14" text-anchor="middle" style="white-space: pre;" direction="ltr" dominant-baseline="text-before-edge">Agg</text></g><g stroke-linecap="round" transform="translate(363 1258) rotate(0 90 40)"><path d="M2.85 7.77 C2.85 7.77, 2.85 7.77, 2.85 7.77 M2.85 7.77 C2.85 7.77, 2.85 7.77, 2.85 7.77 M1.01 22.08 C4.83 11.4, 10.2 12.19, 20.04 0.19 M1.01 22.08 C8.29 16.24, 13.67 9.27, 20.04 0.19 M1.14 34.12 C13.56 19.78, 23.37 13.93, 30.67 0.16 M1.14 34.12 C9.28 25, 17.75 17.7, 30.67 0.16 M1.28 46.16 C11.93 28.95, 30.84 10.59, 41.3 0.12 M1.28 46.16 C17.28 30.24, 29.92 10.69, 41.3 0.12 M0.75 58.96 C21.09 41.68, 33.68 18.67, 51.93 0.09 M0.75 58.96 C11.17 43.46, 22.72 29.71, 51.93 0.09 M2.86 68.73 C24.8 37.31, 53.32 10.06, 61.9 0.81 M2.86 68.73 C12.8 56.28, 26.32 39.4, 61.9 0.81 M6.93 76.25 C19.41 56.83, 39.06 40.85, 72.53 0.77 M6.93 76.25 C25.66 56.02, 41.36 37.2, 72.53 0.77 M15.59 78.48 C41.18 51.51, 66.24 21.13, 83.16 0.74 M15.59 78.48 C31.82 57.92, 51.85 35.06, 83.16 0.74 M25.56 79.2 C39.02 60.39, 58.34 38.87, 93.79 0.71 M25.56 79.2 C38.87 65.02, 53.19 46.22, 93.79 0.71 M36.19 79.16 C54.81 54.62, 76.82 31.61, 104.42 0.67 M36.19 79.16 C52.94 60.66, 71.8 38.35, 104.42 0.67 M46.82 79.13 C67.38 53.09, 89.64 36.71, 115.05 0.64 M46.82 79.13 C66.93 59.22, 84.19 36.01, 115.05 0.64 M57.45 79.09 C73.8 65.2, 82.86 45.86, 125.03 1.36 M57.45 79.09 C80.42 54.29, 99.88 31.01, 125.03 1.36 M68.08 79.06 C82.04 57.55, 98.28 39.83, 135.66 1.32 M68.08 79.06 C87.08 56.03, 106.12 34.71, 135.66 1.32 M78.71 79.02 C102.34 53.31, 117.19 29.85, 146.29 1.29 M78.71 79.02 C105.15 47.24, 130.9 17.1, 146.29 1.29 M88.69 79.74 C103.14 64.13, 125.29 41.48, 156.92 1.25 M88.69 79.74 C109.54 57.11, 129.46 34.38, 156.92 1.25 M99.32 79.71 C114.99 62.55, 131.39 46.55, 167.55 1.22 M99.32 79.71 C124.96 53.14, 148.12 21.53, 167.55 1.22 M109.95 79.67 C126.92 64.43, 145 41.47, 174.9 4.96 M109.95 79.67 C125.69 61.19, 145.07 37.85, 174.9 4.96 M120.58 79.64 C134.19 62.78, 148.24 48.92, 178.97 12.47 M120.58 79.64 C135.88 59.82, 151.89 43.02, 178.97 12.47 M131.21 79.61 C144.39 59.27, 159.76 47.06, 179.75 23.76 M131.21 79.61 C144.5 63.9, 156.31 45.63, 179.75 23.76 M141.84 79.57 C153.03 71.59, 161.22 64.8, 179.89 35.8 M141.84 79.57 C150.23 68.15, 161.96 56.71, 179.89 35.8 M151.81 80.29 C156.09 76.08, 159.67 66.5, 179.36 48.59 M151.81 80.29 C160.83 71.83, 166.66 62.79, 179.36 48.59 M163.1 79.5 C167.6 72.28, 172.24 64.09, 179.5 60.63 M163.1 79.5 C168.1 72.04, 173.8 68.79, 179.5 60.63" stroke="#ffe8cc" stroke-width="1" fill="none"/><path d="M20 0 C72.76 1.89, 129.24 -2.86, 160 0 M20 0 C66.86 1.58, 112.28 0.37, 160 0 M160 0 C176.25 -0.18, 182.64 10.02, 180 20 M160 0 C172.89 -2.21, 177.21 3.62, 180 20 M180 20 C180.13 31.17, 180.9 44.07, 180 60 M180 20 C179.21 33.61, 180.98 44.35, 180 60 M180 60 C179.54 71.19, 172.01 79.61, 160 80 M180 60 C182.44 69.81, 171.32 80.04, 160 80 M160 80 C107.33 84.49, 47.52 78.38, 20 80 M160 80 C118.35 78.24, 79.14 77.53, 20 80 M20 80 C8.73 79.15, 1.12 75.01, 0 60 M20 80 C8.13 80.31, 0.99 71.68, 0 60 M0 60 C0.89 44.52, -2.85 32.55, 0 20 M0 60 C2.4 47.11, -1.27 32.88, 0 20 M0 20 C-3.08 3.35, 9.5 2.07, 20 0 M0 20 C-0.66 5.52, 7.18 1.34, 20 0" stroke="#fd7e14" stroke-width="2" fill="none"/></g><g transform="translate(373 1288) rotate(0 80 10)"><text x="80" y="0" font-family="Virgil, Segoe UI Emoji" font-size="16px" fill="#fd7e14" text-anchor="middle" style="white-space: pre;" direction="ltr" dominant-baseline="text-before-edge">Sort</text></g><g stroke-linecap="round" transform="translate(363 1425) rotate(0 90 40)"><path d="M2.85 7.77 C2.85 7.77, 2.85 7.77, 2.85 7.77 M2.85 7.77 C2.85 7.77, 2.85 7.77, 2.85 7.77 M1.01 22.08 C4.59 17.79, 8.74 8.9, 20.04 0.19 M1.01 22.08 C5.27 16.18, 8.51 10.01, 20.04 0.19 M1.14 34.12 C12.78 21.88, 16.1 13, 30.67 0.16 M1.14 34.12 C11.06 24.28, 20.72 11.02, 30.67 0.16 M1.28 46.16 C14.33 31.6, 18.36 18.86, 41.3 0.12 M1.28 46.16 C15.72 30.32, 30.8 11.27, 41.3 0.12 M0.75 58.96 C12.5 43.62, 19.78 27.77, 51.93 0.09 M0.75 58.96 C13.68 45.12, 24.33 35.49, 51.93 0.09 M2.86 68.73 C21.52 45.84, 45.12 19.47, 61.9 0.81 M2.86 68.73 C17.51 51.43, 32.56 33.62, 61.9 0.81 M6.93 76.25 C21.23 57.51, 35.02 41.48, 72.53 0.77 M6.93 76.25 C25.33 59.98, 39.85 41.71, 72.53 0.77 M15.59 78.48 C37.11 54.98, 57.7 39.2, 83.16 0.74 M15.59 78.48 C31.67 59.12, 46.52 44.55, 83.16 0.74 M25.56 79.2 C46.88 53.86, 68.69 25.91, 93.79 0.71 M25.56 79.2 C50.93 50.74, 75.45 21.56, 93.79 0.71 M36.19 79.16 C52.91 56.44, 74.42 28.05, 104.42 0.67 M36.19 79.16 C56.86 55.85, 79.96 30.15, 104.42 0.67 M46.82 79.13 C59.11 60.84, 77.01 39, 115.05 0.64 M46.82 79.13 C63.41 58.2, 83.56 36.76, 115.05 0.64 M57.45 79.09 C75.54 59.39, 91.09 45.24, 125.03 1.36 M57.45 79.09 C81.46 50.23, 109.74 21.41, 125.03 1.36 M68.08 79.06 C95.06 52.21, 118.94 18.26, 135.66 1.32 M68.08 79.06 C94.75 49.97, 120.11 19.04, 135.66 1.32 M78.71 79.02 C103.77 53.63, 121.77 28.26, 146.29 1.29 M78.71 79.02 C97.35 56.04, 117.84 36.1, 146.29 1.29 M88.69 79.74 C102.72 60.28, 123.59 40.66, 156.92 1.25 M88.69 79.74 C106.53 60.79, 119.25 41.49, 156.92 1.25 M99.32 79.71 C117.2 50.98, 143.83 30.87, 167.55 1.22 M99.32 79.71 C122.38 53.83, 146.48 28.77, 167.55 1.22 M109.95 79.67 C135.32 53.93, 165.44 22.86, 174.9 4.96 M109.95 79.67 C124.7 61.08, 140.59 41.62, 174.9 4.96 M120.58 79.64 C132.03 63.45, 150.68 45.6, 178.97 12.47 M120.58 79.64 C136.26 57.42, 154.35 38.32, 178.97 12.47 M131.21 79.61 C141.08 70.59, 153.3 60.78, 179.75 23.76 M131.21 79.61 C143.53 69.74, 151.65 56.57, 179.75 23.76 M141.84 79.57 C149.99 64.62, 162.55 55.55, 179.89 35.8 M141.84 79.57 C155.28 65.36, 166.28 50.6, 179.89 35.8 M151.81 80.29 C163.09 69.11, 169.1 66.64, 179.36 48.59 M151.81 80.29 C162.23 67.85, 172.05 58.65, 179.36 48.59 M163.1 79.5 C167.47 75.14, 175.35 72.38, 179.5 60.63 M163.1 79.5 C169.04 73.82, 172.13 71.32, 179.5 60.63" stroke="#ffe8cc" stroke-width="1" fill="none"/><path d="M20 0 C60.89 -1.16, 106.27 -1.3, 160 0 M20 0 C48.48 0.08, 76.4 -3.05, 160 0 M160 0 C176.44 2.75, 179.57 6.89, 180 20 M160 0 C171.94 3.32, 184.04 3.12, 180 20 M180 20 C184.18 27.87, 179.65 43.59, 180 60 M180 20 C178.96 28, 178.75 35.43, 180 60 M180 60 C182.18 75.95, 174.53 78.69, 160 80 M180 60 C176.92 72.18, 176.59 75.51, 160 80 M160 80 C129.04 81.78, 106.54 80.04, 20 80 M160 80 C122.23 78.57, 81.84 80.64, 20 80 M20 80 C8.57 76.05, 0.96 72.29, 0 60 M20 80 C2.25 77.42, 4.21 76.84, 0 60 M0 60 C-0.24 44.77, 0.06 37.33, 0 20 M0 60 C0.06 48.95, -0.42 41.19, 0 20 M0 20 C-0.32 9.31, 4.99 -1.02, 20 0 M0 20 C3.38 10.56, 6.61 -4.46, 20 0" stroke="#fd7e14" stroke-width="2" fill="none"/></g><g transform="translate(373 1455) rotate(0 80 10)"><text x="80" y="0" font-family="Virgil, Segoe UI Emoji" font-size="16px" fill="#fd7e14" text-anchor="middle" style="white-space: pre;" direction="ltr" dominant-baseline="text-before-edge">Project</text></g><g stroke-linecap="round" transform="translate(678 924) rotate(0 90 40)"><path d="M2.85 7.77 C2.85 7.77, 2.85 7.77, 2.85 7.77 M2.85 7.77 C2.85 7.77, 2.85 7.77, 2.85 7.77 M4.29 18.31 C13.25 14.58, 16.98 3.03, 20.04 0.19 M4.29 18.31 C6.67 15.33, 12.89 8.56, 20.04 0.19 M3.77 31.1 C14.37 21.22, 23.67 10.13, 30.67 0.16 M3.77 31.1 C15.1 21.05, 24.84 6.85, 30.67 0.16 M3.9 43.14 C17.9 24.13, 31.53 7.61, 41.3 0.12 M3.9 43.14 C11.12 34.56, 18.14 25.17, 41.3 0.12 M4.03 55.18 C18.54 39.42, 31.35 22.5, 51.93 0.09 M4.03 55.18 C14.57 44.79, 25.72 31.09, 51.93 0.09 M3.51 67.98 C27.62 45.78, 47.79 20.69, 61.9 0.81 M3.51 67.98 C15.94 55.57, 29.79 41.31, 61.9 0.81 M6.93 76.25 C22.56 62.09, 36.1 45.19, 72.53 0.77 M6.93 76.25 C25.44 53.1, 47.07 32.71, 72.53 0.77 M13.62 80.74 C35.46 53.5, 60.63 26.77, 83.16 0.74 M13.62 80.74 C35.24 57.27, 57.37 30.61, 83.16 0.74 M24.25 80.7 C41.09 61.76, 53.51 44.71, 93.79 0.71 M24.25 80.7 C42.23 57.69, 61.67 38.62, 93.79 0.71 M34.88 80.67 C53.5 60.78, 68.35 39.58, 104.42 0.67 M34.88 80.67 C61.59 48.42, 88.87 18.11, 104.42 0.67 M44.85 81.39 C66.06 58.98, 80.67 38.21, 115.05 0.64 M44.85 81.39 C71.13 52.73, 92.55 26.18, 115.05 0.64 M55.48 81.36 C68.44 59.01, 82.26 44.01, 125.03 1.36 M55.48 81.36 C72.56 61.97, 90.94 39.97, 125.03 1.36 M66.11 81.32 C92.9 49.84, 117.13 21.35, 135.66 1.32 M66.11 81.32 C89.92 55.84, 111.06 27.82, 135.66 1.32 M76.74 81.29 C103.42 54.03, 129 19.5, 146.29 1.29 M76.74 81.29 C103.62 54.66, 127.77 25.67, 146.29 1.29 M87.37 81.25 C110.72 52.94, 126.55 35.29, 156.92 1.25 M87.37 81.25 C102.07 64.26, 121.67 46.13, 156.92 1.25 M98 81.22 C118.05 54.77, 139.09 35.82, 167.55 1.22 M98 81.22 C115.66 59.81, 139.7 36.06, 167.55 1.22 M107.98 81.94 C124.3 60.49, 146.52 40.03, 174.24 5.71 M107.98 81.94 C124.02 60.55, 139.39 41.76, 174.24 5.71 M118.61 81.9 C137.85 65.01, 148.01 46.9, 180.93 10.21 M118.61 81.9 C138.83 60.33, 156.05 38.95, 180.93 10.21 M129.24 81.87 C141.81 65.36, 158.48 51.25, 183.69 19.23 M129.24 81.87 C148.36 58.43, 168.86 39.48, 183.69 19.23 M139.87 81.83 C151.1 67.51, 164.21 50.11, 183.82 31.27 M139.87 81.83 C157.47 60.86, 176.02 43.57, 183.82 31.27 M150.5 81.8 C160.6 70.8, 175.59 58.37, 183.3 44.06 M150.5 81.8 C160.57 70.33, 171.4 56.54, 183.3 44.06 M161.78 81.01 C170.86 73.7, 174.62 63.33, 183.43 56.11 M161.78 81.01 C170.14 71.18, 176.71 64.37, 183.43 56.11" stroke="#ffec99" stroke-width="1" fill="none"/><path d="M20 0 C54.61 0.35, 86.46 3.06, 160 0 M20 0 C52.84 0.54, 89.68 0.86, 160 0 M160 0 C170.3 0.04, 181.02 9.11, 180 20 M160 0 C172.37 -1.77, 177.85 2.87, 180 20 M180 20 C182.62 28.4, 176.88 40.18, 180 60 M180 20 C178.5 28.77, 178.69 40.48, 180 60 M180 60 C177.89 70.87, 175.64 79.95, 160 80 M180 60 C181.18 72.23, 172.52 84.38, 160 80 M160 80 C104.25 85.89, 54.4 80.56, 20 80 M160 80 C105.57 83.18, 46.33 79.71, 20 80 M20 80 C7.23 80.46, -1.93 69.75, 0 60 M20 80 C10.42 82.97, -1.57 70.54, 0 60 M0 60 C1.29 50.14, -0.78 34.19, 0 20 M0 60 C1.11 44.25, -0.55 31.14, 0 20 M0 20 C-1.23 5.93, 4.82 -1.89, 20 0 M0 20 C-2.27 3.12, 7.65 1.34, 20 0" stroke="#f08c00" stroke-width="2" fill="none"/></g><g transform="translate(688 954) rotate(0 80 10)"><text x="80" y="0" font-family="Virgil, Segoe UI Emoji" font-size="16px" fill="#f08c00" text-anchor="middle" style="white-space: pre;" direction="ltr" dominant-baseline="text-before-edge">R2 Storage</text></g><g stroke-linecap="round" transform="translate(651 1091) rotate(0 120.80000000000001 40)"><path d="M2.85 7.77 C2.85 7.77, 2.85 7.77, 2.85 7.77 M2.85 7.77 C2.85 7.77, 2.85 7.77, 2.85 7.77 M4.29 18.31 C11.36 10.88, 10.25 6.65, 20.04 0.19 M4.29 18.31 C11.94 12.45, 16.71 3.76, 20.04 0.19 M3.77 31.1 C9.04 22.29, 17.62 12.5, 30.67 0.16 M3.77 31.1 C16.3 18.41, 25.97 7.3, 30.67 0.16 M3.9 43.14 C14.31 31.91, 23.62 21.72, 41.3 0.12 M3.9 43.14 C15.01 28.4, 24.94 15.62, 41.3 0.12 M4.03 55.18 C25.62 36.67, 38.91 15.3, 51.93 0.09 M4.03 55.18 C22.08 33.56, 35.54 15.51, 51.93 0.09 M3.51 67.98 C18.15 48.56, 31.05 39.34, 62.56 0.05 M3.51 67.98 C22.22 41.84, 46.46 16.49, 62.56 0.05 M6.93 76.25 C26.45 58.49, 44.71 37.12, 72.53 0.77 M6.93 76.25 C24.91 56.22, 42.05 36.64, 72.53 0.77 M13.62 80.74 C26.01 68.32, 38.93 44.65, 83.16 0.74 M13.62 80.74 C36.29 55.21, 56.13 28.66, 83.16 0.74 M24.25 80.7 C56.05 52.02, 83.3 15.71, 93.79 0.71 M24.25 80.7 C43.78 55.72, 63.8 33.25, 93.79 0.71 M34.88 80.67 C51.65 67.4, 67.48 50.64, 104.42 0.67 M34.88 80.67 C60.17 49.39, 87.09 14.88, 104.42 0.67 M45.51 80.64 C66.8 59.76, 82.7 41.76, 115.05 0.64 M45.51 80.64 C64.77 59.25, 84.63 37.89, 115.05 0.64 M55.48 81.36 C82.3 58.55, 102.64 26.5, 125.68 0.6 M55.48 81.36 C74.04 64.61, 88.04 44.03, 125.68 0.6 M66.11 81.32 C81.54 62.2, 98.72 39.23, 136.31 0.57 M66.11 81.32 C85.38 60.24, 108.89 38.31, 136.31 0.57 M76.74 81.29 C101.34 55.82, 122.99 29.22, 146.94 0.53 M76.74 81.29 C98.85 56.94, 118.42 34.68, 146.94 0.53 M87.37 81.25 C109.99 50.71, 139.81 19.93, 156.92 1.25 M87.37 81.25 C102.12 66.08, 114.9 51.24, 156.92 1.25 M98 81.22 C121.56 50.32, 146.18 23.28, 167.55 1.22 M98 81.22 C118.93 55.79, 144.18 31.58, 167.55 1.22 M108.63 81.18 C131.38 53.86, 154.43 26.83, 178.18 1.18 M108.63 81.18 C134.6 50.4, 163.6 23.4, 178.18 1.18 M119.26 81.15 C141.16 52.72, 167.11 19.34, 188.81 1.15 M119.26 81.15 C137 61.97, 154.75 43.27, 188.81 1.15 M129.89 81.11 C156.95 54.61, 177.54 29, 199.44 1.12 M129.89 81.11 C155.53 52.15, 179.25 20.64, 199.44 1.12 M139.87 81.83 C158.72 60.63, 178.07 34.44, 210.07 1.08 M139.87 81.83 C159.05 61.61, 178.87 37.09, 210.07 1.08 M150.5 81.8 C175.65 54.26, 197.65 32.39, 220.7 1.05 M150.5 81.8 C165.13 63.9, 180.41 47.07, 220.7 1.05 M161.13 81.77 C184.46 56.36, 199.66 33.93, 230.67 1.77 M161.13 81.77 C179.89 60.39, 196.39 41.54, 230.67 1.77 M171.76 81.73 C186 58.55, 208.31 36.69, 237.36 6.26 M171.76 81.73 C192.48 57.99, 215.01 33.73, 237.36 6.26 M182.39 81.7 C200.08 62.97, 215.77 44.96, 241.43 13.77 M182.39 81.7 C195.01 70.19, 207.25 53.6, 241.43 13.77 M193.02 81.66 C207.95 65.1, 221.33 50.64, 246.82 19.78 M193.02 81.66 C203.31 66.5, 215.19 53.54, 246.82 19.78 M203.65 81.63 C218.45 64.01, 235.43 49.26, 246.29 32.57 M203.65 81.63 C214.58 66.75, 229.18 54.5, 246.29 32.57 M214.28 81.59 C221.9 70.23, 234.53 57.13, 246.43 44.61 M214.28 81.59 C219.43 74.62, 229.1 64.22, 246.43 44.61 M224.25 82.31 C231.32 71.23, 239 67.87, 245.9 57.41 M224.25 82.31 C232.28 72.56, 242.14 63.53, 245.9 57.41" stroke="#ffec99" stroke-width="1" fill="none"/><path d="M20 0 C79.86 1.25, 140.02 -0.77, 221.6 0 M20 0 C93.65 3.16, 171.19 3.88, 221.6 0 M221.6 0 C238.91 3.57, 240.12 4.27, 241.6 20 M221.6 0 C231.92 -0.69, 242.92 4.62, 241.6 20 M241.6 20 C238.34 33.52, 245.81 43.52, 241.6 60 M241.6 20 C241.92 31.06, 242.95 41.2, 241.6 60 M241.6 60 C238.36 72.44, 236.44 80.07, 221.6 80 M241.6 60 C241.1 76.12, 237.28 77, 221.6 80 M221.6 80 C171.22 82.34, 114.22 84.22, 20 80 M221.6 80 C178.32 78.33, 134.96 78.16, 20 80 M20 80 C6.26 79.12, 3.59 75.51, 0 60 M20 80 C9.79 76.44, -0.43 77.37, 0 60 M0 60 C4 50.75, -2.59 41.47, 0 20 M0 60 C-0.09 46.48, 1.44 34.92, 0 20 M0 20 C-0.72 4.21, 6.5 -1.92, 20 0 M0 20 C1.38 9.23, 9.59 -2.12, 20 0" stroke="#f08c00" stroke-width="2" fill="none"/></g><g transform="translate(661 1121) rotate(0 110.80000000000001 10)"><text x="110.8" y="0" font-family="Virgil, Segoe UI Emoji" font-size="16px" fill="#f08c00" text-anchor="middle" style="white-space: pre;" direction="ltr" dominant-baseline="text-before-edge">Parquet/Lance/Iceberg</text></g><g stroke-linecap="round"><g transform="translate(129 88) rotate(0 39 49.5)"><path d="M0 0 C20.99 26.64, 41.98 53.28, 78 99 M0 0 C26.01 33.01, 52.02 66.03, 78 99" stroke="#7048e8" stroke-width="2" fill="none"/></g><g transform="translate(129 88) rotate(0 39 49.5)"><path d="M52.49 83.21 C59.36 87.46, 66.22 91.71, 78 99 M52.49 83.21 C61 88.47, 69.51 93.74, 78 99" stroke="#7048e8" stroke-width="2" fill="none"/></g><g transform="translate(129 88) rotate(0 39 49.5)"><path d="M68.61 70.51 C71.14 78.17, 73.66 85.84, 78 99 M68.61 70.51 C71.74 80.01, 74.87 89.51, 78 99" stroke="#7048e8" stroke-width="2" fill="none"/></g></g><mask/><g transform="translate(168 130) rotate(0 29 10)"><text x="29" y="0" font-family="Virgil, Segoe UI Emoji" font-size="14px" fill="#1e1e1e" text-anchor="middle" style="white-space: pre;" direction="ltr" dominant-baseline="text-before-edge">query</text></g><g stroke-linecap="round"><g transform="translate(358 88) rotate(0 -39 49.5)"><path d="M0 0 C-29.3 37.19, -58.6 74.38, -78 99 M0 0 C-17.14 21.76, -34.28 43.51, -78 99" stroke="#7048e8" stroke-width="2" fill="none"/></g><g transform="translate(358 88) rotate(0 -39 49.5)"><path d="M-68.61 70.51 C-72.14 81.21, -75.67 91.91, -78 99 M-68.61 70.51 C-70.68 76.77, -72.74 83.03, -78 99" stroke="#7048e8" stroke-width="2" fill="none"/></g><g transform="translate(358 88) rotate(0 -39 49.5)"><path d="M-52.49 83.21 C-62.08 89.14, -71.66 95.07, -78 99 M-52.49 83.21 C-58.1 86.68, -63.7 90.15, -78 99" stroke="#7048e8" stroke-width="2" fill="none"/></g></g><mask/><g transform="translate(311.4 130) rotate(0 20.599999999999994 10)"><text x="20.6" y="0" font-family="Virgil, Segoe UI Emoji" font-size="14px" fill="#1e1e1e" text-anchor="middle" style="white-space: pre;" direction="ltr" dominant-baseline="text-before-edge">SQL</text></g><g stroke-linecap="round"><g transform="translate(217 272) rotate(0 -23.5 46.5)"><path d="M0 0 C-11.3 15.54, -22.61 31.08, -32 44 M0 0 C-9.69 13.32, -19.37 26.64, -32 44 M-32 44 C-37.87 63.18, -43.74 82.36, -47 93 M-32 44 C-35.25 54.61, -38.5 65.22, -47 93" stroke="#c92a2a" stroke-width="2" fill="none"/></g><g transform="translate(217 272) rotate(0 -23.5 46.5)"><path d="M-48.33 67.41 C-47.86 76.45, -47.39 85.49, -47 93 M-48.33 67.41 C-47.93 75.16, -47.53 82.9, -47 93" stroke="#c92a2a" stroke-width="2" fill="none"/></g><g transform="translate(217 272) rotate(0 -23.5 46.5)"><path d="M-31.57 72.54 C-37.02 79.77, -42.47 86.99, -47 93 M-31.57 72.54 C-36.24 78.73, -40.91 84.93, -47 93" stroke="#c92a2a" stroke-width="2" fill="none"/></g></g><mask/><g transform="translate(131.8 313) rotate(0 41.599999999999994 10)"><text x="41.6" y="0" font-family="Virgil, Segoe UI Emoji" font-size="14px" fill="#1e1e1e" text-anchor="middle" style="white-space: pre;" direction="ltr" dominant-baseline="text-before-edge">register</text></g><g stroke-linecap="round"><g transform="translate(250 269) rotate(0 72 51.5)"><path d="M0 0 C46.13 33, 92.27 66, 144 103 M0 0 C50.17 35.89, 100.35 71.78, 144 103" stroke="#c92a2a" stroke-width="2" fill="none"/></g><g transform="translate(250 269) rotate(0 72 51.5)"><path d="M115.1 94.94 C124.36 97.53, 133.62 100.11, 144 103 M115.1 94.94 C125.17 97.75, 135.24 100.56, 144 103" stroke="#c92a2a" stroke-width="2" fill="none"/></g><g transform="translate(250 269) rotate(0 72 51.5)"><path d="M127.04 78.25 C132.47 86.18, 137.91 94.11, 144 103 M127.04 78.25 C132.95 86.88, 138.86 95.5, 144 103" stroke="#c92a2a" stroke-width="2" fill="none"/></g></g><mask/><g transform="translate(340 313) rotate(0 29 10)"><text x="29" y="0" font-family="Virgil, Segoe UI Emoji" font-size="14px" fill="#1e1e1e" text-anchor="middle" style="white-space: pre;" direction="ltr" dominant-baseline="text-before-edge">query</text></g><g stroke-linecap="round"><g transform="translate(407 453) rotate(0 -31.5 47.5)"><path d="M0 0 C-12.39 12.96, -24.79 25.91, -44 46 M0 0 C-9.54 9.97, -19.08 19.95, -44 46 M-44 46 C-48.06 56.47, -52.12 66.93, -63 95 M-44 46 C-51.34 64.93, -58.68 83.86, -63 95" stroke="#c92a2a" stroke-width="2" fill="none"/></g><g transform="translate(407 453) rotate(0 -31.5 47.5)"><path d="M-62.45 68.73 C-62.61 76.13, -62.76 83.53, -63 95 M-62.45 68.73 C-62.57 74.42, -62.69 80.12, -63 95" stroke="#c92a2a" stroke-width="2" fill="none"/></g><g transform="translate(407 453) rotate(0 -31.5 47.5)"><path d="M-45.69 75.23 C-50.57 80.8, -55.44 86.37, -63 95 M-45.69 75.23 C-49.45 79.51, -53.2 83.8, -63 95" stroke="#c92a2a" stroke-width="2" fill="none"/></g></g><mask/><g transform="translate(354.6 495) rotate(0 37.400000000000006 10)"><text x="37.400000000000006" y="0" font-family="Virgil, Segoe UI Emoji" font-size="14px" fill="#1e1e1e" text-anchor="middle" style="white-space: pre;" direction="ltr" dominant-baseline="text-before-edge">fan-out</text></g><g stroke-linecap="round"><g transform="translate(444 453) rotate(0 64.5 50)"><path d="M0 0 C44.85 34.77, 89.7 69.54, 129 100 M0 0 C47.38 36.73, 94.76 73.45, 129 100" stroke="#9c36b5" stroke-width="2" fill="none"/></g><g transform="translate(444 453) rotate(0 64.5 50)"><path d="M100.43 90.84 C110.37 94.02, 120.3 97.21, 129 100 M100.43 90.84 C110.93 94.2, 121.42 97.57, 129 100" stroke="#9c36b5" stroke-width="2" fill="none"/></g><g transform="translate(444 453) rotate(0 64.5 50)"><path d="M113.01 74.62 C118.57 83.44, 124.13 92.27, 129 100 M113.01 74.62 C118.88 83.94, 124.75 93.26, 129 100" stroke="#9c36b5" stroke-width="2" fill="none"/></g></g><mask/><g transform="translate(525.8 495) rotate(0 33.19999999999999 10)"><text x="33.2" y="0" font-family="Virgil, Segoe UI Emoji" font-size="14px" fill="#1e1e1e" text-anchor="middle" style="white-space: pre;" direction="ltr" dominant-baseline="text-before-edge">decode</text></g><g stroke-linecap="round"><g transform="translate(616 639) rotate(0 0 45)"><path d="M0 0 C0 31.96, 0 63.92, 0 90 M0 0 C0 35.56, 0 71.11, 0 90" stroke="#fd7e14" stroke-width="2" fill="none"/></g><g transform="translate(616 639) rotate(0 0 45)"><path d="M-10.26 61.81 C-6.62 71.82, -2.97 81.83, 0 90 M-10.26 61.81 C-6.21 72.95, -2.15 84.08, 0 90" stroke="#fd7e14" stroke-width="2" fill="none"/></g><g transform="translate(616 639) rotate(0 0 45)"><path d="M10.26 61.81 C6.62 71.82, 2.97 81.83, 0 90 M10.26 61.81 C6.21 72.95, 2.15 84.08, 0 90" stroke="#fd7e14" stroke-width="2" fill="none"/></g></g><mask/><g transform="translate(607.2 678) rotate(0 24.80000000000001 10)"><text x="24.8" y="0" font-family="Virgil, Segoe UI Emoji" font-size="14px" fill="#1e1e1e" text-anchor="middle" style="white-space: pre;" direction="ltr" dominant-baseline="text-before-edge">pull</text></g><g stroke-linecap="round"><g transform="translate(586 819) rotate(0 -39 49)"><path d="M0 0 C-25.46 31.99, -50.92 63.97, -78 98 M0 0 C-29.97 37.66, -59.95 75.32, -78 98" stroke="#fd7e14" stroke-width="2" fill="none"/></g><g transform="translate(586 819) rotate(0 -39 49)"><path d="M-68.47 69.55 C-71.58 78.84, -74.69 88.12, -78 98 M-68.47 69.55 C-72.13 80.48, -75.79 91.42, -78 98" stroke="#fd7e14" stroke-width="2" fill="none"/></g><g transform="translate(586 819) rotate(0 -39 49)"><path d="M-52.42 82.33 C-60.77 87.45, -69.12 92.56, -78 98 M-52.42 82.33 C-62.25 88.35, -72.08 94.37, -78 98" stroke="#fd7e14" stroke-width="2" fill="none"/></g></g><mask/><g stroke-linecap="round"><g transform="translate(467 1004) rotate(0 -4.5 37.5)"><path d="M0 0 C-2.95 24.54, -5.89 49.08, -9 75 M0 0 C-2.83 23.61, -5.67 47.23, -9 75" stroke="#fd7e14" stroke-width="2" fill="none"/></g><g transform="translate(467 1004) rotate(0 -4.5 37.5)"><path d="M-15.83 45.79 C-13.59 55.35, -11.36 64.91, -9 75 M-15.83 45.79 C-13.68 54.98, -11.53 64.18, -9 75" stroke="#fd7e14" stroke-width="2" fill="none"/></g><g transform="translate(467 1004) rotate(0 -4.5 37.5)"><path d="M4.55 48.23 C0.11 56.99, -4.32 65.75, -9 75 M4.55 48.23 C0.28 56.66, -3.98 65.09, -9 75" stroke="#fd7e14" stroke-width="2" fill="none"/></g></g><mask/><g stroke-linecap="round"><g transform="translate(453 1171) rotate(0 0 37.5)"><path d="M0 0 C0 16.99, 0 33.97, 0 75 M0 0 C0 29.42, 0 58.83, 0 75" stroke="#fd7e14" stroke-width="2" fill="none"/></g><g transform="translate(453 1171) rotate(0 0 37.5)"><path d="M-10.26 46.81 C-7.94 53.19, -5.61 59.58, 0 75 M-10.26 46.81 C-6.24 57.87, -2.21 68.92, 0 75" stroke="#fd7e14" stroke-width="2" fill="none"/></g><g transform="translate(453 1171) rotate(0 0 37.5)"><path d="M10.26 46.81 C7.94 53.19, 5.61 59.58, 0 75 M10.26 46.81 C6.24 57.87, 2.21 68.92, 0 75" stroke="#fd7e14" stroke-width="2" fill="none"/></g></g><mask/><g stroke-linecap="round"><g transform="translate(453 1338) rotate(0 0 37.5)"><path d="M0 0 C0 19.22, 0 38.45, 0 75 M0 0 C0 24.11, 0 48.22, 0 75" stroke="#fd7e14" stroke-width="2" fill="none"/></g><g transform="translate(453 1338) rotate(0 0 37.5)"><path d="M-10.26 46.81 C-7.63 54.04, -5 61.26, 0 75 M-10.26 46.81 C-6.96 55.87, -3.66 64.93, 0 75" stroke="#fd7e14" stroke-width="2" fill="none"/></g><g transform="translate(453 1338) rotate(0 0 37.5)"><path d="M10.26 46.81 C7.63 54.04, 5 61.26, 0 75 M10.26 46.81 C6.96 55.87, 3.66 64.93, 0 75" stroke="#fd7e14" stroke-width="2" fill="none"/></g></g><mask/><g stroke-linecap="round"><g transform="translate(614 819) rotate(0 57.5 49)"><path d="M0 0 C43.1 36.73, 86.21 73.46, 115 98 M0 0 C23.83 20.31, 47.66 40.62, 115 98" stroke="#f08c00" stroke-width="2" fill="none"/></g><g transform="translate(614 819) rotate(0 57.5 49)"><path d="M86.89 87.52 C97.42 91.45, 107.96 95.38, 115 98 M86.89 87.52 C92.71 89.7, 98.54 91.87, 115 98" stroke="#f08c00" stroke-width="2" fill="none"/></g><g transform="translate(614 819) rotate(0 57.5 49)"><path d="M100.2 71.91 C105.75 81.69, 111.29 91.47, 115 98 M100.2 71.91 C103.27 77.31, 106.33 82.72, 115 98" stroke="#f08c00" stroke-width="2" fill="none"/></g></g><mask/><g transform="translate(688.2 861) rotate(0 24.80000000000001 10)"><text x="24.8" y="0" font-family="Virgil, Segoe UI Emoji" font-size="14px" fill="#1e1e1e" text-anchor="middle" style="white-space: pre;" direction="ltr" dominant-baseline="text-before-edge">read</text></g><g stroke-linecap="round"><g transform="translate(768 1004) rotate(0 1 37.5)"><path d="M0 0 C0.69 26.02, 1.39 52.03, 2 75 M0 0 C0.72 27.09, 1.44 54.17, 2 75" stroke="#f08c00" stroke-width="2" fill="none"/></g><g transform="translate(768 1004) rotate(0 1 37.5)"><path d="M-9.01 47.09 C-5.19 56.77, -1.37 66.45, 2 75 M-9.01 47.09 C-5.03 57.17, -1.06 67.25, 2 75" stroke="#f08c00" stroke-width="2" fill="none"/></g><g transform="translate(768 1004) rotate(0 1 37.5)"><path d="M11.51 46.55 C8.21 56.42, 4.91 66.29, 2 75 M11.51 46.55 C8.07 56.82, 4.64 67.1, 2 75" stroke="#f08c00" stroke-width="2" fill="none"/></g></g><mask/></svg>