<svg version="1.1" xmlns="http://www.w3.org/2000/svg" viewBox="0 0 1070 1188.9213627499882" width="1070" height="1188.9213627499882">
  <!-- svg-source:excalidraw -->
  
  <defs>
    <style class="style-fonts">
      @font-face {
        font-family: "Virgil";
        src: url("https://unpkg.com/@excalidraw/excalidraw@undefined/dist/excalidraw-assets/Virgil.woff2");
      }
      @font-face {
        font-family: "Cascadia";
        src: url("https://unpkg.com/@excalidraw/excalidraw@undefined/dist/excalidraw-assets/Cascadia.woff2");
      }
      @font-face {
        font-family: "Assistant";
        src: url("https://unpkg.com/@excalidraw/excalidraw@undefined/dist/excalidraw-assets/Assistant-Regular.woff2");
      }
    </style>
    
  </defs>
  <rect x="0" y="0" width="1070" height="1188.9213627499882" fill="#ffffff"/><g transform="translate(330 10) rotate(0 210 20)"><text x="210" y="0" font-family="Virgil, Segoe UI Emoji" font-size="28px" fill="#1e1e1e" text-anchor="middle" style="white-space: pre;" direction="ltr" dominant-baseline="text-before-edge">QueryMode — Serverless Columnar Query Engine</text></g><g transform="translate(360 48) rotate(0 180 10)"><text x="180" y="0" font-family="Virgil, Segoe UI Emoji" font-size="14px" fill="#868e96" text-anchor="middle" style="white-space: pre;" direction="ltr" dominant-baseline="text-before-edge">Cloudflare Durable Objects + R2 Data Lake</text></g><g stroke-linecap="round" transform="translate(350 75) rotate(0 190 20)"><path d="M10 0 C82 0, 154.01 0, 370 0 M370 0 C376.67 0, 380 3.33, 380 10 M380 10 C380 15.28, 380 20.56, 380 30 M380 30 C380 36.67, 376.67 40, 370 40 M370 40 C279.1 40, 188.2 40, 10 40 M10 40 C3.33 40, 0 36.67, 0 30 M0 30 C0 25.9, 0 21.79, 0 10 M0 10 C0 3.33, 3.33 0, 10 0" stroke="#868e96" stroke-width="1.5" fill="none" stroke-dasharray="8 9"/></g><g transform="translate(370 85) rotate(0 170 10)"><text x="170" y="0" font-family="Virgil, Segoe UI Emoji" font-size="12px" fill="#868e96" text-anchor="middle" style="white-space: pre;" direction="ltr" dominant-baseline="text-before-edge">SDK: QueryMode.remote(DO) | QueryMode.local()</text></g><g stroke-linecap="round" transform="translate(450 130) rotate(0 90 35)"><path d="M180 35 C180 36.31, 179.81 37.62, 179.43 38.92 C179.06 40.22, 178.49 41.51, 177.74 42.79 C177 44.06, 176.06 45.33, 174.95 46.56 C173.84 47.79, 172.54 49.01, 171.09 50.19 C169.63 51.36, 167.99 52.52, 166.21 53.62 C164.42 54.73, 162.46 55.8, 160.36 56.82 C158.27 57.84, 156.01 58.83, 153.64 59.75 C151.26 60.67, 148.74 61.55, 146.11 62.36 C143.49 63.18, 140.73 63.94, 137.88 64.64 C135.04 65.33, 132.08 65.97, 129.05 66.53 C126.02 67.1, 122.9 67.6, 119.73 68.04 C116.55 68.47, 113.3 68.83, 110.03 69.12 C106.75 69.41, 103.41 69.63, 100.08 69.78 C96.74 69.93, 93.36 70, 90 70 C86.64 70, 83.26 69.93, 79.92 69.78 C76.59 69.63, 73.25 69.41, 69.97 69.12 C66.7 68.83, 63.45 68.47, 60.27 68.04 C57.1 67.6, 53.98 67.1, 50.95 66.53 C47.92 65.97, 44.96 65.33, 42.12 64.64 C39.27 63.94, 36.51 63.18, 33.89 62.36 C31.26 61.55, 28.74 60.67, 26.36 59.75 C23.99 58.83, 21.73 57.84, 19.64 56.82 C17.54 55.8, 15.58 54.73, 13.79 53.62 C12.01 52.52, 10.37 51.36, 8.91 50.19 C7.46 49.01, 6.16 47.79, 5.05 46.56 C3.94 45.33, 3 44.06, 2.26 42.79 C1.51 41.51, 0.94 40.22, 0.57 38.92 C0.19 37.62, 0 36.31, 0 35 C0 33.69, 0.19 32.38, 0.57 31.08 C0.94 29.78, 1.51 28.49, 2.26 27.21 C3 25.94, 3.94 24.67, 5.05 23.44 C6.16 22.21, 7.46 20.99, 8.91 19.81 C10.37 18.64, 12.01 17.48, 13.79 16.38 C15.58 15.27, 17.54 14.2, 19.64 13.18 C21.73 12.16, 23.99 11.17, 26.36 10.25 C28.74 9.33, 31.26 8.45, 33.89 7.64 C36.51 6.82, 39.27 6.06, 42.12 5.36 C44.96 4.67, 47.92 4.03, 50.95 3.47 C53.98 2.9, 57.1 2.4, 60.27 1.96 C63.45 1.53, 66.7 1.17, 69.97 0.88 C73.25 0.59, 76.59 0.37, 79.92 0.22 C83.26 0.07, 86.64 0, 90 0 C93.36 0, 96.74 0.07, 100.08 0.22 C103.41 0.37, 106.75 0.59, 110.03 0.88 C113.3 1.17, 116.55 1.53, 119.73 1.96 C122.9 2.4, 126.02 2.9, 129.05 3.47 C132.08 4.03, 135.04 4.67, 137.88 5.36 C140.73 6.06, 143.49 6.82, 146.11 7.64 C148.74 8.45, 151.26 9.33, 153.64 10.25 C156.01 11.17, 158.27 12.16, 160.36 13.18 C162.46 14.2, 164.42 15.27, 166.21 16.38 C167.99 17.48, 169.63 18.64, 171.09 19.81 C172.54 20.99, 173.84 22.21, 174.95 23.44 C176.06 24.67, 177 25.94, 177.74 27.21 C178.49 28.49, 179.06 29.78, 179.43 31.08 C179.81 32.38, 179.91 34.35, 180 35 C180.09 35.65, 180.09 34.35, 180 35" stroke="none" stroke-width="0" fill="#e7f5ff"/><path d="M180 35 C180 36.31, 179.81 37.62, 179.43 38.92 C179.06 40.22, 178.49 41.51, 177.74 42.79 C177 44.06, 176.06 45.33, 174.95 46.56 C173.84 47.79, 172.54 49.01, 171.09 50.19 C169.63 51.36, 167.99 52.52, 166.21 53.62 C164.42 54.73, 162.46 55.8, 160.36 56.82 C158.27 57.84, 156.01 58.83, 153.64 59.75 C151.26 60.67, 148.74 61.55, 146.11 62.36 C143.49 63.18, 140.73 63.94, 137.88 64.64 C135.04 65.33, 132.08 65.97, 129.05 66.53 C126.02 67.1, 122.9 67.6, 119.73 68.04 C116.55 68.47, 113.3 68.83, 110.03 69.12 C106.75 69.41, 103.41 69.63, 100.08 69.78 C96.74 69.93, 93.36 70, 90 70 C86.64 70, 83.26 69.93, 79.92 69.78 C76.59 69.63, 73.25 69.41, 69.97 69.12 C66.7 68.83, 63.45 68.47, 60.27 68.04 C57.1 67.6, 53.98 67.1, 50.95 66.53 C47.92 65.97, 44.96 65.33, 42.12 64.64 C39.27 63.94, 36.51 63.18, 33.89 62.36 C31.26 61.55, 28.74 60.67, 26.36 59.75 C23.99 58.83, 21.73 57.84, 19.64 56.82 C17.54 55.8, 15.58 54.73, 13.79 53.62 C12.01 52.52, 10.37 51.36, 8.91 50.19 C7.46 49.01, 6.16 47.79, 5.05 46.56 C3.94 45.33, 3 44.06, 2.26 42.79 C1.51 41.51, 0.94 40.22, 0.57 38.92 C0.19 37.62, 0 36.31, 0 35 C0 33.69, 0.19 32.38, 0.57 31.08 C0.94 29.78, 1.51 28.49, 2.26 27.21 C3 25.94, 3.94 24.67, 5.05 23.44 C6.16 22.21, 7.46 20.99, 8.91 19.81 C10.37 18.64, 12.01 17.48, 13.79 16.38 C15.58 15.27, 17.54 14.2, 19.64 13.18 C21.73 12.16, 23.99 11.17, 26.36 10.25 C28.74 9.33, 31.26 8.45, 33.89 7.64 C36.51 6.82, 39.27 6.06, 42.12 5.36 C44.96 4.67, 47.92 4.03, 50.95 3.47 C53.98 2.9, 57.1 2.4, 60.27 1.96 C63.45 1.53, 66.7 1.17, 69.97 0.88 C73.25 0.59, 76.59 0.37, 79.92 0.22 C83.26 0.07, 86.64 0, 90 0 C93.36 0, 96.74 0.07, 100.08 0.22 C103.41 0.37, 106.75 0.59, 110.03 0.88 C113.3 1.17, 116.55 1.53, 119.73 1.96 C122.9 2.4, 126.02 2.9, 129.05 3.47 C132.08 4.03, 135.04 4.67, 137.88 5.36 C140.73 6.06, 143.49 6.82, 146.11 7.64 C148.74 8.45, 151.26 9.33, 153.64 10.25 C156.01 11.17, 158.27 12.16, 160.36 13.18 C162.46 14.2, 164.42 15.27, 166.21 16.38 C167.99 17.48, 169.63 18.64, 171.09 19.81 C172.54 20.99, 173.84 22.21, 174.95 23.44 C176.06 24.67, 177 25.94, 177.74 27.21 C178.49 28.49, 179.06 29.78, 179.43 31.08 C179.81 32.38, 179.91 34.35, 180 35 C180.09 35.65, 180.09 34.35, 180 35" stroke="#1971c2" stroke-width="2" fill="none"/></g><g transform="translate(480 148) rotate(0 60 17)"><text x="60" y="0" font-family="Virgil, Segoe UI Emoji" font-size="14px" fill="#1971c2" text-anchor="middle" style="white-space: pre;" direction="ltr" dominant-baseline="text-before-edge">Client</text><text x="60" y="17" font-family="Virgil, Segoe UI Emoji" font-size="14px" fill="#1971c2" text-anchor="middle" style="white-space: pre;" direction="ltr" dominant-baseline="text-before-edge">POST /query</text></g><g stroke-linecap="round"><g transform="translate(540 200) rotate(0 0 20)"><path d="M0 0 C0 8, 0 16.01, 0 40 M0 0 C0 9.6, 0 19.19, 0 40" stroke="#1971c2" stroke-width="2" fill="none"/></g><g transform="translate(540 200) rotate(0 0 20)"><path d="M-6.84 21.21 C-5.47 24.97, -4.1 28.73, 0 40 M-6.84 21.21 C-5.2 25.71, -3.56 30.22, 0 40" stroke="#1971c2" stroke-width="2" fill="none"/></g><g transform="translate(540 200) rotate(0 0 20)"><path d="M6.84 21.21 C5.47 24.97, 4.1 28.73, 0 40 M6.84 21.21 C5.2 25.71, 3.56 30.22, 0 40" stroke="#1971c2" stroke-width="2" fill="none"/></g></g><mask/><g stroke-linecap="round" transform="translate(340 240) rotate(0 200 35)"><path d="M17.5 0 C163.33 0, 309.16 0, 382.5 0 C394.17 0, 400 5.83, 400 17.5 C400 30.12, 400 42.75, 400 52.5 C400 64.17, 394.17 70, 382.5 70 C286.63 70, 190.76 70, 17.5 70 C5.83 70, 0 64.17, 0 52.5 C0 42.1, 0 31.69, 0 17.5 C0 5.83, 5.83 0, 17.5 0" stroke="none" stroke-width="0" fill="#d0bfff"/><path d="M17.5 0 C90.55 0, 163.6 0, 382.5 0 M17.5 0 C148.83 0, 280.16 0, 382.5 0 M382.5 0 C394.17 0, 400 5.83, 400 17.5 M382.5 0 C394.17 0, 400 5.83, 400 17.5 M400 17.5 C400 28.88, 400 40.25, 400 52.5 M400 17.5 C400 27.5, 400 37.5, 400 52.5 M400 52.5 C400 64.17, 394.17 70, 382.5 70 M400 52.5 C400 64.17, 394.17 70, 382.5 70 M382.5 70 C283.89 70, 185.27 70, 17.5 70 M382.5 70 C282.27 70, 182.03 70, 17.5 70 M17.5 70 C5.83 70, 0 64.17, 0 52.5 M17.5 70 C5.83 70, 0 64.17, 0 52.5 M0 52.5 C0 45.35, 0 38.2, 0 17.5 M0 52.5 C0 42.26, 0 32.02, 0 17.5 M0 17.5 C0 5.83, 5.83 0, 17.5 0 M0 17.5 C0 5.83, 5.83 0, 17.5 0" stroke="#7048e8" stroke-width="2" fill="none"/></g><g transform="translate(391.5361633300781 252) rotate(0 148.46383666992188 23)"><text x="148.46383666992188" y="0" font-family="Virgil, Segoe UI Emoji" font-size="12px" fill="#7048e8" text-anchor="middle" style="white-space: pre;" direction="ltr" dominant-baseline="text-before-edge">Cloudflare Worker (Router)</text><text x="148.46383666992188" y="15.333333333333336" font-family="Virgil, Segoe UI Emoji" font-size="12px" fill="#7048e8" text-anchor="middle" style="white-space: pre;" direction="ltr" dominant-baseline="text-before-edge">Extracts CF-Ray datacenter, sets x-querymode-region</text><text x="148.46383666992188" y="30.66666666666667" font-family="Virgil, Segoe UI Emoji" font-size="12px" fill="#7048e8" text-anchor="middle" style="white-space: pre;" direction="ltr" dominant-baseline="text-before-edge">/query | /query/stream | /write | /refresh</text></g><g stroke-linecap="round"><g transform="translate(334 274.9) rotate(0 -112.05 36.80000000000001)"><path d="M0 0 C-44.86 0, -89.72 0, -224.1 0 M0 0 C-62.69 0, -125.39 0, -224.1 0 M-224.1 0 C-224.1 15.11, -224.1 30.23, -224.1 73.6 M-224.1 0 C-224.1 15.55, -224.1 31.1, -224.1 73.6" stroke="#c92a2a" stroke-width="2" fill="none"/></g><g transform="translate(334 274.9) rotate(0 -112.05 36.80000000000001)"><path d="M-234.36 45.41 C-232.31 51.05, -230.25 56.7, -224.1 73.6 M-234.36 45.41 C-231.49 53.3, -228.62 61.18, -224.1 73.6" stroke="#c92a2a" stroke-width="2" fill="none"/></g><g transform="translate(334 274.9) rotate(0 -112.05 36.80000000000001)"><path d="M-213.84 45.41 C-215.89 51.05, -217.95 56.7, -224.1 73.6 M-213.84 45.41 C-216.71 53.3, -219.58 61.18, -224.1 73.6" stroke="#c92a2a" stroke-width="2" fill="none"/></g></g><mask/><g transform="translate(180.86938827907136 258.62327992895564) rotate(0 50 9)"><text x="50" y="0" font-family="Virgil, Segoe UI Emoji" font-size="11px" fill="#c92a2a" text-anchor="middle" style="white-space: pre;" direction="ltr" dominant-baseline="text-before-edge">/write, /refresh</text></g><g stroke-linecap="round" transform="translate(10 355) rotate(0 100 60)"><path d="M30 0 C85.89 0, 141.78 0, 170 0 C190 0, 200 10, 200 30 C200 46.07, 200 62.14, 200 90 C200 110, 190 120, 170 120 C118.05 120, 66.09 120, 30 120 C10 120, 0 110, 0 90 C0 68.28, 0 46.56, 0 30 C0 10, 10 0, 30 0" stroke="none" stroke-width="0" fill="#ffa8a8"/><path d="M30 0 C58.03 0, 86.06 0, 170 0 M30 0 C85.96 0, 141.91 0, 170 0 M170 0 C190 0, 200 10, 200 30 M170 0 C190 0, 200 10, 200 30 M200 30 C200 46.51, 200 63.01, 200 90 M200 30 C200 46.57, 200 63.13, 200 90 M200 90 C200 110, 190 120, 170 120 M200 90 C200 110, 190 120, 170 120 M170 120 C116.29 120, 62.59 120, 30 120 M170 120 C115.26 120, 60.52 120, 30 120 M30 120 C10 120, 0 110, 0 90 M30 120 C10 120, 0 110, 0 90 M0 90 C0 69.57, 0 49.14, 0 30 M0 90 C0 76.75, 0 63.5, 0 30 M0 30 C0 10, 10 0, 30 0 M0 30 C0 10, 10 0, 30 0" stroke="#c92a2a" stroke-width="3" fill="none"/></g><g transform="translate(42.8505859375 365) rotate(0 67.1494140625 50)"><text x="67.1494140625" y="0" font-family="Virgil, Segoe UI Emoji" font-size="11px" fill="#c92a2a" text-anchor="middle" style="white-space: pre;" direction="ltr" dominant-baseline="text-before-edge">Master DO</text><text x="67.1494140625" y="14.285714285714285" font-family="Virgil, Segoe UI Emoji" font-size="11px" fill="#c92a2a" text-anchor="middle" style="white-space: pre;" direction="ltr" dominant-baseline="text-before-edge">(Single Writer)</text><text x="67.1494140625" y="28.57142857142857" font-family="Virgil, Segoe UI Emoji" font-size="11px" fill="#c92a2a" text-anchor="middle" style="white-space: pre;" direction="ltr" dominant-baseline="text-before-edge"/><text x="67.1494140625" y="42.857142857142854" font-family="Virgil, Segoe UI Emoji" font-size="11px" fill="#c92a2a" text-anchor="middle" style="white-space: pre;" direction="ltr" dominant-baseline="text-before-edge">SQLite: TableMeta</text><text x="67.1494140625" y="57.14285714285714" font-family="Virgil, Segoe UI Emoji" font-size="11px" fill="#c92a2a" text-anchor="middle" style="white-space: pre;" direction="ltr" dominant-baseline="text-before-edge">Reads footers from R2</text><text x="67.1494140625" y="71.42857142857142" font-family="Virgil, Segoe UI Emoji" font-size="11px" fill="#c92a2a" text-anchor="middle" style="white-space: pre;" direction="ltr" dominant-baseline="text-before-edge">Broadcasts invalidations</text><text x="67.1494140625" y="85.71428571428571" font-family="Virgil, Segoe UI Emoji" font-size="11px" fill="#c92a2a" text-anchor="middle" style="white-space: pre;" direction="ltr" dominant-baseline="text-before-edge">Returns tableVersions</text></g><g stroke-linecap="round" transform="translate(246.52424091601654 344.3709642358241) rotate(0 406.73787954199173 107.75729011254606)"><path d="M32 0 C182.08 0, 332.16 0, 781.48 0 M781.48 0 C802.81 0, 813.48 10.67, 813.48 32 M813.48 32 C813.48 88.72, 813.48 145.44, 813.48 183.51 M813.48 183.51 C813.48 204.85, 802.81 215.51, 781.48 215.51 M781.48 215.51 C509.7 215.51, 237.92 215.51, 32 215.51 M32 215.51 C10.67 215.51, 0 204.85, 0 183.51 M0 183.51 C0 128.7, 0 73.89, 0 32 M0 32 C0 10.67, 10.67 0, 32 0" stroke="#868e96" stroke-width="1.5" fill="none" stroke-dasharray="8 9"/></g><g transform="translate(258.9958618816381 347.6982727285686) rotate(0 151.1038818359375 9)"><text x="0" y="0" font-family="Virgil, Segoe UI Emoji" font-size="12px" fill="#868e96" text-anchor="start" style="white-space: pre;" direction="ltr" dominant-baseline="text-before-edge">Regional Query DOs (1 per datacenter)</text></g><g stroke-linecap="round" transform="translate(290 375.1260756922146) rotate(0 105 80)"><path d="M32 0 C90.26 0, 148.53 0, 178 0 C199.33 0, 210 10.67, 210 32 C210 62.85, 210 93.7, 210 128 C210 149.33, 199.33 160, 178 160 C130.5 160, 83.01 160, 32 160 C10.67 160, 0 149.33, 0 128 C0 90.13, 0 52.27, 0 32 C0 10.67, 10.67 0, 32 0" stroke="none" stroke-width="0" fill="#a5d8ff"/><path d="M32 0 C61.24 0, 90.48 0, 178 0 M32 0 C78.67 0, 125.33 0, 178 0 M178 0 C199.33 0, 210 10.67, 210 32 M178 0 C199.33 0, 210 10.67, 210 32 M210 32 C210 56.01, 210 80.03, 210 128 M210 32 C210 67.65, 210 103.29, 210 128 M210 128 C210 149.33, 199.33 160, 178 160 M210 128 C210 149.33, 199.33 160, 178 160 M178 160 C128.31 160, 78.62 160, 32 160 M178 160 C127.01 160, 76.03 160, 32 160 M32 160 C10.67 160, 0 149.33, 0 128 M32 160 C10.67 160, 0 149.33, 0 128 M0 128 C0 107.98, 0 87.96, 0 32 M0 128 C0 91.04, 0 54.08, 0 32 M0 32 C0 10.67, 10.67 0, 32 0 M0 32 C0 10.67, 10.67 0, 32 0" stroke="#1971c2" stroke-width="2" fill="none"/></g><g transform="translate(320.4200744628906 385.1260756922146) rotate(0 74.57992553710938 70)"><text x="74.57992553710938" y="0" font-family="Virgil, Segoe UI Emoji" font-size="11px" fill="#1971c2" text-anchor="middle" style="white-space: pre;" direction="ltr" dominant-baseline="text-before-edge">Query DO — SJC</text><text x="74.57992553710938" y="15.555555555555555" font-family="Virgil, Segoe UI Emoji" font-size="11px" fill="#1971c2" text-anchor="middle" style="white-space: pre;" direction="ltr" dominant-baseline="text-before-edge"/><text x="74.57992553710938" y="31.11111111111111" font-family="Virgil, Segoe UI Emoji" font-size="11px" fill="#1971c2" text-anchor="middle" style="white-space: pre;" direction="ltr" dominant-baseline="text-before-edge">Footer cache (~4KB/table)</text><text x="74.57992553710938" y="46.666666666666664" font-family="Virgil, Segoe UI Emoji" font-size="11px" fill="#1971c2" text-anchor="middle" style="white-space: pre;" direction="ltr" dominant-baseline="text-before-edge">WASM Engine (Zig SIMD)</text><text x="74.57992553710938" y="62.22222222222222" font-family="Virgil, Segoe UI Emoji" font-size="11px" fill="#1971c2" text-anchor="middle" style="white-space: pre;" direction="ltr" dominant-baseline="text-before-edge">Streaming operator pipeline</text><text x="74.57992553710938" y="77.77777777777777" font-family="Virgil, Segoe UI Emoji" font-size="11px" fill="#1971c2" text-anchor="middle" style="white-space: pre;" direction="ltr" dominant-baseline="text-before-edge">VIP eviction (zell)</text><text x="74.57992553710938" y="93.33333333333333" font-family="Virgil, Segoe UI Emoji" font-size="11px" fill="#1971c2" text-anchor="middle" style="white-space: pre;" direction="ltr" dominant-baseline="text-before-edge">Coalesced Range reads</text><text x="74.57992553710938" y="108.88888888888889" font-family="Virgil, Segoe UI Emoji" font-size="11px" fill="#1971c2" text-anchor="middle" style="white-space: pre;" direction="ltr" dominant-baseline="text-before-edge">refreshStaleTables()</text><text x="74.57992553710938" y="124.44444444444444" font-family="Virgil, Segoe UI Emoji" font-size="11px" fill="#1971c2" text-anchor="middle" style="white-space: pre;" direction="ltr" dominant-baseline="text-before-edge">Columnar binary streaming</text></g><g stroke-linecap="round" transform="translate(560 375) rotate(0 105 80)"><path d="M32 0 C90.24 0, 148.48 0, 178 0 C199.33 0, 210 10.67, 210 32 C210 67.99, 210 103.98, 210 128 C210 149.33, 199.33 160, 178 160 C137.19 160, 96.37 160, 32 160 C10.67 160, 0 149.33, 0 128 C0 106.22, 0 84.45, 0 32 C0 10.67, 10.67 0, 32 0" stroke="none" stroke-width="0" fill="#a5d8ff"/><path d="M32 0 C61.25 0, 90.49 0, 178 0 M32 0 C66.98 0, 101.95 0, 178 0 M178 0 C199.33 0, 210 10.67, 210 32 M178 0 C199.33 0, 210 10.67, 210 32 M210 32 C210 53.62, 210 75.23, 210 128 M210 32 C210 57.59, 210 83.18, 210 128 M210 128 C210 149.33, 199.33 160, 178 160 M210 128 C210 149.33, 199.33 160, 178 160 M178 160 C134.63 160, 91.25 160, 32 160 M178 160 C133.12 160, 88.23 160, 32 160 M32 160 C10.67 160, 0 149.33, 0 128 M32 160 C10.67 160, 0 149.33, 0 128 M0 128 C0 101.44, 0 74.88, 0 32 M0 128 C0 94.48, 0 60.96, 0 32 M0 32 C0 10.67, 10.67 0, 32 0 M0 32 C0 10.67, 10.67 0, 32 0" stroke="#1971c2" stroke-width="2" fill="none"/></g><g transform="translate(575 385) rotate(0 90 70)"><text x="90" y="0" font-family="Virgil, Segoe UI Emoji" font-size="11px" fill="#1971c2" text-anchor="middle" style="white-space: pre;" direction="ltr" dominant-baseline="text-before-edge">Query DO — NRT</text><text x="90" y="15.555555555555555" font-family="Virgil, Segoe UI Emoji" font-size="11px" fill="#1971c2" text-anchor="middle" style="white-space: pre;" direction="ltr" dominant-baseline="text-before-edge"/><text x="90" y="31.11111111111111" font-family="Virgil, Segoe UI Emoji" font-size="11px" fill="#1971c2" text-anchor="middle" style="white-space: pre;" direction="ltr" dominant-baseline="text-before-edge">Footer cache (~4KB/table)</text><text x="90" y="46.666666666666664" font-family="Virgil, Segoe UI Emoji" font-size="11px" fill="#1971c2" text-anchor="middle" style="white-space: pre;" direction="ltr" dominant-baseline="text-before-edge">WASM Engine (Zig SIMD)</text><text x="90" y="62.22222222222222" font-family="Virgil, Segoe UI Emoji" font-size="11px" fill="#1971c2" text-anchor="middle" style="white-space: pre;" direction="ltr" dominant-baseline="text-before-edge">Streaming operator pipeline</text><text x="90" y="77.77777777777777" font-family="Virgil, Segoe UI Emoji" font-size="11px" fill="#1971c2" text-anchor="middle" style="white-space: pre;" direction="ltr" dominant-baseline="text-before-edge">VIP eviction (zell)</text><text x="90" y="93.33333333333333" font-family="Virgil, Segoe UI Emoji" font-size="11px" fill="#1971c2" text-anchor="middle" style="white-space: pre;" direction="ltr" dominant-baseline="text-before-edge">Coalesced Range reads</text><text x="90" y="108.88888888888889" font-family="Virgil, Segoe UI Emoji" font-size="11px" fill="#1971c2" text-anchor="middle" style="white-space: pre;" direction="ltr" dominant-baseline="text-before-edge">refreshStaleTables()</text><text x="90" y="124.44444444444444" font-family="Virgil, Segoe UI Emoji" font-size="11px" fill="#1971c2" text-anchor="middle" style="white-space: pre;" direction="ltr" dominant-baseline="text-before-edge">Columnar binary streaming</text></g><g stroke-linecap="round" transform="translate(830 375) rotate(0 105 80)"><path d="M32 0 C90.22 0, 148.44 0, 178 0 C199.33 0, 210 10.67, 210 32 C210 53.93, 210 75.87, 210 128 C210 149.33, 199.33 160, 178 160 C143.87 160, 109.74 160, 32 160 C10.67 160, 0 149.33, 0 128 C0 103.11, 0 78.23, 0 32 C0 10.67, 10.67 0, 32 0" stroke="none" stroke-width="0" fill="#a5d8ff"/><path d="M32 0 C61.25 0, 90.51 0, 178 0 M32 0 C84.49 0, 136.98 0, 178 0 M178 0 C199.33 0, 210 10.67, 210 32 M178 0 C199.33 0, 210 10.67, 210 32 M210 32 C210 51.22, 210 70.44, 210 128 M210 32 C210 66.73, 210 101.46, 210 128 M210 128 C210 149.33, 199.33 160, 178 160 M210 128 C210 149.33, 199.33 160, 178 160 M178 160 C140.95 160, 103.89 160, 32 160 M178 160 C139.22 160, 100.44 160, 32 160 M32 160 C10.67 160, 0 149.33, 0 128 M32 160 C10.67 160, 0 149.33, 0 128 M0 128 C0 94.9, 0 61.81, 0 32 M0 128 C0 97.92, 0 67.84, 0 32 M0 32 C0 10.67, 10.67 0, 32 0 M0 32 C0 10.67, 10.67 0, 32 0" stroke="#1971c2" stroke-width="2" fill="none"/></g><g transform="translate(860.4200744628906 385) rotate(0 74.57992553710938 70)"><text x="74.57992553710938" y="0" font-family="Virgil, Segoe UI Emoji" font-size="11px" fill="#1971c2" text-anchor="middle" style="white-space: pre;" direction="ltr" dominant-baseline="text-before-edge">Query DO — AMS</text><text x="74.57992553710938" y="15.555555555555555" font-family="Virgil, Segoe UI Emoji" font-size="11px" fill="#1971c2" text-anchor="middle" style="white-space: pre;" direction="ltr" dominant-baseline="text-before-edge"/><text x="74.57992553710938" y="31.11111111111111" font-family="Virgil, Segoe UI Emoji" font-size="11px" fill="#1971c2" text-anchor="middle" style="white-space: pre;" direction="ltr" dominant-baseline="text-before-edge">Footer cache (~4KB/table)</text><text x="74.57992553710938" y="46.666666666666664" font-family="Virgil, Segoe UI Emoji" font-size="11px" fill="#1971c2" text-anchor="middle" style="white-space: pre;" direction="ltr" dominant-baseline="text-before-edge">WASM Engine (Zig SIMD)</text><text x="74.57992553710938" y="62.22222222222222" font-family="Virgil, Segoe UI Emoji" font-size="11px" fill="#1971c2" text-anchor="middle" style="white-space: pre;" direction="ltr" dominant-baseline="text-before-edge">Streaming operator pipeline</text><text x="74.57992553710938" y="77.77777777777777" font-family="Virgil, Segoe UI Emoji" font-size="11px" fill="#1971c2" text-anchor="middle" style="white-space: pre;" direction="ltr" dominant-baseline="text-before-edge">VIP eviction (zell)</text><text x="74.57992553710938" y="93.33333333333333" font-family="Virgil, Segoe UI Emoji" font-size="11px" fill="#1971c2" text-anchor="middle" style="white-space: pre;" direction="ltr" dominant-baseline="text-before-edge">Coalesced Range reads</text><text x="74.57992553710938" y="108.88888888888889" font-family="Virgil, Segoe UI Emoji" font-size="11px" fill="#1971c2" text-anchor="middle" style="white-space: pre;" direction="ltr" dominant-baseline="text-before-edge">refreshStaleTables()</text><text x="74.57992553710938" y="124.44444444444444" font-family="Virgil, Segoe UI Emoji" font-size="11px" fill="#1971c2" text-anchor="middle" style="white-space: pre;" direction="ltr" dominant-baseline="text-before-edge">Columnar binary streaming</text></g><g stroke-linecap="round"><g transform="translate(437.3615398845229 316) rotate(0 0 26.5)"><path d="M0 0 C0 10.62, 0 21.24, 0 53 M0 0 C0 14.81, 0 29.62, 0 53" stroke="#1971c2" stroke-width="2" fill="none"/></g><g transform="translate(437.3615398845229 316) rotate(0 0 26.5)"><path d="M-9.06 28.1 C-7.25 33.09, -5.43 38.08, 0 53 M-9.06 28.1 C-6.53 35.06, -4 42.02, 0 53" stroke="#1971c2" stroke-width="2" fill="none"/></g><g transform="translate(437.3615398845229 316) rotate(0 0 26.5)"><path d="M9.06 28.1 C7.25 33.09, 5.43 38.08, 0 53 M9.06 28.1 C6.53 35.06, 4 42.02, 0 53" stroke="#1971c2" stroke-width="2" fill="none"/></g></g><mask/><g stroke-linecap="round"><g transform="translate(664.6486410927621 316) rotate(0 0.12567945361894317 26.5)"><path d="M0 0 C0.05 10.62, 0.1 21.24, 0.25 53 M0 0 C0.09 18.63, 0.18 37.25, 0.25 53" stroke="#1971c2" stroke-width="2" fill="none"/></g><g transform="translate(664.6486410927621 316) rotate(0 0.12567945361894317 26.5)"><path d="M-8.93 28.14 C-7.09 33.12, -5.25 38.11, 0.25 53 M-8.93 28.14 C-5.7 36.88, -2.48 45.61, 0.25 53" stroke="#1971c2" stroke-width="2" fill="none"/></g><g transform="translate(664.6486410927621 316) rotate(0 0.12567945361894317 26.5)"><path d="M9.2 28.06 C7.4 33.05, 5.61 38.05, 0.25 53 M9.2 28.06 C6.05 36.82, 2.91 45.59, 0.25 53" stroke="#1971c2" stroke-width="2" fill="none"/></g></g><mask/><g stroke-linecap="round"><g transform="translate(746 274.9) rotate(0 94.44999999999999 47.05000000000001)"><path d="M0 0 C37.86 0, 75.72 0, 188.9 0 M0 0 C42.21 0, 84.41 0, 188.9 0 M188.9 0 C188.9 21.86, 188.9 43.71, 188.9 94.1 M188.9 0 C188.9 30.67, 188.9 61.34, 188.9 94.1" stroke="#1971c2" stroke-width="2" fill="none"/></g><g transform="translate(746 274.9) rotate(0 94.44999999999999 47.05000000000001)"><path d="M178.64 65.91 C180.7 71.56, 182.75 77.21, 188.9 94.1 M178.64 65.91 C180.93 72.21, 183.22 78.51, 188.9 94.1" stroke="#1971c2" stroke-width="2" fill="none"/></g><g transform="translate(746 274.9) rotate(0 94.44999999999999 47.05000000000001)"><path d="M199.16 65.91 C197.1 71.56, 195.05 77.21, 188.9 94.1 M199.16 65.91 C196.87 72.21, 194.58 78.51, 188.9 94.1" stroke="#1971c2" stroke-width="2" fill="none"/></g></g><mask/><g stroke-linecap="round"><g transform="translate(156.53859030871354 348.5) rotate(0 131.88768153262419 -1.233695184851797)"><path d="M0 0 C0 -4.63, 0 -9.26, 0 -23.09 M0 -23.09 C105.35 -23.09, 210.69 -23.09, 263.78 -23.09 M263.78 -23.09 C263.78 -9.39, 263.78 4.31, 263.78 20.63" stroke="#e03131" stroke-width="2.5" fill="none" stroke-dasharray="8 10"/></g><g transform="translate(156.53859030871354 348.5) rotate(0 131.88768153262419 -1.233695184851797)"><path d="M256.3 0.08 C257.8 4.2, 259.3 8.32, 263.78 20.63" stroke="#e03131" stroke-width="2.5" fill="none"/></g><g transform="translate(156.53859030871354 348.5) rotate(0 131.88768153262419 -1.233695184851797)"><path d="M271.25 0.08 C269.75 4.2, 268.25 8.32, 263.78 20.63" stroke="#e03131" stroke-width="2.5" fill="none"/></g></g><mask/><g stroke-linecap="round"><g transform="translate(156.6008256224425 348.5) rotate(0 242.68574540449845 -1.4075311531416617)"><path d="M0 0 C0 -4.67, 0 -9.35, 0 -23.32 M0 -23.32 C131.72 -23.32, 263.44 -23.32, 485.37 -23.32 M485.37 -23.32 C485.37 -8.05, 485.37 7.22, 485.37 20.5" stroke="#e03131" stroke-width="2.5" fill="none" stroke-dasharray="8 10"/></g><g transform="translate(156.6008256224425 348.5) rotate(0 242.68574540449845 -1.4075311531416617)"><path d="M477.88 -0.09 C479.38 4.04, 480.88 8.17, 485.37 20.5" stroke="#e03131" stroke-width="2.5" fill="none"/></g><g transform="translate(156.6008256224425 348.5) rotate(0 242.68574540449845 -1.4075311531416617)"><path d="M492.86 -0.09 C491.36 4.04, 489.86 8.17, 485.37 20.5" stroke="#e03131" stroke-width="2.5" fill="none"/></g></g><mask/><g stroke-linecap="round"><g transform="translate(156.05479949636134 348.5) rotate(0 379.0740933097204 -1.3732997394552058)"><path d="M0 0 C0 -4.66, 0 -9.32, 0 -23.25 M0 -23.25 C260.32 -23.25, 520.65 -23.25, 758.15 -23.25 M758.15 -23.25 C758.15 -6.46, 758.15 10.32, 758.15 20.5" stroke="#e03131" stroke-width="2.5" fill="none" stroke-dasharray="8 10"/></g><g transform="translate(156.05479949636134 348.5) rotate(0 379.0740933097204 -1.3732997394552058)"><path d="M750.67 -0.05 C752.17 4.07, 753.67 8.19, 758.15 20.5" stroke="#e03131" stroke-width="2.5" fill="none"/></g><g transform="translate(156.05479949636134 348.5) rotate(0 379.0740933097204 -1.3732997394552058)"><path d="M765.63 -0.05 C764.13 4.07, 762.63 8.19, 758.15 20.5" stroke="#e03131" stroke-width="2.5" fill="none"/></g></g><mask/><g transform="translate(220.18393542143792 307.9867838374623) rotate(0 30 7)"><text x="0" y="0" font-family="Virgil, Segoe UI Emoji" font-size="10px" fill="#e03131" text-anchor="start" style="white-space: pre;" direction="ltr" dominant-baseline="text-before-edge">broadcast</text></g><g stroke-linecap="round"><g transform="translate(910.0388474205876 541) rotate(0 -384.6388416223495 -11.75)"><path d="M0 0 C0 7.22, 0 14.43, 0 36 M0 36 C-276.44 36, -552.88 36, -769.28 36 M-769.28 36 C-769.28 8.4, -769.28 -19.2, -769.28 -59.5" stroke="#2f9e44" stroke-width="1.5" fill="none" stroke-dasharray="1.5 7"/></g><g transform="translate(910.0388474205876 541) rotate(0 -384.6388416223495 -11.75)"><path d="M-759.02 -31.31 C-761.07 -36.96, -763.13 -42.61, -769.28 -59.5" stroke="#2f9e44" stroke-width="1.5" fill="none" stroke-dasharray="1.5 5"/></g><g transform="translate(910.0388474205876 541) rotate(0 -384.6388416223495 -11.75)"><path d="M-779.54 -31.31 C-777.48 -36.96, -775.42 -42.61, -769.28 -59.5" stroke="#2f9e44" stroke-width="1.5" fill="none" stroke-dasharray="1.5 5"/></g></g><mask/><g stroke-linecap="round"><g transform="translate(651.5336446297817 541) rotate(0 -255.2329500519403 -11.75)"><path d="M0 0 C0 12.04, 0 24.08, 0 36 M0 36 C-198.44 36, -396.87 36, -510.47 36 M-510.47 36 C-510.47 4.79, -510.47 -26.41, -510.47 -59.5" stroke="#2f9e44" stroke-width="1.5" fill="none" stroke-dasharray="1.5 7"/></g><g transform="translate(651.5336446297817 541) rotate(0 -255.2329500519403 -11.75)"><path d="M-500.21 -31.31 C-503.64 -40.74, -507.07 -50.16, -510.47 -59.5" stroke="#2f9e44" stroke-width="1.5" fill="none" stroke-dasharray="1.5 5"/></g><g transform="translate(651.5336446297817 541) rotate(0 -255.2329500519403 -11.75)"><path d="M-520.73 -31.31 C-517.3 -40.74, -513.86 -50.16, -510.47 -59.5" stroke="#2f9e44" stroke-width="1.5" fill="none" stroke-dasharray="1.5 5"/></g></g><mask/><g stroke-linecap="round"><g transform="translate(379.14210488219373 541.1260756922146) rotate(0 -118.71098619667417 -11.813037846107306)"><path d="M0 0 C0 14.09, 0 28.18, 0 36 M0 36 C-51.76 36, -103.52 36, -237.42 36 M-237.42 36 C-237.42 11.97, -237.42 -12.06, -237.42 -59.63" stroke="#2f9e44" stroke-width="1.5" fill="none" stroke-dasharray="1.5 7"/></g><g transform="translate(379.14210488219373 541.1260756922146) rotate(0 -118.71098619667417 -11.813037846107306)"><path d="M-227.16 -31.44 C-231.18 -42.47, -235.19 -53.5, -237.42 -59.63" stroke="#2f9e44" stroke-width="1.5" fill="none" stroke-dasharray="1.5 5"/></g><g transform="translate(379.14210488219373 541.1260756922146) rotate(0 -118.71098619667417 -11.813037846107306)"><path d="M-247.68 -31.44 C-243.67 -42.47, -239.65 -53.5, -237.42 -59.63" stroke="#2f9e44" stroke-width="1.5" fill="none" stroke-dasharray="1.5 5"/></g></g><mask/><g transform="translate(133.30493052894323 547.3141100025971) rotate(0 70.00000000000001 14)"><text x="70" y="0" font-family="Virgil, Segoe UI Emoji" font-size="10px" fill="#2f9e44" text-anchor="middle" style="white-space: pre;" direction="ltr" dominant-baseline="text-before-edge">register on wake</text><text x="70" y="14" font-family="Virgil, Segoe UI Emoji" font-size="10px" fill="#2f9e44" text-anchor="middle" style="white-space: pre;" direction="ltr" dominant-baseline="text-before-edge">+ refreshStaleTables()</text></g><g stroke-linecap="round" transform="translate(290 630.1268291108768) rotate(0 250 50)"><path d="M25 0 C204.23 0, 383.46 0, 475 0 C491.67 0, 500 8.33, 500 25 C500 44.46, 500 63.91, 500 75 C500 91.67, 491.67 100, 475 100 C341.61 100, 208.22 100, 25 100 C8.33 100, 0 91.67, 0 75 C0 57.18, 0 39.35, 0 25 C0 8.33, 8.33 0, 25 0" stroke="none" stroke-width="0" fill="#ffec99"/><path d="M25 0 C115.22 0, 205.45 0, 475 0 M25 0 C168.69 0, 312.39 0, 475 0 M475 0 C491.67 0, 500 8.33, 500 25 M475 0 C491.67 0, 500 8.33, 500 25 M500 25 C500 41.26, 500 57.53, 500 75 M500 25 C500 37.37, 500 49.74, 500 75 M500 75 C500 91.67, 491.67 100, 475 100 M500 75 C500 91.67, 491.67 100, 475 100 M475 100 C329.21 100, 183.42 100, 25 100 M475 100 C321.89 100, 168.79 100, 25 100 M25 100 C8.33 100, 0 91.67, 0 75 M25 100 C8.33 100, 0 91.67, 0 75 M0 75 C0 57.55, 0 40.1, 0 25 M0 75 C0 64.71, 0 54.42, 0 25 M0 25 C0 8.33, 8.33 0, 25 0 M0 25 C0 8.33, 8.33 0, 25 0" stroke="#f08c00" stroke-width="2" fill="none"/></g><g transform="translate(389.0311584472656 640.1268291108768) rotate(0 150.96884155273438 40)"><text x="150.96884155273438" y="0" font-family="Virgil, Segoe UI Emoji" font-size="13px" fill="#f08c00" text-anchor="middle" style="white-space: pre;" direction="ltr" dominant-baseline="text-before-edge">R2 Data Lake</text><text x="150.96884155273438" y="20" font-family="Virgil, Segoe UI Emoji" font-size="13px" fill="#f08c00" text-anchor="middle" style="white-space: pre;" direction="ltr" dominant-baseline="text-before-edge">Lance files + _versions/*.manifest</text><text x="150.96884155273438" y="40" font-family="Virgil, Segoe UI Emoji" font-size="13px" fill="#f08c00" text-anchor="middle" style="white-space: pre;" direction="ltr" dominant-baseline="text-before-edge">Coalesced Range reads (~10ms via R2 bindings)</text><text x="150.96884155273438" y="60" font-family="Virgil, Segoe UI Emoji" font-size="13px" fill="#f08c00" text-anchor="middle" style="white-space: pre;" direction="ltr" dominant-baseline="text-before-edge">Free egress, $0.36/M Class B ops</text></g><g stroke-linecap="round"><g transform="translate(394.9 541.1260756922146) rotate(0 0.05000000000001137 41.500376709331135)"><path d="M0 0 C0.02 16.64, 0.04 33.29, 0.1 83 M0 0 C0.02 19.86, 0.05 39.72, 0.1 83" stroke="#f08c00" stroke-width="2" fill="none"/></g><g transform="translate(394.9 541.1260756922146) rotate(0 0.05000000000001137 41.500376709331135)"><path d="M-10.19 54.82 C-8.13 60.47, -6.07 66.12, 0.1 83 M-10.19 54.82 C-7.73 61.56, -5.27 68.31, 0.1 83" stroke="#f08c00" stroke-width="2" fill="none"/></g><g transform="translate(394.9 541.1260756922146) rotate(0 0.05000000000001137 41.500376709331135)"><path d="M10.33 54.8 C8.28 60.45, 6.22 66.11, 0.1 83 M10.33 54.8 C7.88 61.55, 5.43 68.29, 0.1 83" stroke="#f08c00" stroke-width="2" fill="none"/></g></g><mask/><g stroke-linecap="round"><g transform="translate(664.9 541) rotate(0 0.05000000000001137 41.56341455543844)"><path d="M0 0 C0.02 16.67, 0.04 33.34, 0.1 83.13 M0 0 C0.03 25.87, 0.06 51.75, 0.1 83.13" stroke="#f08c00" stroke-width="2" fill="none"/></g><g transform="translate(664.9 541) rotate(0 0.05000000000001137 41.56341455543844)"><path d="M-10.19 54.95 C-8.13 60.6, -6.07 66.25, 0.1 83.13 M-10.19 54.95 C-6.99 63.72, -3.79 72.49, 0.1 83.13" stroke="#f08c00" stroke-width="2" fill="none"/></g><g transform="translate(664.9 541) rotate(0 0.05000000000001137 41.56341455543844)"><path d="M10.33 54.92 C8.28 60.58, 6.22 66.24, 0.1 83.13 M10.33 54.92 C7.14 63.7, 3.96 72.48, 0.1 83.13" stroke="#f08c00" stroke-width="2" fill="none"/></g></g><mask/><g stroke-linecap="round"><g transform="translate(934.9 541) rotate(0 -87.10447939137072 41.56341455543844)"><path d="M0 0 C0 9.77, 0 19.54, 0 48.72 M0 0 C0 18.67, 0 37.34, 0 48.72 M0 48.72 C-49.87 48.72, -99.75 48.72, -174.21 48.72 M0 48.72 C-66.96 48.72, -133.92 48.72, -174.21 48.72 M-174.21 48.72 C-174.21 59.2, -174.21 69.68, -174.21 83.13 M-174.21 48.72 C-174.21 62.17, -174.21 75.62, -174.21 83.13" stroke="#f08c00" stroke-width="2" fill="none"/></g><g transform="translate(934.9 541) rotate(0 -87.10447939137072 41.56341455543844)"><path d="M-180.09 66.96 C-178.91 70.2, -177.73 73.44, -174.21 83.13 M-180.09 66.96 C-177.84 73.16, -175.58 79.35, -174.21 83.13" stroke="#f08c00" stroke-width="2" fill="none"/></g><g transform="translate(934.9 541) rotate(0 -87.10447939137072 41.56341455543844)"><path d="M-168.32 66.96 C-169.5 70.2, -170.69 73.44, -174.21 83.13 M-168.32 66.96 C-170.58 73.16, -172.83 79.35, -174.21 83.13" stroke="#f08c00" stroke-width="2" fill="none"/></g></g><mask/><g stroke-linecap="round"><g transform="translate(110 475.0855760892159) rotate(0 115 77.5)"><path d="M0 0 C0 26.91, 0 53.82, 0 134.18 M0 0 C0 34.25, 0 68.5, 0 134.18 M0 134.18 C73.93 134.18, 147.85 134.18, 230 134.18 M0 134.18 C82.72 134.18, 165.43 134.18, 230 134.18 M230 134.18 C230 139.72, 230 145.26, 230 155 M230 134.18 C230 139.01, 230 143.84, 230 155" stroke="#c92a2a" stroke-width="2" fill="none"/></g><g transform="translate(110 475.0855760892159) rotate(0 115 77.5)"><path d="M226.44 145.22 C227.15 147.18, 227.87 149.14, 230 155 M226.44 145.22 C227.35 147.72, 228.26 150.21, 230 155" stroke="#c92a2a" stroke-width="2" fill="none"/></g><g transform="translate(110 475.0855760892159) rotate(0 115 77.5)"><path d="M233.56 145.22 C232.85 147.18, 232.13 149.14, 230 155 M233.56 145.22 C232.65 147.72, 231.74 150.21, 230 155" stroke="#c92a2a" stroke-width="2" fill="none"/></g></g><mask/><g transform="translate(138.32580642231102 593.933808422838) rotate(0 50 7)"><text x="0" y="0" font-family="Virgil, Segoe UI Emoji" font-size="10px" fill="#c92a2a" text-anchor="start" style="white-space: pre;" direction="ltr" dominant-baseline="text-before-edge">read footer (40B)</text></g><g transform="translate(430.3456477188521 596.646205607999) rotate(0 100 14)"><text x="100" y="0" font-family="Virgil, Segoe UI Emoji" font-size="10px" fill="#f08c00" text-anchor="middle" style="white-space: pre;" direction="ltr" dominant-baseline="text-before-edge">Coalesced Range reads</text><text x="100" y="14" font-family="Virgil, Segoe UI Emoji" font-size="10px" fill="#f08c00" text-anchor="middle" style="white-space: pre;" direction="ltr" dominant-baseline="text-before-edge">(merge within 64KB gap)</text></g><g stroke-linecap="round" transform="translate(270 770) rotate(0 395 85)"><path d="M32 0 C177.62 0, 323.25 0, 758 0 M758 0 C779.33 0, 790 10.67, 790 32 M790 32 C790 71.83, 790 111.66, 790 138 M790 138 C790 159.33, 779.33 170, 758 170 M758 170 C558.13 170, 358.26 170, 32 170 M32 170 C10.67 170, 0 159.33, 0 138 M0 138 C0 107.11, 0 76.21, 0 32 M0 32 C0 10.67, 10.67 0, 32 0" stroke="#9c36b5" stroke-width="1.5" fill="none" stroke-dasharray="8 9"/></g><g transform="translate(280 775) rotate(0 175 9)"><text x="0" y="0" font-family="Virgil, Segoe UI Emoji" font-size="12px" fill="#9c36b5" text-anchor="start" style="white-space: pre;" direction="ltr" dominant-baseline="text-before-edge">Page-Streaming Pipeline (inside Query DO + Fragment DO)</text></g><g stroke-linecap="round" transform="translate(290 810) rotate(0 75 30)"><path d="M15 0 C62.74 0, 110.48 0, 135 0 C145 0, 150 5, 150 15 C150 25.49, 150 35.99, 150 45 C150 55, 145 60, 135 60 C91.91 60, 48.82 60, 15 60 C5 60, 0 55, 0 45 C0 37.39, 0 29.78, 0 15 C0 5, 5 0, 15 0" stroke="none" stroke-width="0" fill="#ffec99"/><path d="M15 0 C39.08 0, 63.15 0, 135 0 M15 0 C48.5 0, 81.99 0, 135 0 M135 0 C145 0, 150 5, 150 15 M135 0 C145 0, 150 5, 150 15 M150 15 C150 22.51, 150 30.02, 150 45 M150 15 C150 24.99, 150 34.99, 150 45 M150 45 C150 55, 145 60, 135 60 M150 45 C150 55, 145 60, 135 60 M135 60 C87.7 60, 40.4 60, 15 60 M135 60 C109.22 60, 83.44 60, 15 60 M15 60 C5 60, 0 55, 0 45 M15 60 C5 60, 0 55, 0 45 M0 45 C0 34.4, 0 23.8, 0 15 M0 45 C0 36.05, 0 27.1, 0 15 M0 15 C0 5, 5 0, 15 0 M0 15 C0 5, 5 0, 15 0" stroke="#f08c00" stroke-width="2" fill="none"/></g><g transform="translate(305 823) rotate(0 60 17)"><text x="60" y="0" font-family="Virgil, Segoe UI Emoji" font-size="12px" fill="#f08c00" text-anchor="middle" style="white-space: pre;" direction="ltr" dominant-baseline="text-before-edge">R2 Page Fetch</text><text x="60" y="17" font-family="Virgil, Segoe UI Emoji" font-size="12px" fill="#f08c00" text-anchor="middle" style="white-space: pre;" direction="ltr" dominant-baseline="text-before-edge">(coalesced Range)</text></g><g stroke-linecap="round"><g transform="translate(440 840) rotate(0 25 0)"><path d="M0 0 C10.03 0, 20.06 0, 50 0 M0 0 C11.16 0, 22.31 0, 50 0" stroke="#9c36b5" stroke-width="2" fill="none"/></g><g transform="translate(440 840) rotate(0 25 0)"><path d="M26.51 8.55 C31.22 6.83, 35.93 5.12, 50 0 M26.51 8.55 C31.75 6.64, 36.99 4.73, 50 0" stroke="#9c36b5" stroke-width="2" fill="none"/></g><g transform="translate(440 840) rotate(0 25 0)"><path d="M26.51 -8.55 C31.22 -6.83, 35.93 -5.12, 50 0 M26.51 -8.55 C31.75 -6.64, 36.99 -4.73, 50 0" stroke="#9c36b5" stroke-width="2" fill="none"/></g></g><mask/><g stroke-linecap="round" transform="translate(490 810) rotate(0 85 30)"><path d="M15 0 C70.67 0, 126.35 0, 155 0 C165 0, 170 5, 170 15 C170 21.1, 170 27.2, 170 45 C170 55, 165 60, 155 60 C111.14 60, 67.28 60, 15 60 C5 60, 0 55, 0 45 C0 36.42, 0 27.83, 0 15 C0 5, 5 0, 15 0" stroke="none" stroke-width="0" fill="#e599f7"/><path d="M15 0 C43.09 0, 71.19 0, 155 0 M15 0 C70.87 0, 126.74 0, 155 0 M155 0 C165 0, 170 5, 170 15 M155 0 C165 0, 170 5, 170 15 M170 15 C170 21.76, 170 28.52, 170 45 M170 15 C170 21.85, 170 28.7, 170 45 M170 45 C170 55, 165 60, 155 60 M170 45 C170 55, 165 60, 155 60 M155 60 C105.88 60, 56.76 60, 15 60 M155 60 C102.77 60, 50.55 60, 15 60 M15 60 C5 60, 0 55, 0 45 M15 60 C5 60, 0 55, 0 45 M0 45 C0 38.36, 0 31.72, 0 15 M0 45 C0 37.12, 0 29.25, 0 15 M0 15 C0 5, 5 0, 15 0 M0 15 C0 5, 5 0, 15 0" stroke="#9c36b5" stroke-width="2" fill="none"/></g><g transform="translate(505 820) rotate(0 70 20)"><text x="70" y="0" font-family="Virgil, Segoe UI Emoji" font-size="11px" fill="#9c36b5" text-anchor="middle" style="white-space: pre;" direction="ltr" dominant-baseline="text-before-edge">PageProcessor</text><text x="70" y="13.333333333333334" font-family="Virgil, Segoe UI Emoji" font-size="11px" fill="#9c36b5" text-anchor="middle" style="white-space: pre;" direction="ltr" dominant-baseline="text-before-edge">WASM (Zig SIMD)</text></g><g stroke-linecap="round"><g transform="translate(660 840) rotate(0 25 0)"><path d="M0 0 C10.03 0, 20.07 0, 50 0 M0 0 C17.15 0, 34.31 0, 50 0" stroke="#9c36b5" stroke-width="2" fill="none"/></g><g transform="translate(660 840) rotate(0 25 0)"><path d="M26.51 8.55 C31.22 6.83, 35.94 5.12, 50 0 M26.51 8.55 C34.57 5.62, 42.63 2.68, 50 0" stroke="#9c36b5" stroke-width="2" fill="none"/></g><g transform="translate(660 840) rotate(0 25 0)"><path d="M26.51 -8.55 C31.22 -6.83, 35.94 -5.12, 50 0 M26.51 -8.55 C34.57 -5.62, 42.63 -2.68, 50 0" stroke="#9c36b5" stroke-width="2" fill="none"/></g></g><mask/><g stroke-linecap="round" transform="translate(710 810) rotate(0 80 30)"><path d="M15 0 C66.68 0, 118.35 0, 145 0 C155 0, 160 5, 160 15 C160 22.71, 160 30.42, 160 45 C160 55, 155 60, 145 60 C110.22 60, 75.45 60, 15 60 C5 60, 0 55, 0 45 C0 35.45, 0 25.89, 0 15 C0 5, 5 0, 15 0" stroke="none" stroke-width="0" fill="#b2f2bb"/><path d="M15 0 C41.09 0, 67.19 0, 145 0 M15 0 C56.47 0, 97.94 0, 145 0 M145 0 C155 0, 160 5, 160 15 M145 0 C155 0, 160 5, 160 15 M160 15 C160 21.01, 160 27.02, 160 45 M160 15 C160 24.71, 160 34.41, 160 45 M160 45 C160 55, 155 60, 145 60 M160 45 C160 55, 155 60, 145 60 M145 60 C105.01 60, 65.02 60, 15 60 M145 60 C101.94 60, 58.87 60, 15 60 M15 60 C5 60, 0 55, 0 45 M15 60 C5 60, 0 55, 0 45 M0 45 C0 36.32, 0 27.63, 0 15 M0 45 C0 38.2, 0 31.4, 0 15 M0 15 C0 5, 5 0, 15 0 M0 15 C0 5, 5 0, 15 0" stroke="#2f9e44" stroke-width="2" fill="none"/></g><g transform="translate(725 820) rotate(0 65 20)"><text x="65" y="0" font-family="Virgil, Segoe UI Emoji" font-size="11px" fill="#2f9e44" text-anchor="middle" style="white-space: pre;" direction="ltr" dominant-baseline="text-before-edge">Accumulate</text><text x="65" y="13.333333333333334" font-family="Virgil, Segoe UI Emoji" font-size="11px" fill="#2f9e44" text-anchor="middle" style="white-space: pre;" direction="ltr" dominant-baseline="text-before-edge">Partial Results</text><text x="65" y="26.666666666666668" font-family="Virgil, Segoe UI Emoji" font-size="11px" fill="#2f9e44" text-anchor="middle" style="white-space: pre;" direction="ltr" dominant-baseline="text-before-edge">(partial-agg.ts)</text></g><g stroke-linecap="round"><g transform="translate(870 840) rotate(0 35 0)"><path d="M0 0 C14.05 0, 28.1 0, 70 0 M0 0 C18.41 0, 36.82 0, 70 0" stroke="#2f9e44" stroke-width="2" fill="none"/></g><g transform="translate(870 840) rotate(0 35 0)"><path d="M41.81 10.26 C47.47 8.2, 53.13 6.14, 70 0 M41.81 10.26 C49.22 7.56, 56.64 4.86, 70 0" stroke="#2f9e44" stroke-width="2" fill="none"/></g><g transform="translate(870 840) rotate(0 35 0)"><path d="M41.81 -10.26 C47.47 -8.2, 53.13 -6.14, 70 0 M41.81 -10.26 C49.22 -7.56, 56.64 -4.86, 70 0" stroke="#2f9e44" stroke-width="2" fill="none"/></g></g><mask/><g stroke-linecap="round" transform="translate(940 810) rotate(0 55 30)"><path d="M15 0 C46.79 0, 78.58 0, 95 0 C105 0, 110 5, 110 15 C110 24.31, 110 33.63, 110 45 C110 55, 105 60, 95 60 C77.26 60, 59.52 60, 15 60 C5 60, 0 55, 0 45 C0 34.47, 0 23.95, 0 15 C0 5, 5 0, 15 0" stroke="none" stroke-width="0" fill="#a5d8ff"/><path d="M15 0 C31.06 0, 47.12 0, 95 0 M15 0 C34.12 0, 53.23 0, 95 0 M95 0 C105 0, 110 5, 110 15 M95 0 C105 0, 110 5, 110 15 M110 15 C110 26.26, 110 37.52, 110 45 M110 15 C110 21.56, 110 28.12, 110 45 M110 45 C110 55, 105 60, 95 60 M110 45 C110 55, 105 60, 95 60 M95 60 C73.85 60, 52.71 60, 15 60 M95 60 C71.84 60, 48.69 60, 15 60 M15 60 C5 60, 0 55, 0 45 M15 60 C5 60, 0 55, 0 45 M0 45 C0 34.27, 0 23.54, 0 15 M0 45 C0 33.27, 0 21.55, 0 15 M0 15 C0 5, 5 0, 15 0 M0 15 C0 5, 5 0, 15 0" stroke="#1971c2" stroke-width="2" fill="none"/></g><g transform="translate(950 823) rotate(0 45 17)"><text x="45" y="0" font-family="Virgil, Segoe UI Emoji" font-size="12px" fill="#1971c2" text-anchor="middle" style="white-space: pre;" direction="ltr" dominant-baseline="text-before-edge">Return RPC result</text><text x="45" y="17" font-family="Virgil, Segoe UI Emoji" font-size="12px" fill="#1971c2" text-anchor="middle" style="white-space: pre;" direction="ltr" dominant-baseline="text-before-edge">(zero serialization)</text></g><g stroke-linecap="round" transform="translate(330 890) rotate(0 190 20)"><path d="M10 0 C89.58 0, 169.15 0, 370 0 C376.67 0, 380 3.33, 380 10 C380 15.29, 380 20.57, 380 30 C380 36.67, 376.67 40, 370 40 C288.76 40, 207.51 40, 10 40 C3.33 40, 0 36.67, 0 30 C0 24.44, 0 18.88, 0 10 C0 3.33, 3.33 0, 10 0" stroke="none" stroke-width="0" fill="#ffd8a8"/><path d="M10 0 C82.29 0, 154.58 0, 370 0 M370 0 C376.67 0, 380 3.33, 380 10 M380 10 C380 14.87, 380 19.73, 380 30 M380 30 C380 36.67, 376.67 40, 370 40 M370 40 C243.85 40, 117.7 40, 10 40 M10 40 C3.33 40, 0 36.67, 0 30 M0 30 C0 23.78, 0 17.55, 0 10 M0 10 C0 3.33, 3.33 0, 10 0" stroke="#e8590c" stroke-width="1.5" fill="none" stroke-dasharray="8 9"/></g><g transform="translate(350 897) rotate(0 170 13)"><text x="170" y="0" font-family="Virgil, Segoe UI Emoji" font-size="11px" fill="#e8590c" text-anchor="middle" style="white-space: pre;" direction="ltr" dominant-baseline="text-before-edge">Bounded Prefetch: fetch page N+1</text><text x="170" y="13" font-family="Virgil, Segoe UI Emoji" font-size="11px" fill="#e8590c" text-anchor="middle" style="white-space: pre;" direction="ltr" dominant-baseline="text-before-edge">while WASM processes page N</text></g><g stroke-linecap="round" transform="translate(270 970) rotate(0 395 104.46068137499412)"><path d="M32 0 C177.82 0, 323.64 0, 758 0 M758 0 C779.33 0, 790 10.67, 790 32 M790 32 C790 69.22, 790 106.45, 790 176.92 M790 176.92 C790 198.25, 779.33 208.92, 758 208.92 M758 208.92 C521.73 208.92, 285.46 208.92, 32 208.92 M32 208.92 C10.67 208.92, 0 198.25, 0 176.92 M0 176.92 C0 119.65, 0 62.38, 0 32 M0 32 C0 10.67, 10.67 0, 32 0" stroke="#e03131" stroke-width="1.5" fill="none" stroke-dasharray="8 9"/></g><g transform="translate(280 975) rotate(0 210 9)"><text x="0" y="0" font-family="Virgil, Segoe UI Emoji" font-size="12px" fill="#e03131" text-anchor="start" style="white-space: pre;" direction="ltr" dominant-baseline="text-before-edge">TB+ Scale: Fragment DO Pool (frag-{region}-slot-{N}, max 20)</text></g><g stroke-linecap="round" transform="translate(281.24755880556006 993.9676112375273) rotate(0 75 30)"><path d="M15 0 C62.63 0, 110.26 0, 135 0 C145 0, 150 5, 150 15 C150 23.14, 150 31.27, 150 45 C150 55, 145 60, 135 60 C100.87 60, 66.75 60, 15 60 C5 60, 0 55, 0 45 C0 37.56, 0 30.11, 0 15 C0 5, 5 0, 15 0" stroke="none" stroke-width="0" fill="#a5d8ff"/><path d="M15 0 C39.11 0, 63.22 0, 135 0 M15 0 C62.85 0, 110.7 0, 135 0 M135 0 C145 0, 150 5, 150 15 M135 0 C145 0, 150 5, 150 15 M150 15 C150 24.01, 150 33.03, 150 45 M150 15 C150 24.13, 150 33.26, 150 45 M150 45 C150 55, 145 60, 135 60 M150 45 C150 55, 145 60, 135 60 M135 60 C94.86 60, 54.72 60, 15 60 M135 60 C91.31 60, 47.62 60, 15 60 M15 60 C5 60, 0 55, 0 45 M15 60 C5 60, 0 55, 0 45 M0 45 C0 34.14, 0 23.29, 0 15 M0 45 C0 36.5, 0 28, 0 15 M0 15 C0 5, 5 0, 15 0 M0 15 C0 5, 5 0, 15 0" stroke="#1971c2" stroke-width="2" fill="none"/></g><g transform="translate(317.8115999432554 1006.9676112375273) rotate(0 38.43595886230469 17)"><text x="38.43595886230469" y="0" font-family="Virgil, Segoe UI Emoji" font-size="12px" fill="#1971c2" text-anchor="middle" style="white-space: pre;" direction="ltr" dominant-baseline="text-before-edge">Query DO</text><text x="38.43595886230469" y="17" font-family="Virgil, Segoe UI Emoji" font-size="12px" fill="#1971c2" text-anchor="middle" style="white-space: pre;" direction="ltr" dominant-baseline="text-before-edge">(Coordinator)</text></g><g stroke-linecap="round"><g transform="translate(437.24755880556 1023.8676112375276) rotate(0 42.077464285221566 30.580381697898474)"><path d="M0 0 C8.34 0, 16.67 0, 41.46 0 M0 0 C14.53 0, 29.06 0, 41.46 0 M41.46 0 C41.46 16.34, 41.46 32.68, 41.46 61.16 M41.46 0 C41.46 14.85, 41.46 29.71, 41.46 61.16 M41.46 61.16 C55.32 61.16, 69.18 61.16, 84.15 61.16 M41.46 61.16 C52.52 61.16, 63.59 61.16, 84.15 61.16" stroke="#e03131" stroke-width="2" fill="none"/></g><g transform="translate(437.24755880556 1023.8676112375276) rotate(0 42.077464285221566 30.580381697898474)"><path d="M64.09 68.46 C68.13 66.99, 72.16 65.53, 84.15 61.16 M64.09 68.46 C71.13 65.9, 78.16 63.34, 84.15 61.16" stroke="#e03131" stroke-width="2" fill="none"/></g><g transform="translate(437.24755880556 1023.8676112375276) rotate(0 42.077464285221566 30.580381697898474)"><path d="M64.09 53.86 C68.13 55.33, 72.16 56.8, 84.15 61.16 M64.09 53.86 C71.13 56.42, 78.16 58.98, 84.15 61.16" stroke="#e03131" stroke-width="2" fill="none"/></g></g><mask/><g stroke-linecap="round"><g transform="translate(437.24755880556 1023.8676112375276) rotate(0 41.27512357927449 60.51402251690831)"><path d="M0 0 C8.3 0, 16.6 0, 41.28 0 M0 0 C11.5 0, 22.99 0, 41.28 0 M41.28 0 C41.28 28.08, 41.28 56.16, 41.28 121.03 M41.28 0 C41.28 32.38, 41.28 64.77, 41.28 121.03 M41.28 121.03 C56.26 121.03, 71.25 121.03, 82.55 121.03 M41.28 121.03 C50.28 121.03, 59.29 121.03, 82.55 121.03" stroke="#e03131" stroke-width="2" fill="none"/></g><g transform="translate(437.24755880556 1023.8676112375276) rotate(0 41.27512357927449 60.51402251690831)"><path d="M63.16 128.09 C67.06 126.67, 70.96 125.25, 82.55 121.03 M63.16 128.09 C68.56 126.12, 73.96 124.15, 82.55 121.03" stroke="#e03131" stroke-width="2" fill="none"/></g><g transform="translate(437.24755880556 1023.8676112375276) rotate(0 41.27512357927449 60.51402251690831)"><path d="M63.16 113.97 C67.06 115.39, 70.96 116.81, 82.55 121.03 M63.16 113.97 C68.56 115.94, 73.96 117.9, 82.55 121.03" stroke="#e03131" stroke-width="2" fill="none"/></g></g><mask/><g stroke-linecap="round" transform="translate(821.4639921851718 998.8865030209795) rotate(0 114.99999999999994 25)"><path d="M12.5 0 C93.7 0, 174.91 0, 217.5 0 C225.83 0, 230 4.17, 230 12.5 C230 20.97, 230 29.45, 230 37.5 C230 45.83, 225.83 50, 217.5 50 C165.12 50, 112.75 50, 12.5 50 C4.17 50, 0 45.83, 0 37.5 C0 32.25, 0 26.99, 0 12.5 C0 4.17, 4.17 0, 12.5 0" stroke="none" stroke-width="0" fill="#b2f2bb"/><path d="M12.5 0 C53.73 0, 94.96 0, 217.5 0 M12.5 0 C94.18 0, 175.87 0, 217.5 0 M217.5 0 C225.83 0, 230 4.17, 230 12.5 M217.5 0 C225.83 0, 230 4.17, 230 12.5 M230 12.5 C230 21.89, 230 31.28, 230 37.5 M230 12.5 C230 22.01, 230 31.53, 230 37.5 M230 37.5 C230 45.83, 225.83 50, 217.5 50 M230 37.5 C230 45.83, 225.83 50, 217.5 50 M217.5 50 C152.29 50, 87.07 50, 12.5 50 M217.5 50 C144.71 50, 71.92 50, 12.5 50 M12.5 50 C4.17 50, 0 45.83, 0 37.5 M12.5 50 C4.17 50, 0 45.83, 0 37.5 M0 37.5 C0 29.94, 0 22.38, 0 12.5 M0 37.5 C0 29.9, 0 22.29, 0 12.5 M0 12.5 C0 4.17, 4.17 0, 12.5 0 M0 12.5 C0 4.17, 4.17 0, 12.5 0" stroke="#2f9e44" stroke-width="2" fill="none"/></g><g transform="translate(858.9091139503086 1008.8865030209795) rotate(0 77.55487823486322 15)"><text x="77.55487823486328" y="0" font-family="Virgil, Segoe UI Emoji" font-size="10px" fill="#2f9e44" text-anchor="middle" style="white-space: pre;" direction="ltr" dominant-baseline="text-before-edge">mergeQueryResults()</text><text x="77.55487823486328" y="15" font-family="Virgil, Segoe UI Emoji" font-size="10px" fill="#2f9e44" text-anchor="middle" style="white-space: pre;" direction="ltr" dominant-baseline="text-before-edge">k-way merge | partial-agg merge</text></g><g stroke-linecap="round"><g transform="translate(683.4024873760031 1093.9488116463876) rotate(0 66.03075240458435 -35.08115431270403)"><path d="M0 0 C13.28 0, 26.57 0, 66.03 0 M0 0 C25.78 0, 51.55 0, 66.03 0 M66.03 0 C66.03 -25.95, 66.03 -51.9, 66.03 -70.16 M66.03 0 C66.03 -24.45, 66.03 -48.9, 66.03 -70.16 M66.03 -70.16 C89.46 -70.16, 112.9 -70.16, 132.06 -70.16 M66.03 -70.16 C84.34 -70.16, 102.65 -70.16, 132.06 -70.16" stroke="#2f9e44" stroke-width="2" fill="none"/></g><g transform="translate(683.4024873760031 1093.9488116463876) rotate(0 66.03075240458435 -35.08115431270403)"><path d="M103.87 -59.9 C109.54 -61.97, 115.21 -64.03, 132.06 -70.16 M103.87 -59.9 C114.88 -63.91, 125.88 -67.91, 132.06 -70.16" stroke="#2f9e44" stroke-width="2" fill="none"/></g><g transform="translate(683.4024873760031 1093.9488116463876) rotate(0 66.03075240458435 -35.08115431270403)"><path d="M103.87 -80.42 C109.54 -78.36, 115.21 -76.29, 132.06 -70.16 M103.87 -80.42 C114.88 -76.42, 125.88 -72.41, 132.06 -70.16" stroke="#2f9e44" stroke-width="2" fill="none"/></g></g><mask/><g stroke-linecap="round"><g transform="translate(683.1484712746203 1023.2771083175396) rotate(0 66.15776045527576 0.2546973517199831)"><path d="M0 0 C26.62 0.1, 53.24 0.2, 132.32 0.51 M0 0 C34.72 0.13, 69.43 0.27, 132.32 0.51" stroke="#2f9e44" stroke-width="2" fill="none"/></g><g transform="translate(683.1484712746203 1023.2771083175396) rotate(0 66.15776045527576 0.2546973517199831)"><path d="M104.09 10.66 C109.76 8.62, 115.44 6.58, 132.32 0.51 M104.09 10.66 C111.49 8, 118.9 5.33, 132.32 0.51" stroke="#2f9e44" stroke-width="2" fill="none"/></g><g transform="translate(683.1484712746203 1023.2771083175396) rotate(0 66.15776045527576 0.2546973517199831)"><path d="M104.16 -9.86 C109.83 -7.77, 115.49 -5.69, 132.32 0.51 M104.16 -9.86 C111.55 -7.14, 118.94 -4.42, 132.32 0.51" stroke="#2f9e44" stroke-width="2" fill="none"/></g></g><mask/><g transform="translate(49.01330380340141 621.3266385564806) rotate(0 25 9)"><text x="0" y="0" font-family="Virgil, Segoe UI Emoji" font-size="13px" fill="#1e1e1e" text-anchor="start" style="white-space: pre;" direction="ltr" dominant-baseline="text-before-edge">Legend</text></g><g transform="translate(49.01330380340141 646.2410624672648) rotate(0 100 7)"><text x="0" y="0" font-family="Virgil, Segoe UI Emoji" font-size="10px" fill="#1971c2" text-anchor="start" style="white-space: pre;" direction="ltr" dominant-baseline="text-before-edge">--- Solid arrow: data flow</text></g><g transform="translate(49.01330380340141 666.2410624672648) rotate(0 100 7)"><text x="0" y="0" font-family="Virgil, Segoe UI Emoji" font-size="10px" fill="#e03131" text-anchor="start" style="white-space: pre;" direction="ltr" dominant-baseline="text-before-edge">- - Dashed: broadcast invalidation</text></g><g transform="translate(49.01330380340141 686.1700969298663) rotate(0 100 7)"><text x="0" y="0" font-family="Virgil, Segoe UI Emoji" font-size="10px" fill="#2f9e44" text-anchor="start" style="white-space: pre;" direction="ltr" dominant-baseline="text-before-edge">... Dotted: register + refreshStale</text></g><g transform="translate(48.86244754030855 740) rotate(0 130 42)"><text x="0" y="0" font-family="Virgil, Segoe UI Emoji" font-size="10px" fill="#868e96" text-anchor="start" style="white-space: pre;" direction="ltr" dominant-baseline="text-before-edge">Purple = Worker Router</text><text x="0" y="14" font-family="Virgil, Segoe UI Emoji" font-size="10px" fill="#868e96" text-anchor="start" style="white-space: pre;" direction="ltr" dominant-baseline="text-before-edge">Blue = Query DOs + SDK</text><text x="0" y="28" font-family="Virgil, Segoe UI Emoji" font-size="10px" fill="#868e96" text-anchor="start" style="white-space: pre;" direction="ltr" dominant-baseline="text-before-edge">Red/Coral = Master DO / Fragment DOs</text><text x="0" y="42" font-family="Virgil, Segoe UI Emoji" font-size="10px" fill="#868e96" text-anchor="start" style="white-space: pre;" direction="ltr" dominant-baseline="text-before-edge">Yellow = R2 Data Lake</text><text x="0" y="56" font-family="Virgil, Segoe UI Emoji" font-size="10px" fill="#868e96" text-anchor="start" style="white-space: pre;" direction="ltr" dominant-baseline="text-before-edge">Green = Results / Merge</text><text x="0" y="70" font-family="Virgil, Segoe UI Emoji" font-size="10px" fill="#868e96" text-anchor="start" style="white-space: pre;" direction="ltr" dominant-baseline="text-before-edge">Magenta = WASM / PageProcessor</text></g><g stroke-linecap="round" transform="translate(527.1484712746202 995.8771083175395) rotate(0 75 27.5)"><path d="M13.75 0 C62.35 0, 110.95 0, 136.25 0 C145.42 0, 150 4.58, 150 13.75 C150 22.68, 150 31.61, 150 41.25 C150 50.42, 145.42 55, 136.25 55 C107.02 55, 77.79 55, 13.75 55 C4.58 55, 0 50.42, 0 41.25 C0 33.54, 0 25.82, 0 13.75 C0 4.58, 4.58 0, 13.75 0" stroke="none" stroke-width="0" fill="#ffc9c9"/><path d="M13.75 0 C38.37 0, 62.98 0, 136.25 0 M13.75 0 C52.79 0, 91.83 0, 136.25 0 M136.25 0 C145.42 0, 150 4.58, 150 13.75 M136.25 0 C145.42 0, 150 4.58, 150 13.75 M150 13.75 C150 21.33, 150 28.9, 150 41.25 M150 13.75 C150 24.74, 150 35.73, 150 41.25 M150 41.25 C150 50.42, 145.42 55, 136.25 55 M150 41.25 C150 50.42, 145.42 55, 136.25 55 M136.25 55 C100.58 55, 64.9 55, 13.75 55 M136.25 55 C96.77 55, 57.29 55, 13.75 55 M13.75 55 C4.58 55, 0 50.42, 0 41.25 M13.75 55 C4.58 55, 0 50.42, 0 41.25 M0 41.25 C0 34.93, 0 28.6, 0 13.75 M0 41.25 C0 34.44, 0 27.64, 0 13.75 M0 13.75 C0 4.58, 4.58 0, 13.75 0 M0 13.75 C0 4.58, 4.58 0, 13.75 0" stroke="#e03131" stroke-width="2" fill="none"/></g><g transform="translate(555.4135393288194 1005.8771083175395) rotate(0 46.73493194580078 17.5)"><text x="46.73493194580078" y="0" font-family="Virgil, Segoe UI Emoji" font-size="10px" fill="#e03131" text-anchor="middle" style="white-space: pre;" direction="ltr" dominant-baseline="text-before-edge">Fragment DO</text><text x="46.73493194580078" y="11.666666666666664" font-family="Virgil, Segoe UI Emoji" font-size="10px" fill="#e03131" text-anchor="middle" style="white-space: pre;" direction="ltr" dominant-baseline="text-before-edge">slot-0: frags 0..99</text><text x="46.73493194580078" y="23.33333333333333" font-family="Virgil, Segoe UI Emoji" font-size="10px" fill="#e03131" text-anchor="middle" style="white-space: pre;" direction="ltr" dominant-baseline="text-before-edge">+ footer cache</text></g><g stroke-linecap="round" transform="translate(527.4024873760031 1057.6283746333245) rotate(0 75 27.5)"><path d="M13.75 0 C62.33 0, 110.91 0, 136.25 0 C145.42 0, 150 4.58, 150 13.75 C150 24.15, 150 34.56, 150 41.25 C150 50.42, 145.42 55, 136.25 55 C88.13 55, 40.01 55, 13.75 55 C4.58 55, 0 50.42, 0 41.25 C0 32.64, 0 24.04, 0 13.75 C0 4.58, 4.58 0, 13.75 0" stroke="none" stroke-width="0" fill="#ffc9c9"/><path d="M13.75 0 C38.37 0, 62.99 0, 136.25 0 M13.75 0 C42.98 0, 72.22 0, 136.25 0 M136.25 0 C145.42 0, 150 4.58, 150 13.75 M136.25 0 C145.42 0, 150 4.58, 150 13.75 M150 13.75 C150 20.64, 150 27.53, 150 41.25 M150 13.75 C150 21.86, 150 29.97, 150 41.25 M150 41.25 C150 50.42, 145.42 55, 136.25 55 M150 41.25 C150 50.42, 145.42 55, 136.25 55 M136.25 55 C105.88 55, 75.5 55, 13.75 55 M136.25 55 C101.89 55, 67.53 55, 13.75 55 M13.75 55 C4.58 55, 0 50.42, 0 41.25 M13.75 55 C4.58 55, 0 50.42, 0 41.25 M0 41.25 C0 33.05, 0 24.86, 0 13.75 M0 41.25 C0 35.43, 0 29.61, 0 13.75 M0 13.75 C0 4.58, 4.58 0, 13.75 0 M0 13.75 C0 4.58, 4.58 0, 13.75 0" stroke="#e03131" stroke-width="2" fill="none"/></g><g transform="translate(551.6025682475852 1067.6283746333245) rotate(0 50.79991912841797 17.5)"><text x="50.79991912841797" y="0" font-family="Virgil, Segoe UI Emoji" font-size="10px" fill="#e03131" text-anchor="middle" style="white-space: pre;" direction="ltr" dominant-baseline="text-before-edge">Fragment DO</text><text x="50.79991912841797" y="11.666666666666664" font-family="Virgil, Segoe UI Emoji" font-size="10px" fill="#e03131" text-anchor="middle" style="white-space: pre;" direction="ltr" dominant-baseline="text-before-edge">slot-1: frags 100..199</text><text x="50.79991912841797" y="23.33333333333333" font-family="Virgil, Segoe UI Emoji" font-size="10px" fill="#e03131" text-anchor="middle" style="white-space: pre;" direction="ltr" dominant-baseline="text-before-edge">+ footer cache</text></g><g stroke-linecap="round"><g transform="translate(681.797805964109 1144.8956562713443) rotate(0 66.83309311053142 -60.554576625182335)"><path d="M0 0 C13.44 0, 26.89 0, 66.83 0 M0 0 C21.28 0, 42.56 0, 66.83 0 M66.83 0 C66.83 -40.53, 66.83 -81.07, 66.83 -121.11 M66.83 0 C66.83 -45.2, 66.83 -90.4, 66.83 -121.11 M66.83 -121.11 C93.12 -121.11, 119.41 -121.11, 133.67 -121.11 M66.83 -121.11 C82.63 -121.11, 98.43 -121.11, 133.67 -121.11" stroke="#2f9e44" stroke-width="2" fill="none"/></g><g transform="translate(681.797805964109 1144.8956562713443) rotate(0 66.83309311053142 -60.554576625182335)"><path d="M105.48 -110.85 C111.15 -112.91, 116.82 -114.98, 133.67 -121.11 M105.48 -110.85 C114.45 -114.12, 123.43 -117.38, 133.67 -121.11" stroke="#2f9e44" stroke-width="2" fill="none"/></g><g transform="translate(681.797805964109 1144.8956562713443) rotate(0 66.83309311053142 -60.554576625182335)"><path d="M105.48 -131.37 C111.15 -129.31, 116.82 -127.24, 133.67 -121.11 M105.48 -131.37 C114.45 -128.1, 123.43 -124.84, 133.67 -121.11" stroke="#2f9e44" stroke-width="2" fill="none"/></g></g><mask/><g stroke-linecap="round" transform="translate(525.797805964109 1117.4956562713442) rotate(0 75 27.5)"><path d="M13.75 0 C62.31 0, 110.88 0, 136.25 0 C145.42 0, 150 4.58, 150 13.75 C150 20.13, 150 26.5, 150 41.25 C150 50.42, 145.42 55, 136.25 55 C93.74 55, 51.22 55, 13.75 55 C4.58 55, 0 50.42, 0 41.25 C0 31.75, 0 22.26, 0 13.75 C0 4.58, 4.58 0, 13.75 0" stroke="none" stroke-width="0" fill="#ffc9c9"/><path d="M13.75 0 C38.38 0, 63 0, 136.25 0 M13.75 0 C57.68 0, 101.6 0, 136.25 0 M136.25 0 C145.42 0, 150 4.58, 150 13.75 M136.25 0 C145.42 0, 150 4.58, 150 13.75 M150 13.75 C150 19.95, 150 26.15, 150 41.25 M150 13.75 C150 24.48, 150 35.2, 150 41.25 M150 41.25 C150 50.42, 145.42 55, 136.25 55 M150 41.25 C150 50.42, 145.42 55, 136.25 55 M136.25 55 C111.18 55, 86.11 55, 13.75 55 M136.25 55 C107.01 55, 77.77 55, 13.75 55 M13.75 55 C4.58 55, 0 50.42, 0 41.25 M13.75 55 C4.58 55, 0 50.42, 0 41.25 M0 41.25 C0 31.18, 0 21.11, 0 13.75 M0 41.25 C0 30.91, 0 20.58, 0 13.75 M0 13.75 C0 4.58, 4.58 0, 13.75 0 M0 13.75 C0 4.58, 4.58 0, 13.75 0" stroke="#e03131" stroke-width="2" fill="none"/></g><g transform="translate(543.382881342527 1127.4956562713442) rotate(0 57.41492462158203 17.5)"><text x="57.41492462158203" y="0" font-family="Virgil, Segoe UI Emoji" font-size="10px" fill="#e03131" text-anchor="middle" style="white-space: pre;" direction="ltr" dominant-baseline="text-before-edge">Fragment DO</text><text x="57.41492462158203" y="11.666666666666664" font-family="Virgil, Segoe UI Emoji" font-size="10px" fill="#e03131" text-anchor="middle" style="white-space: pre;" direction="ltr" dominant-baseline="text-before-edge">slot-2: frags 200..299</text><text x="57.41492462158203" y="23.33333333333333" font-family="Virgil, Segoe UI Emoji" font-size="10px" fill="#e03131" text-anchor="middle" style="white-space: pre;" direction="ltr" dominant-baseline="text-before-edge">+ footer cache</text></g><g stroke-linecap="round"><g transform="translate(437.24755880556 1023.8676112375276) rotate(0 41.950456234530094 -0.29525145999389224)"><path d="M0 0 C16.87 -0.12, 33.74 -0.24, 83.9 -0.59 M0 0 C18.67 -0.13, 37.34 -0.26, 83.9 -0.59" stroke="#e03131" stroke-width="2" fill="none"/></g><g transform="translate(437.24755880556 1023.8676112375276) rotate(0 41.950456234530094 -0.29525145999389224)"><path d="M55.78 9.87 C61.44 7.77, 67.09 5.66, 83.9 -0.59 M55.78 9.87 C62.04 7.54, 68.3 5.21, 83.9 -0.59" stroke="#e03131" stroke-width="2" fill="none"/></g><g transform="translate(437.24755880556 1023.8676112375276) rotate(0 41.950456234530094 -0.29525145999389224)"><path d="M55.64 -10.65 C61.32 -8.63, 67.01 -6.61, 83.9 -0.59 M55.64 -10.65 C61.93 -8.41, 68.22 -6.17, 83.9 -0.59" stroke="#e03131" stroke-width="2" fill="none"/></g></g><mask/><g transform="translate(440 1010) rotate(0 30 7)"><text x="30" y="0" font-family="Virgil, Segoe UI Emoji" font-size="10px" fill="#e03131" text-anchor="middle" style="white-space: pre;" direction="ltr" dominant-baseline="text-before-edge">fan-out</text></g></svg>